<svg xmlns="http://www.w3.org/2000/svg" width="720.916" height="1620.831" viewBox="0 0 675.859 1519.5289"><path d="M595.852 1518.154c0-.756-.281-2.781-.625-4.5l-.625-3.125-45.125-.24-45.125-.239 44.75-.27c24.613-.15 44.75-.395 44.75-.547 0-.151-1.52-5.547-3.376-11.99l-3.376-11.714h21.907c16.664 0 22.023-.3 22.39-1.256.265-.692-1.324-6.633-3.531-13.204-4.57-13.6-4.648-14.182-2.277-16.802 1.649-1.822 1.649-1.983 0-3.189-.955-.698-1.737-2.145-1.737-3.214 0-1.07-1.054-5.07-2.343-8.89-1.798-5.332-2.783-6.945-4.24-6.945-1.487 0-2.536-1.846-4.828-8.5l-2.928-8.5-.24-52-.24-52 6.1-3.5c21.446-12.306 46.317-38.645 58.116-61.546l2.6-5.047.01-514.617c.01-454.663-.171-515.968-1.514-526.21-7.612-58.068-34.646-112.158-80.19-160.446-13.45-14.26-29.64-29.135-38.909-35.75-6.419-4.58-6.435-4.585-9.16-2.827-7.188 4.635-24.057 19.546-36.296 32.081-49.935 51.144-78.664 108.956-85.902 172.862-.635 5.609-1.018 52.898-1.016 125.5.002 64.075-.3 152.387-.669 196.25l-.672 79.75h-16.675v-4.8c0-14.445-3.217-88.426-4.553-104.7-3.548-43.24-7.961-69.618-15.642-93.5-6.245-19.417-13.445-31.392-20.485-34.068-7.713-2.933-19.325.751-25.646 8.135-6.74 7.874-35.315 67.508-51.637 107.764l-14.731 36.33-13.31 14.144c-14.478 15.383-17.165 19.726-21.158 34.195l-2.208 8-.692 209.5c-.38 115.225-.748 251.687-.815 303.25l-.123 93.75-3.25.024c-14.502.106-40.564 21.976-96.688 81.136-11.31 11.921-32.938 34.424-48.064 50.007-15.126 15.584-37.371 38.683-49.433 51.333-20.811 21.825-22.147 23.46-26.131 32-2.31 4.95-5.348 13.275-6.751 18.5-2.312 8.602-2.613 11.958-3.192 35.5-.614 24.981-.56 26.126 1.387 29.196 1.46 2.302 3.069 3.391 5.752 3.895 3.476.652 9.249-2.062 86.563-40.693l82.839-41.392 8.978-9.016 8.979-9.016 9.005-22.903c4.952-12.597 9.227-23.125 9.499-23.397.471-.471 7.67.874 15.757 2.944 3.364.86 3.75 1.293 3.75 4.198 0 1.781-4.05 13.54-9 26.129-4.95 12.59-9 23.484-9 24.209 0 1.931 21.055 11.858 31.5 14.85 10.784 3.09 23.473 5.287 32.912 5.696 7.768.337 7.487.629 8.975-9.297l.684-4.558-5.786-.211c-9.232-.337-24.044-2.814-33.785-5.648-9.482-2.759-28.5-11.191-28.5-12.637 0-1.204-.234-1.286 10.104 3.513 15.205 7.059 28.62 10.716 44.396 12.104 3.85.339 8.41.833 10.134 1.099 3.617.557 3.885.13 4.87-7.757l.689-5.506-9.316-.703c-5.124-.387-9.517-.905-9.763-1.151-1.267-1.267 1.55-1.46 10.265-.705 7.7.667 9.62.571 9.62-.48 0-.722 1.561-4.411 3.468-8.198 2.737-5.434 4.173-10.628 6.811-24.636l3.344-17.75 2.852 4.91c3.451 5.942 4.039 6.377 8.64 6.396 3.063.013 4.025.609 6.31 3.905 2.574 3.716 2.629 4.047 1.222 7.414l-1.473 3.525 4.71 2.025c9.18 3.95 19.527 6.245 30.867 6.847 12.763.677 15.256 2.306 3.5 2.286-9.448-.016-23.41-2.787-32.632-6.476-5.6-2.24-7.015-2.493-7.722-1.377-1.687 2.663-.82 3.633 5.95 6.66 11.551 5.165 25.991 8.206 38.96 8.206h4.36l-.279-8.808-.279-8.808 5.54-6.942c8.051-10.088 8.48-10.35 10.252-6.289.804 1.841 3.08 17.072 5.06 33.847 4.535 38.439 4.072 36.19 7.382 35.808l2.658-.308 2.788-19c1.534-10.45 5.364-48.025 8.512-83.5 5.612-63.245 5.765-64.506 7.88-64.809 1.794-.257 2.881 1.083 6.461 7.964 11.945 22.96 33.897 43.78 57.442 54.482l8.5 3.863-.323 48.5-.322 48.5-10.77 34.263c-5.923 18.845-10.495 34.708-10.16 35.25.367.595 8.367.987 20.118.987 19.404 0 19.505.011 18.838 2.114-2.232 7.03-8.464 29.589-8.464 30.634 0 .985 10.035 1.252 47 1.252 39.212 0 47-.228 47-1.375zM3.814 1482.779c-2.119-2.668-2.168-3.319-1.653-21.75.55-19.701 2.118-29.869 6.893-44.695 1.783-5.534 3.205-7.76 7.984-12.489l5.814-5.753v21.314c0 19.973.13 21.498 2.077 24.23 1.142 1.604 2.492 2.66 3 2.346.55-.34.923 5.837.923 15.266v15.837l-8.25 4.163c-9.977 5.035-13.734 5.377-16.788 1.531zm620.155-1.256c1.42-.83.611-3.56-6.62-22.356-4.532-11.776-8.548-21.912-8.927-22.525-1.009-1.632-10.719-1.315-13.02.426-1.917 1.45-1.869 1.85 2.75 22.73 2.585 11.69 4.7 21.587 4.7 21.993 0 .973-102.993.961-103.022-.012-.012-.413 2.086-10.322 4.663-22.02 4.571-20.748 4.64-21.306 2.773-22.718-1.121-.849-4.213-1.462-7.462-1.48l-5.549-.032-8.553 22.25c-7.538 19.611-8.37 22.398-7.01 23.5 1.31 1.06 1.06 1.25-1.649 1.25-1.755 0-3.18-.113-3.166-.25.014-.138 4.644-15.1 10.29-33.25l10.265-33 56.462-.258 56.463-.259 7.408 23.259c4.075 12.792 8.87 27.87 10.657 33.508l3.249 10.25-3.16-.03c-2.465-.024-2.804-.238-1.542-.976zm-13.633.09c1.83-.714 5.516-.359 5.516.532 0 .211-1.687.352-3.75.313-2.856-.053-3.277-.254-1.766-.845zm-124.484.533c0-.85 4.762-1.222 6.569-.514 1.366.535.688.777-2.319.827-2.337.039-4.25-.102-4.25-.313zm115.113-21.617c-2.275-10.175-4.11-18.95-4.08-19.5.048-.828 13.967 36.305 13.967 37.258 0 .736-4.56 1.97-5.126 1.388-.344-.355-2.487-8.971-4.761-19.146zm-108.493 16.726c.168-2.102 12.687-36.752 13.122-36.318.305.306-7.147 34.849-8.268 38.324-.565 1.752-5.008-.083-4.854-2.006zm114.278-18.202c-3.794-10.436-6.898-19.324-6.898-19.75 0-.426 1.508-.774 3.352-.774h3.352l5.112 13.25c2.812 7.288 6.26 16.314 7.662 20.058l2.549 6.808-4.116-.308-4.115-.308-6.898-18.976zm10.118 14.81c.054-2.727-10.537-29.334-11.676-29.334-.737 0-1.34.16-1.34.356 0 1.807 11.045 29.159 11.888 29.44.612.204 1.12 0 1.128-.463zm-135.54 2.916c.379-.962 3.533-9.175 7.01-18.25 3.476-9.075 6.637-17.287 7.024-18.25.477-1.184 1.8-1.75 4.097-1.75 1.866 0 3.393.187 3.393.415 0 .407-12.147 34.413-13.514 37.835-.503 1.258-1.824 1.75-4.7 1.75-3.406 0-3.897-.26-3.31-1.75zm11.94-17.255c3.254-8.248 5.609-15.303 5.233-15.679-.375-.375-1.059-.263-1.519.25-.787.88-12.13 28.874-12.13 29.938 0 .273.563.494 1.25.491.688 0 3.912-6.752 7.166-15zm-462.409.255l.01-15.75 38.547-26.363c21.2-14.5 38.67-26.2 38.822-26 2.824 3.73 22.617 33.223 22.617 33.703 0 .649-97.741 49.99-99.25 50.104-.413.03-.747-7.031-.743-15.694zm586.817-20.223c-1.028-3.01-1.47-5.035-.98-4.5 1.042 1.139 4.192 10.336 4.077 11.901-.089 1.21-.452.341-3.097-7.4zM24.855 1411.28v-15.25l87.032-83.5c47.868-45.925 89.305-85.412 92.082-87.75 5.332-4.488 9.811-5.508 13.174-3 1.564 1.166 1.543 1.89-.316 10.75-1.712 8.166-2.927 18.846-5.628 49.5l-.53 6-92.66 69.211c-50.963 38.066-92.772 69.229-92.91 69.25-.137.021-.248-6.823-.247-15.211zm96.925-3c-6.16-8.937-11.252-16.777-11.315-17.42-.062-.644 8.887-7.336 19.887-14.87 11-7.535 24.086-16.518 29.08-19.963 8.768-6.047 9.155-6.205 11.276-4.605 2.056 1.55 2.317 3.226 4.069 26.132 1.03 13.462 1.656 24.83 1.392 25.262-.485.795-41.234 21.562-42.503 21.66-.377.03-5.726-7.258-11.886-16.196zm271.285-24.919c-2.337-18.792-4.69-34.701-5.231-35.353-.66-.796 2.38-.526 9.267.823 5.638 1.104 10.357 2.081 10.487 2.172.578.404-2.882 32.652-5.19 48.37-1.4 9.538-2.546 17.526-2.546 17.75 0 .224-.571.407-1.27.407-.918 0-2.444-9.446-5.517-34.169zM548.852 922.53c0-326 .335-490 1-490s1 164 1 490-.335 490-1 490-1-164-1-490zm-287 487.358c-5.225-.835-14.072-3.03-19.66-4.88-11.205-3.708-24.694-10.096-23.93-11.333.27-.435 4 .934 8.29 3.041 14.615 7.18 31.822 11.643 51.55 13.37 4.263.374 7.75 1.122 7.75 1.663 0 1.154-9.966.381-24-1.86zm292-13.858v-13.5h53v27h-53v-13.5zm-59 0v-13.5h51v27h-51v-13.5zm-435 7.122c0-.207.788-.995 1.75-1.75 1.586-1.243 1.622-1.208.378.378-1.307 1.666-2.128 2.196-2.128 1.372zm4.55-3.538c.523-.504 33.575-25.28 73.45-55.056l72.5-54.14.268 23.556c.186 16.36.606 23.556 1.373 23.556.72 0 .776.435.16 1.25-.52.688-4.916 11.454-9.77 23.926l-8.828 22.676-6.351 6.295-6.352 6.295v-56.208l-4.654-7.617c-2.56-4.19-5.147-7.616-5.75-7.615-.603 0-24.72 16.63-53.596 36.952-28.875 20.323-52.702 36.972-52.95 36.998-.247.026-.023-.364.5-.868zm202.314-4.631c-4.75-.778-12.4-2.601-17-4.052-9.558-3.016-25.864-10.893-25.864-12.494 0-.59.338-.92.75-.732.413.188 3.9 1.969 7.75 3.958 13.75 7.103 30.933 11.83 48.75 13.414 4.263.378 7.75 1.12 7.75 1.65 0 1.105-9.112.386-22.136-1.744zm.136-7.846c0-.216.675-.652 1.5-.969.825-.316 1.5-.14 1.5.393s-.675.969-1.5.969-1.5-.177-1.5-.393zm-8.523-4.441l.665-4.834-7.07-6.269-7.072-6.269v-27.488l11.25-.649c17.611-1.014 38.75-.81 38.75.375 0 1.386-5.088 35.405-5.319 35.56-.1.068-4.343 1.138-9.431 2.378-7.605 1.853-9.25 2.59-9.25 4.142 0 2.017-1.478 2.542-2.5.888-.96-1.554-6.18-1.177-7.929.571-1.965 1.966-1.958 2.344.084 4.6 1.557 1.72 1.522 1.829-.594 1.829-2.113 0-2.209-.291-1.584-4.834zm11.773-6.246c3.866-2.252 1.336-6.92-3.75-6.92-1.705 0-3.64.54-4.3 1.2-4.043 4.043 2.702 8.835 8.05 5.72zm2.125-10.437c.894-.894 1.625-2.012 1.625-2.483 0-3.793-8.245-5.181-10.394-1.75-2.568 4.1 5.167 7.834 8.769 4.233zm1.425-9.683c2.842-2.842.556-6.8-3.929-6.8-2.622 0-5.871 2.214-5.871 4 0 3.255 7.269 5.332 9.8 2.8zm2.177-10.777c2.356-2.356 1.703-4.814-1.613-6.075-2.83-1.076-6.831.221-7.705 2.498-.77 2.01 2.638 5.554 5.341 5.554 1.1 0 2.89-.89 3.977-1.977zm-26.57 36.951c-7.635-2.618-22.407-9.922-22.407-11.08 0-1.308.045-1.292 10.137 3.62 5.1 2.482 11.636 5.258 14.524 6.168 2.887.91 5.018 2.029 4.735 2.486-.658 1.066-.146 1.154-6.99-1.194zm317.283-2.721c7.255-.17 19.405-.171 27-.001 7.596.17 1.66.31-13.19.31s-21.064-.138-13.81-.309zm-58.44 0c7.013-.172 18.488-.172 25.5 0 7.013.172 1.275.312-12.75.312s-19.762-.14-12.75-.312zm-230.14-.316c-3.347-.06-3.433-.134-1.19-1.03 2.891-1.157 14.08-.077 14.08 1.358 0 .623-1.771.764-4.64.37-2.551-.349-6.264-.663-8.25-.698zm275.89-12.437v-9.5h53v19h-53v-9.5zm-59 0v-9.5h51v19h-51v-9.5zm-255.739.96c-5.132-2.496-9.087-4.933-8.789-5.415.559-.904 18.052 7.376 19.073 9.028 1.015 1.643-.772 1.015-10.284-3.612zm104.691-4.913c-7.933-1.674-18.14-5.434-17.512-6.45.255-.412 4.198.496 8.762 2.02 8.188 2.733 21.19 4.883 29.522 4.883 2.527 0 4.276.465 4.276 1.137 0 1.41-15.494.427-25.048-1.59zm-109.443-7.533c-.345-.558-.176-1.014.375-1.014 1.604 0 8.116 4.107 8.116 5.12 0 1.064-7.553-2.587-8.491-4.106zm332.181-1.761c7.255-.17 19.405-.171 27-.001 7.596.17 1.66.31-13.19.31s-21.064-.138-13.81-.309zm-58.44 0c7.013-.172 18.488-.172 25.5 0 7.013.172 1.275.312-12.75.312s-19.762-.14-12.75-.312zm45.75-12.253v-10h53v20h-53v-10zm-59 0v-10h51v20h-51v-10zm-100.5 5.04c-15.034-2.705-86.746-14.04-88.824-14.04-.922 0-1.676.675-1.676 1.5s-.45 1.5-1 1.5c-.652 0-1-16.167-1-46.5v-46.5h35v-31h-35l-.07-12.75c-.037-7.012-.15-137.4-.25-289.75l-.18-277-32.25-.888c-17.737-.488-32.25-1.275-32.25-1.75 0-.474.9-.862 2-.862 1.81 0 2-.667 2-7 0-6.717.097-7 2.393-7 3.067 0 3.607-1.553 3.607-10.382 0-8.343-.834-9.618-6.29-9.618h-3.89l.713-8.75c.838-10.296 3.47-21.354 6.526-27.42 3.882-7.701 4.212-7.733 6.018-.578 1.445 5.727 1.48 7.525.301 15.367-2.236 14.877-3.098 13.38 10.222 17.764 6.38 2.1 11.947 3.435 12.373 2.967.425-.467 3.469-8.983 6.764-18.923l5.991-18.073-5.766-15.427c-4.437-11.869-5.44-15.502-4.349-15.753 1.279-.295 19.675 2.134 26.484 3.495 2.306.462 2.991.061 4.334-2.535 2.3-4.447 6.649-21.307 6.013-23.31-.623-1.964-4.286-3.278-13.444-4.824-3.575-.604-8-1.573-9.832-2.153-3.95-1.252-3.93-1.437 1.461-14.317l3.66-8.742 8.606.68c9.416.744 15.586 2.201 17.112 4.04.652.787.312 6.01-1.012 15.528-1.345 9.673-1.995 19.816-1.995 31.153 0 10.54-.373 16.811-1 16.811-.622 0-1 5.667-1 15v15h-2.5c-2.481 0-2.5.067-2.5 9 0 7.333.278 9 1.5 9 .933 0 1.5.944 1.5 2.5 0 2 .5 2.5 2.5 2.5 2.111 0 2.5.467 2.5 3 0 2.653.34 3 2.94 3 2.675 0 2.967.338 3.25 3.75l.31 3.75h7.5c7.438 0 7.503-.023 7.816-2.75.316-2.742.339-2.75 8.25-2.75h7.934v-3c0-2.333.444-3 2-3 1.795 0 2-.667 2-6.5v-6.5h-3c-2.652 0-3-.34-3-2.934 0-2.456.447-2.985 2.75-3.25 2.314-.266 2.801-.85 3.072-3.682.32-3.352.34-3.364 4.463-2.704 2.277.364 4.274.796 4.438.96 1.138 1.138-3.524 106.651-8.113 183.61-6.193 103.856-8.61 154.113-8.61 179.052v16.948h-23v35h23.647l1.26 21.25c1.73 29.15 9.88 100.68 18.374 161.25l3.225 23 15.997.5 15.997.5-3.5 1.965c-4.588 2.575-18.647 2.739-24.25.282-2.666-1.17-3.749-1.298-3.745-.446.003.66 1.808 14.024 4.01 29.699 2.204 15.675 5.363 39.525 7.02 53 1.656 13.475 3.908 29.769 5.005 36.208 1.937 11.378 6.51 25.54 9.49 29.393 1.441 1.862 1.5 1.86 2.99-.07 2.751-3.563 4.317-12.28 6.111-34.031.409-4.95.92-8.197 1.136-7.215.387 1.757-2.278 35.64-3.379 42.965-.31 2.062-1.087 3.754-1.726 3.759-.639.01-6.112-.882-12.162-1.97zm-58.162-20.298c1.513-1.106 1.686-2.995 1.441-15.71l-.279-14.45-16.5-5.278c-9.075-2.902-16.837-5.283-17.25-5.29-.412-.01-.75 9.436-.75 20.986v21h15.809c11.12 0 16.319-.373 17.529-1.258zm6.995-41.409c.367-.366.667-1.941.667-3.5 0-2.571-.323-2.833-3.5-2.833-3.333 0-3.5.167-3.5 3.5 0 3.177.262 3.5 2.833 3.5 1.559 0 3.134-.3 3.5-.667zm-4.333-2.833c0-.825.675-1.5 1.5-1.5s1.5.675 1.5 1.5-.675 1.5-1.5 1.5-1.5-.675-1.5-1.5zm5-13v-7.5h-13v15h13v-7.5zm-11 0v-5.5h9v11h-9v-5.5zm10.796-17.25l-.296-6.75-4.25-.307-4.25-.308v14.115h9.091l-.295-6.75zm-6.796.25c0-5.2.136-5.5 2.5-5.5s2.5.3 2.5 5.5-.136 5.5-2.5 5.5-2.5-.3-2.5-5.5zm15.555-405.782c.27-.705.369-9.593.218-19.75l-.273-18.468-11.75-.282-11.75-.281v40.063h11.531c8.457 0 11.663-.342 12.024-1.282zm-21.555-18.718v-18h20v36h-20v-18zm27.302-67.636c.384-.383.698-5.347.698-11.03V738.53h-24.068l.284 10.75.284 10.75 11.052.28c6.08.155 11.367-.032 11.75-.416zm-21.302-10.364v-9h20v18h-20v-9zm-75 575.519c0-5.765-.527-13.553-1.17-17.307-.984-5.74-1.573-7.015-3.7-8.018-1.708-.807-9.327-1.194-23.477-1.194h-20.948l.71-16.25c.778-17.83 2.732-36.475 5.08-48.494 1.065-5.445 3.374-11.46 7.75-20.187 10.06-20.065 11.767-21.069 35.814-21.069 13.577 0 17.834.33 20.481 1.586 6.115 2.902 8.575 8.789 11.426 27.336 4.457 28.998 5.225 39.243 5.76 76.828l.53 37.25h-38.256v-10.481zm-50-6.519v-17h22.393c19.497 0 22.472.205 23 1.582.334.87.607 8.52.607 17v15.418h-46v-17zm354.69 9.253c7.255-.17 19.405-.171 27-.001 7.596.17 1.66.31-13.19.31s-21.064-.138-13.81-.309zm-58.44 0c7.013-.172 18.488-.172 25.5 0 7.013.172 1.275.312-12.75.312s-19.762-.14-12.75-.312zm45.75-12.253v-10h53v20h-53v-10zm-59 0v-10h51v20h-51v-10zm-12.413-7.484c-16.636-8.488-30.726-20.466-41.782-35.516-5.457-7.428-11.805-17.903-11.805-19.479 0-.45 12.592-.577 27.983-.285l27.983.532.267-52.793c.147-29.036.111-55.084-.08-57.884l-.346-5.091h-12.807v3.944c0 3.258-3.585 10.434-20.612 41.25-11.337 20.518-21.454 38.656-22.483 40.306-1.83 2.935-1.871-4.46-1.888-338.75l-.017-341.75h66v333.5c0 332.833 0 333.5-2 333.5-1.757 0-2 .667-2 5.5s.243 5.5 2 5.5c1.971 0 2 .667 2 46 0 25.3-.366 46-.813 46-.447 0-4.767-2.018-9.6-4.484zm127.078-7.766c-.31-2.337-.563-21.237-.563-42v-37.75h2.449c2.302 0 2.449-.33 2.449-5.5 0-5.172-.146-5.5-2.454-5.5h-2.454l-.026-333.5-.026-333.5h62.96v696.548l-4.263 7.476c-12.099 21.218-29.634 40.375-48.57 53.062-4.034 2.703-7.696 4.914-8.137 4.914-.442 0-1.056-1.912-1.365-4.25zm-55.665-10.75v-10h53v20h-53v-10zm-59 0v-10h51v20h-51v-10zm-82.707 4.762c.239-1.244.444-.462.455 1.738.011 2.2-.185 3.218-.435 2.262s-.26-2.756-.02-4zm1.045-9.012c.277-.687.504-.125.504 1.25s-.227 1.938-.504 1.25c-.278-.687-.278-1.812 0-2.5zm140.662-21.75v-10h53v20h-53v-10zm-59 0v-10h51v20h-51v-10zm71.69-12.747c7.255-.17 19.405-.171 27-.001 7.596.17 1.66.31-13.19.31s-21.064-.138-13.81-.309zm-58.44 0c7.013-.172 18.488-.172 25.5 0 7.013.172 1.275.312-12.75.312s-19.762-.14-12.75-.312zm-33.25-42.236v-41.983l3.489-6.267 3.488-6.267.011 48.25.011 48.25h-7v-41.983zm-44.203 37.99l1.703-2.994 19.75-.01 19.75-.01v6h-42.907l1.704-2.994zm-8.797 2.024c0-.532.675-.71 1.5-.393.825.317 1.5.753 1.5.969 0 .216-.675.393-1.5.393s-1.5-.436-1.5-.969zm-125.555-22.531c-2.94-20.344-4.486-25.407-9.298-30.467-4.593-4.827-7.547-5.327-28.791-4.874-13.113.28-16.425.652-18.618 2.091-1.467.963-2.818 1.75-3.002 1.75-.184 0-.15-1.575.074-3.5l.409-3.5h62.781l-.15 30.75c-.082 16.913-.33 29.4-.549 27.75-.22-1.65-1.505-10.65-2.856-20zm257.555 8v-13.5h53v27h-53v-13.5zm-59 0v-13.5h51v27h-51v-13.5zm-73.949 9.565c.147-1.618 54.616-98.475 55.548-98.776.604-.195 2.122.474 3.372 1.487l2.275 1.841-27.373 49.534-27.373 49.534-3.25-1.528c-1.787-.84-3.227-1.782-3.199-2.092zm13.949-3.603c0-.552 35.883-65.626 36.602-66.379.219-.229.398 14.734.398 33.25v33.667h-18.5c-10.175 0-18.5-.242-18.5-.538zm-131-12.962v-13.5h31v27h-31v-13.5zm116.872 2.5l.869-7.5.13 7.583c.07 4.171-.2 7.912-.6 8.313-1.222 1.221-1.307-.568-.4-8.396zm133.128-15v-3h57v6h-57v-3zm-62 0v-3h54v6h-54v-3zm62-7c0-1.95.667-2 26.5-2s26.5.05 26.5 2-.667 2-26.5 2-26.5-.05-26.5-2zm-59 0c0-1.948.667-2 25.5-2s25.5.052 25.5 2-.667 2-25.5 2-25.5-.052-25.5-2zm71.69-5.747c7.255-.17 19.405-.171 27-.001 7.596.17 1.66.31-13.19.31s-21.064-.138-13.81-.309zm-58.44 0c7.013-.172 18.488-.172 25.5 0 7.013.172 1.275.312-12.75.312s-19.762-.14-12.75-.312zm45.75-51.253v-49h53v98h-53v-49zm-59 0v-49h51v98h-51v-49zm-258.796 28.75l-.295-6.75h64.091v14.028l-31.75-.264-31.75-.264-.296-6.75zm144.728-6.425l-5.432-1.674 4-.768c4.947-.95 20.942-.901 25 .076l3 .722-2.5 1.039c-6.476 2.691-16.487 2.943-24.068.606zm-144.932-63.825v-61.5h64v123h-64v-61.5zm181.687-134.36c-1.91-53.844-2.707-68.535-3.757-69.183-.733-.454-4.567-1.127-8.519-1.498-6.524-.611-10.702-.348-18.661 1.174-4.713.901-3.01-1.245 2.365-2.981 6.197-2.002 15.96-2.072 21.347-.153 2.179.776 4.13 1.243 4.335 1.037.205-.205-1.695-61.722-4.222-136.705-2.528-74.982-4.591-139.368-4.585-143.081l.01-6.75h16l-.173 272.25c-.118 186.456-.416 253.657-.944 213.25-.425-32.45-1.863-89.762-3.196-127.36zm-46.687 178.899c0-1.625 10.026-4.043 16.432-3.963 6.503.082 12.7 1.82 13.341 3.743.291.873-3.537 1.181-14.69 1.181-8.983 0-15.083-.389-15.083-.961zm105.083-12.736c-.229-.167 1.009-.303 2.75-.303 2.512 0 3.167.418 3.167 2.023 0 1.957-.089 1.967-2.75.303-1.512-.946-2.937-1.857-3.167-2.023zm-105.083-10.43c0-1.688 10.293-4.871 15.685-4.851 5.598.021 14.315 2.87 14.315 4.68 0 .439-6.75.798-15 .798s-15-.282-15-.627zm-10.402-69.873c-4.515-40.382-5.403-54.978-6.21-102-.783-45.594-.242-59.915 7.171-189.906 2.993-52.473 5.475-96.123 5.516-97 .042-.877 3.627 13.481 7.968 31.906l7.893 33.5.032 31.132.032 31.132 3.75-1.338c4.98-1.777 12.498-1.767 16.782.023 1.908.797 3.468 1.71 3.468 2.028 0 .318-2.88.284-6.4-.077-3.519-.36-8.919-.34-12 .044l-5.6.7V953.86l-6.996 78.084c-3.847 42.946-7.309 80.334-7.692 83.084-.64 4.603-.835 3.89-2.444-9-.961-7.7-3.333-28.175-5.27-45.5zm27.902 44.5c-2.75 0-7.362.316-10.25.703-6.534.875-6.762-.266-.5-2.51 5.98-2.144 15.984-2.183 21.23-.084 5.445 2.178 5.073 3.515-.73 2.622-2.612-.402-7-.731-9.75-.731zm178.19-7.247c7.255-.17 19.405-.171 27-.001 7.596.17 1.66.31-13.19.31s-21.064-.138-13.81-.309zm-58.44 0c7.013-.172 18.488-.172 25.5 0 7.013.172 1.275.312-12.75.312s-19.762-.14-12.75-.312zm45.75-60.753v-58.5h53v117h-53v-58.5zm-59 0v-58.5h51v117h-51v-58.5zm-101.5 38.766c-4.4-.258-10.373-.033-13.273.5-6.788 1.248-7.594-.073-1.483-2.431 8.401-3.241 26.256-1.391 26.256 2.72 0 .719-.665.878-1.75.42-.962-.408-5.35-.952-9.75-1.21zm-16.7-25.418c1.655-1.542 10.647-3.848 14.985-3.842 5.312.01 10.962 1.357 13.529 3.235 1.41 1.032-1.067 1.259-13.747 1.259-8.507 0-15.152-.294-14.767-.652zm-140.463-35.598c.363-16.913.66-47.063.661-67l.002-36.25h63v134H235.53l.66-30.75zm143.463 5.598c1.655-1.542 10.647-3.848 14.985-3.842 5.312.01 10.961 1.357 13.53 3.235 1.411 1.032-1.066 1.259-13.747 1.259-8.507 0-15.153-.294-14.768-.652zm18.2-26.348c-4.125 0-9.412.343-11.75.762-5.811 1.041-5.351-.471.818-2.69 6.401-2.301 16.09-2.334 21.682-.074 5.255 2.125 5.532 3.61.5 2.689-2.062-.378-7.125-.687-11.25-.687zm-67-24.5v-16h20v32h-20v-16zm223-55v-58h53v116h-53v-58zm-59 0v-58h51v116h-51v-58zm-94.5 48.5c-3.85 0-9.137.329-11.75.73-6.479.998-5.99-.567.852-2.718 6.306-1.984 17.895-1.72 22.648.516 3.919 1.843 3.4 2.965-1 2.159-2.062-.378-6.9-.687-10.75-.687zm-11.582-32.796c5.413-2.36 15.735-2.437 20.55-.153 1.942.922 3.532 1.738 3.532 1.813 0 .075-6.363.144-14.139.153l-14.139.017 4.196-1.83zM236.852 839.53v-70h63v140h-63v-70zm147.646 33.763c1.134-1.834 11.802-3.961 16.647-3.318 4.106.544 10.707 2.906 10.707 3.83 0 .124-6.257.225-13.904.225-7.648 0-13.7-.332-13.45-.737zm182.044-20.51c7.255-.17 19.405-.171 27 0 7.596.17 1.66.31-13.19.31s-21.064-.138-13.81-.309zm-58.44 0c7.013-.172 18.488-.172 25.5 0 7.013.172 1.275.312-12.75.312s-19.762-.14-12.75-.312zm45.75-60.753v-58.5h53v117h-53v-58.5zm-58.758-.25l-.258-58.25h51.016v117.034l-25.25-.267-25.25-.267-.258-58.25zm-109.242 53.949c0-.166 1.56-.953 3.468-1.75 4.566-1.908 14.826-1.866 18.582.077 1.622.84 2.95 1.627 2.95 1.75-.001.123-5.626.224-12.5.224-6.876 0-12.5-.135-12.5-.3zm-2-24c0-1.205 7.992-3.199 12.819-3.199 5.698 0 12.182 1.516 12.18 2.848 0 .359-5.625.652-12.5.652s-12.5-.135-12.5-.301zm-147-122.14v-67.943l6.75.439c3.713.241 17.888.715 31.5 1.054l24.75.616V767.53h-63v-67.942zm317-30.059v-58h53v116h-53v-58zm-59 21.161c0-20.261.297-46.361.659-58l.659-21.161h49.682v116h-51v-36.84zm-258-69.161c0-2.75.45-5 1-5s1 2.25 1 5-.45 5-1 5-1-2.25-1-5zm0-16.5v-8.5h8v7.833c0 4.309-.3 8.134-.667 8.5-.366.367-2.166.667-4 .667h-3.333v-8.5zm329.69 2.753c7.255-.17 19.405-.171 27-.001 7.596.17 1.66.31-13.19.31s-21.064-.138-13.81-.309zm-58.44 0c7.013-.172 18.488-.172 25.5 0 7.013.172 1.275.312-12.75.312s-19.762-.14-12.75-.312zm45.75-57.253v-55h53v110h-53v-55zm-58 0v-55h50v110h-50v-55zm-234.648 38.839c-4.869-1.74-9.237-3.497-9.708-3.907-.472-.41-.294-5.386.397-11.088 1.101-9.083 1.05-11.235-.418-17.65l-1.672-7.304 10.708-11.445c5.89-6.295 10.982-11.445 11.316-11.445.334 0 3.112 6.838 6.174 15.196l5.566 15.196-5.944 17.804c-3.27 9.792-6.31 17.804-6.756 17.804-.446 0-4.795-1.423-9.663-3.161zm9.364-7.611c2.785-2.172 8.284-15.379 8.284-19.897 0-4.505-1.877-5.065-8.19-2.44-2.818 1.17-5.297 1.955-5.508 1.744-.212-.212 1.546-1.15 3.907-2.087 4.822-1.913 9.791-6.17 9.791-8.39 0-.808-1.148-2.974-2.55-4.814-3.741-4.904-7.276-4.58-13.803 1.266-6.09 5.454-7.564 7.792-7.612 12.073-.026 2.331.504 3.353 1.981 3.822 1.984.63 1.986.684.143 3.318-2.685 3.837-3.332 10.316-1.291 12.922 1.514 1.934 7.655 4.266 11.132 4.227.825-.009 2.497-.794 3.716-1.744zm-9.716-19.228c.825-.533 1.95-.97 2.5-.97s.325.437-.5.97c-.825.533-1.95.97-2.5.97s-.325-.437.5-.97zm1.4-17.202c3.779-3.41 7.511-7.734 8.294-9.608 3.004-7.19-1.47-5.241-11.096 4.835-4.179 4.374-7.598 8.633-7.598 9.464 0 3.032 3.683 1.371 10.4-4.69zm363.942-7.455l-17.158-.65-.08-65.192-.08-65.192-8.513-25.33c-4.681-13.933-8.512-25.477-8.512-25.655 0-.178 18-.324 40-.324h40v183l-14.25-.003c-7.837-.002-21.971-.296-31.408-.654zm40.658-93.843v-19.5h-26v39h26v-19.5zm-23 .5v-17h20v34h-20v-17zm-14 1v-8h-13v16h13v-8zm-10 .5v-5.5h7v11h-7v-5.5zm-193 .5v-91h40.5c22.275 0 40.494.337 40.487.75-.01.412-3.257 11.325-7.223 24.25l-7.21 23.5-.29 66.75-.292 66.75h-65.972v-91zm-133.603 79.422l-4.103-.63 3.422-12.132c1.882-6.673 3.596-12.305 3.808-12.517.811-.812 11.34 1.037 13.058 2.293 1.734 1.268 1.72 1.64-.357 9.399-1.189 4.443-2.85 9.723-3.69 11.734-1.41 3.378-1.774 3.61-4.78 3.07-1.79-.322-5.101-.87-7.358-1.217zm10.527-7.053c3.072-3.905 4.301-9.424 2.958-13.278-2.528-7.252-10.882-.454-10.882 8.857 0 7.243 3.965 9.455 7.924 4.421zm-6.287-1.68c-.8-3.186 1.066-9.392 3.58-11.906 2.015-2.014 2.134-2.023 3.435-.244 1.75 2.392 1.702 4.679-.19 9.208-2.338 5.593-5.787 7.08-6.825 2.942zm-19.782 6.503l-3.644-.692 2.89-7c2.17-5.258 2.743-6.088 2.3-3.337-1.196 7.42 2.375 11.374 6.992 7.742 2.718-2.137 2.979-1.894 1.977 1.845-.653 2.435-3.344 2.805-10.515 1.442zm3.145-8.413c0-5.698 4.324-11.933 7.09-10.223 1.43.884 1.063 8.247-.569 11.403-2.623 5.073-6.521 4.367-6.521-1.18zm9.585-8.962c-.842-3.832-4.128-4.576-7.33-1.661-2.332 2.123-2.503 2.155-1.813.344a370.9 370.9 0 0 0 1.758-4.75c1.135-3.136 1.24-3.16 7.108-1.59l4.336 1.16-1.526 5.48c-.838 3.013-1.619 5.079-1.734 4.59-.115-.49-.474-2.098-.799-3.573zm263.415-14.817c0-.642 9.5-1 26.5-1s26.5.358 26.5 1c0 .641-9.5 1-26.5 1s-26.5-.359-26.5-1zm-58 0c0-.64 9-1 25-1s25 .36 25 1-9 1-25 1-25-.36-25-1zm58-4.5c0-1.296 3.611-1.5 26.5-1.5s26.5.204 26.5 1.5-3.611 1.5-26.5 1.5-26.5-.204-26.5-1.5zm-58 0c0-1.293 3.444-1.5 25-1.5s25 .207 25 1.5-3.444 1.5-25 1.5-25-.207-25-1.5zm58-7.883c0-2.543.497-3.514 2-3.907 1.899-.496 2-1.364 2-17.116 0-15.927-.08-16.594-2-16.594-1.778 0-2-.667-2-6v-6h-8v6c0 4.667-.333 6-1.5 6-1.273 0-1.5 2.503-1.5 16.531 0 13.772.25 16.628 1.5 17.107.926.356 1.5 1.875 1.5 3.969v3.393h-50v-71h17.836c9.81 0 34.785.298 55.5.662l37.664.663v69.674h-53v-3.383zm-238.409-5.128c-2.7-.819-8.437-1.489-12.75-1.489-4.312 0-7.841-.216-7.841-.48s1.76-4.896 3.91-10.294c3.7-9.29 33.086-69.256 33.094-67.536.008 1.664-10.155 78.86-10.54 80.06-.486 1.514.057 1.538-5.873-.26zm-4.244-4.32c1.991-2.2 6.518-15.152 5.914-16.919-.276-.807-2.481-1.25-6.222-1.25-3.43 0-6.207.51-6.805 1.25-2.072 2.56-7.138 15.837-6.59 17.266.888 2.312 11.541 2.042 13.703-.347zm-12.347-.531c0-1.486 6.314-15.219 7.28-15.832 1.425-.905 8.119-1.074 8.967-.226.536.537-3.347 13.155-4.746 15.418-.557.902-11.501 1.51-11.501.64zM554.11 451.28c.19-3.988.345-.725.345 7.25s-.156 11.237-.345 7.25c-.19-3.988-.19-10.513 0-14.5zm-58.258-43.29c0-1.373 5.955-1.51 54.45-1.25 41.91.223 54.74.578 55.7 1.54 1 1-9.89 1.25-54.45 1.25-49.495 0-55.7-.172-55.7-1.54zm1.248-4.71c.253-.688 4.464-14.931 9.357-31.653l8.895-30.402 23 .65c12.65.358 28.18.651 34.513.653h11.512l9.882 29.75c5.434 16.362 10.09 30.312 10.344 31 .367.99-10.8 1.25-53.751 1.25-42.95 0-54.118-.26-53.752-1.25zm-142.735-13.901c-10.457-1.183-19.188-2.296-19.402-2.473-.552-.455 4.786-7.524 7.295-9.66 5.355-4.562 13.226-7.14 18.55-6.075 4.418.884 10.286 6.46 13.864 13.173 1.75 3.281 3.18 6.24 3.18 6.576 0 .963-3.219.752-23.487-1.541zm234.457-42.441c-.868-2.628-.888-3.89-.078-4.7 1.629-1.629 1.352-2.708-.694-2.708-1.477 0-3.389-4.918-10.594-27.25-9.186-28.473-12.22-35.227-19.012-42.315-8.392-8.758-15.512-6.807-24.738 6.78-3.511 5.17-5.33 10.336-13.946 39.597-5.45 18.508-9.908 33.772-9.908 33.92 0 .147-18.675.268-41.5.268h-41.5v-61.855c0-77.481.87-89.689 8.538-119.788 9.202-36.119 28.575-73.793 54.947-106.853 9.064-11.363 28.059-32.115 30.12-32.906.857-.329 13.833-.598 28.835-.598h27.277l11.996 12.327c40.49 41.608 68.42 92.243 78.145 141.673 4.386 22.291 4.447 23.514 4.866 96.75l.407 71.25h-81.976l-1.186-3.592zm-29.97-14.96v-7.553l-5.25.303-5.25.302-.294 7.25-.294 7.25h-16.063c-12.547 0-15.957-.277-15.577-1.266.267-.696 3.945-12.959 8.173-27.25 8.116-27.435 10.196-32.177 17.168-39.15 5.487-5.487 8.905-5.754 13.877-1.084 6.522 6.124 10.276 14.265 19.053 41.315 4.651 14.335 8.457 26.373 8.457 26.75 0 .377-5.4.685-12 .685h-12v-7.552zm-8 1.552c0-6 0-6 3-6s3 0 3 6 0 6-3 6-3 0-3-6zm-23-314.082c3.575-3.294 9.753-8.243 13.73-11 6.412-4.443 7.487-4.876 9.5-3.83 2.57 1.336 12.797 9.57 20.27 16.32l5 4.515-27.5-.01-27.5-.01 6.5-5.988zm-161.5 1414.478c7.82-1.158 7.501-.81 7.489-8.165-.006-3.702-.29-8.418-.63-10.481l-.62-3.75h-6.12c-15.664-.01-36.422-4.3-50.225-10.387l-7.839-3.457-1.293 3.075c-.71 1.69-1.173 3.162-1.027 3.268.146.107 4.194 1.863 8.995 3.902 12.864 5.463 26.105 8.485 42.998 9.816 8.125.64 14.772 1.577 14.772 2.082 0 1.161-17.26.065-29.957-1.901-9.955-1.542-22.825-5.478-32.043-9.8l-5.5-2.578-2.813 6.236-2.813 6.235 2.813 2.347c9.025 7.533 28.606 13.122 47.813 13.648 7.15.196 14.35.157 16-.088zm-31.744-9.818c-12.024-2.765-29.906-9.527-30.585-11.566-.28-.839.069-1.103.943-.715 21.643 9.614 39.072 13.685 58.636 13.697 6.318 0 9.25.372 9.25 1.16 0 2.01-25.881.267-38.244-2.576zm38.244-16.318c0-2.652-1.774-3.26-9.51-3.26-14.334 0-30.46-3.751-45.17-10.507-5.923-2.72-7.28-3.038-7.75-1.814-1.194 3.11-.4 4.124 5.18 6.608 14.265 6.352 28.259 9.559 45.5 10.427 11.364.572 11.75.524 11.75-1.454zm-.015-6.023c-.03-3.337-1.556-3.957-11.485-4.666-15.987-1.142-27.818-4.12-40.15-10.108-4.892-2.376-7.036-2.981-7.572-2.139-1.88 2.956-.558 4.462 6.972 7.947 13.72 6.348 24.399 8.789 44.5 10.17 6.9.475 7.748.343 7.735-1.204zm-.985-8.587c0-2.284-.303-2.367-10.75-2.95-13.207-.736-24.031-3.49-35.49-9.03l-8.741-4.225-.825 2.472c-.77 2.312-.367 2.692 6.19 5.835 3.859 1.849 9.659 4.252 12.89 5.34 7.03 2.368 22.99 4.894 30.976 4.902 5.37.01 5.75-.15 5.75-2.344zm0-7.365v-3l-10.25-.696c-13.005-.885-21.942-2.863-33.104-7.329-7.26-2.904-9.012-3.291-9.734-2.151-.485.765-.888 1.716-.897 2.113-.028 1.353 17.078 8.883 24.791 10.913 4.232 1.113 12.532 2.277 18.444 2.586l10.75.562v-2.998z"/><path d="M268.86 767.123h-30.94V633.332l19.651.012c10.808.01 24.73.492 30.94 1.078l11.288 1.066v131.635H268.86zm0 141.986h-30.94V770.3h61.88v138.808h-30.94zm-1.1 135.463h-32.038l1.094-28.849c.602-15.867 1.097-45.593 1.1-66.06l.005-37.21h61.878v132.119H267.76zm.264 125.428h-31.776v-122.083H299.8V1170h-31.775z" fill="#fff"/><path d="M402.233 1346.923c-2.53-.401-25.858-4.061-51.84-8.133-25.983-4.072-47.243-7.879-47.245-8.459-.002-.58 6.957-1.36 15.465-1.732 8.509-.373 16.41-1.26 17.56-1.97 1.42-.879 2.091-6.083 2.091-16.219v-14.924l-17.56-5.464-17.56-5.463v-40.973h30.963l-.598 7.526-.599 7.525h6.022c5.933 0 6.022-.1 6.022-6.846 0-5.399-.695-7.028-3.287-7.705-2.936-.768-3.337-2.578-3.763-16.986l-.476-16.126-16.912-.474-16.912-.474-1.234-288.849c-.678-158.866-1.409-289.036-1.623-289.266-.214-.23-13.897-.907-30.407-1.505l-30.017-1.087.672-6.021c.369-3.311 2.086-7.367 3.816-9.013 1.988-1.892 3.135-5.273 3.119-9.198-.031-7.402-1.237-9.547-6.246-11.11-2.439-.762-3.763-2.498-3.763-4.936 0-7.378 3.705-23.629 6.708-29.423 2.613-5.04 3.228-5.447 4.262-2.815.665 1.692.755 8.961.2 16.154-.715 9.282-.42 13.561 1.019 14.744 3.522 2.896 21.493 7.433 23.095 5.831.826-.826 4.142-9.34 7.369-18.921l5.866-17.42-5.27-14.73c-2.897-8.101-4.925-15.073-4.505-15.493.42-.42 5.232-.03 10.694.863 18.651 3.054 18.547 3.098 22.407-9.4 5.566-18.02 6.363-16.915-15.82-21.925-7.52-1.699-7.677-2.636-2.479-14.762 3.588-8.37 5.182-8.813 20.13-5.608 8.517 1.827 8.606 1.911 7.541 7.108-1.21 5.913-4.167 59.423-4.24 76.754-.037 8.898-.579 11.289-2.556 11.289-3.914 0-3.47 17.434.546 21.45 1.68 1.68 3.538 4.314 4.128 5.854.591 1.54 2.227 2.799 3.635 2.799 1.447 0 2.561 1.456 2.561 3.344 0 2.89 1.115 3.345 8.183 3.345 5.732 0 8.472-.752 9.146-2.508.647-1.687 3.31-2.513 8.123-2.522 6.134-.012 7.46-.658 9.25-4.514 2.979-6.414 2.733-15.542-.418-15.542a2.516 2.516 0 0 1-2.508-2.508 2.516 2.516 0 0 1 2.508-2.509c1.394 0 2.509-1.486 2.509-3.345 0-3.476 2.63-4.278 6.33-1.93 1.728 1.097 1.816 9.006.449 40.53-3.61 83.246-5.344 117.91-6.079 121.531-.716 3.53-1.604 3.763-14.29 3.763-11.647 0-13.385.368-12.51 2.646.557 1.455 1.014 6.406 1.014 11.002v8.358l12.513-.55 12.512-.55-.837 8.361c-1.924 19.224-5.993 101.682-6.953 140.899l-1.034 42.227h-22.89v36.793h23.128l1.045 12.96c4.04 50.074 11.725 116.975 20.986 182.709 2.656 18.856 7.549 54.98 10.872 80.274 6.524 49.667 9.117 63.3 14.242 74.886 2.798 6.327 3.692 7.155 5.818 5.391 2.069-1.717 2.51-1.573 2.51.82 0 2.228-1.067 2.733-4.598 2.172zm-61.46-539.83H328.23v41.81l8.78-.023c16.913-.044 16.305.772 16.305-21.913v-19.874h-12.542zm2.09 471.48c-1.672-.105-1.672-.3 0-.975 1.275-.514 2.09-4.053 2.09-9.066v-8.222h-15.051v8.362c0 7.776.29 8.362 4.129 8.362 2.982 0 3.86.696 3.165 2.508-1.603 4.177.546 7.35 4.31 6.365 3.714-.971 4.85-7.112 1.357-7.333z" fill="#fff"/><path d="M340.773 984.366h-9.199v-30.103h18.397v30.102h-9.198zm33.697 56.024c-3.78 40.473-7.063 72.457-7.294 71.077-2.332-13.914-9.163-82.871-10.686-107.869-2.712-44.512-.966-121.893 5.094-225.772 2.79-47.83 5.162-90.35 5.272-94.49.16-5.99 1.685-1.554 7.479 21.742l7.278 29.266-.134 116.231-.134 116.23-6.875 73.586zm-33.697-194.832h-9.199v-35.12h18.397v35.12h-9.198zm6.689-88.637h-9.198V741.87h18.396v15.051h-9.198zm-65.812 578.646h-18.148l-.969-14.946c-.532-8.22-1.739-16.386-2.681-18.147-1.875-3.503-14.124-5.337-35.786-5.36l-11.346-.012.84-7.944c.463-4.369 1.274-14.717 1.804-22.995 1.552-24.28 4.079-35.95 10.863-50.172 9.677-20.287 11.64-21.621 32.844-22.314 21.736-.711 26.25.86 29.783 10.362 5.578 15.003 10.022 66.267 10.856 125.256l.089 6.272H281.65z" fill="#fff"/><path d="M234.637 1335.567h-21.802v-33.548l21.323.468 21.323.469.479 16.305.478 16.306h-21.801zm-18.652-102.016c-.815 4.14-2.522 17.938-3.795 30.663-1.272 12.725-2.964 23.733-3.76 24.464-2.074 1.901-178.3 132.959-180.812 134.467-1.606.965-2.09-1.987-2.09-12.731v-13.987l85.71-82.012c100.124-95.805 97.01-92.983 101.828-92.276 4.501.661 4.803 1.841 2.919 11.412zm-14.059 128.758c-6.555 16.104-10.855 24.233-15.024 28.403l-5.842 5.841v-57.14l-5.074-7.004c-3.155-4.354-5.843-6.556-7.108-5.82-1.118.652-5.285 3.388-9.259 6.079-3.974 2.692-7.567 4.552-7.985 4.134-.418-.419 12.428-10.658 28.548-22.756l29.308-21.995.019 17.995c.01 9.897.374 20.63.809 23.849.6 4.449-1.412 11.265-8.392 28.414z" fill="#fff"/><path d="M156.133 1412.417c-11.097 5.563-20.888 10.114-21.757 10.114-1.909 0-21.884-28.38-21.884-31.091 0-1.634 17.9-14.668 48.843-35.565 7.217-4.874 8-5.07 9.438-2.359.864 1.626 2.061 10.482 2.662 19.68.6 9.198 1.493 19.51 1.984 22.915l.89 6.192-20.176 10.114zm-75.48 37.683l-48.563 24.447.482-15.49.482-15.49 35.956-24.67c19.776-13.57 36.877-24.7 38.003-24.734 1.713-.052 22.203 28.281 22.203 30.702 0 .434-21.854 11.79-48.563 25.236zm-59.868 29.99c-17.623 8.93-19.79 5.669-17.306-26.035 2.086-26.615 6.393-42.096 13.645-49.044l5.059-4.847v20.01c0 14.667.64 20.923 2.398 23.432 1.322 1.888 2.92 9.866 3.563 17.793l1.166 14.37-8.525 4.32zm247.239-295.038h-31.776v-11.706H299.8v11.706h-31.775zm30.248 33.448l-.981 9.198-2.256-13.293c-1.929-11.369-3.079-14.117-7.944-18.982l-5.69-5.69-21.74.587c-11.958.322-21.741.022-21.74-.669 0-.69 13.922-1.254 30.939-1.254h30.94l-.274 10.452c-.15 5.75-.714 14.592-1.254 19.651zm20.76 21.741h-14.216v-26.758h28.431v26.758h-14.215zm-28.09 120.412c-1.858 11.87-2.427 12.614-10.868 14.197-4.67.876-6.187.419-8.214-2.476-3.275-4.675-11.362-4.09-11.362.822 0 2.524 1.436 3.581 5.853 4.309l5.854.965-5.777.707c-5.11.626-6.606-.181-12.96-6.991-7.145-7.656-7.185-7.77-7.185-20.268v-12.569l6.271-1.036c3.45-.57 13.986-1.045 23.414-1.055l17.142-.018-.233 6.271c-.128 3.45-.999 11.163-1.935 17.142zm-18.343-21.435c-5.513-.636-8.452 4.32-4.166 7.023 2.37 1.495 2.275 1.892-.824 3.451-5.046 2.54-5.596 5.997-1.14 7.162l3.817.998-3.64 1.347c-2.102.777-3.64 2.782-3.64 4.745 0 2.669 1.089 3.398 5.07 3.398 5.476 0 8.7-4.38 4.937-6.706-1.74-1.076-1.608-1.93.65-4.19 2.294-2.292 2.441-3.316.769-5.33-1.683-2.028-1.52-2.801.875-4.141 4.325-2.42 2.68-7.136-2.708-7.757zm130.465 49.491c-1.866 14.97-3.742 26.87-4.169 26.443-.427-.427-2.825-15.583-5.33-33.68l-4.553-32.902 7.376 1.012c12.269 1.681 11.734-1.453 6.676 39.127z" fill="#fff"/><path d="M28.095 1458.997c-.302-2.76-.853-6.428-1.223-8.153l-.918-4.285c-.276-1.289.088-1.424 1.322-.492.963.727 1.39 4.8 1.377 13.139l-.007 4.808-.55-5.017zm4.771-12.543c-.161 1.84-.356 9.035-.433 15.99-.077 6.954-.258 12.645-.401 12.647-.623.01-.784-3.46-.784-16.882 0-14.04.014-14.28.877-14.82.482-.3.912-.487.955-.413.043.073-.053 1.638-.214 3.478zm132.088-121.005c-6.547 5.081-12.015 9.586-12.831 10.572-1.13 1.363-.054 1.178 3.125-.537 1.768-.953 3.275-1.672 3.35-1.598.074.074-4.044 3.03-9.15 6.568-5.108 3.539-24.02 16.768-42.028 29.398-18.008 12.63-32.833 22.873-32.944 22.762-.112-.112 18.008-13.834 40.267-30.493 56.703-42.438 55.334-41.423 55.563-41.194.114.114-2.294 2.149-5.352 4.522zm10.086 64.98c-.186-1.61-.632-6.878-.989-11.707-.849-11.472-1.393-16.774-2.165-21.082-.796-4.448-1.505-5.885-2.903-5.885-1.101 0-3.75 1.203-5.745 2.609-.646.455-1.27.73-1.388.613-.24-.24 2.677-2.317 4.736-3.372 1.984-1.017 3.246-.864 4.425.537 1.594 1.895 2.029 5.042 3.638 26.371.857 11.368 1.066 17.716.392 11.916zm20.917-11.722c-2.363 5.965-2.61 6.388-5.282 9.082-1.542 1.554-2.87 2.759-2.952 2.677-.081-.08.81-1.413 1.98-2.959s3.625-5.832 5.456-9.523c1.83-3.692 3.316-6.447 3.302-6.123-.013.325-1.14 3.405-2.504 6.846zm21.794-151.754c-.256 1.12-.311 1.02-.515-.927-.125-1.2-.459-2.459-.741-2.799-.282-.34-1.544-.849-2.804-1.13-2.084-.467-2.454-.434-4.095.363-3.109 1.51-11.483 8.866-28.377 24.924-4.322 4.109-7.952 7.378-8.065 7.265-.173-.172 8.69-8.719 27.736-26.748 7.465-7.067 12.814-8.939 16.269-5.693 1.007.947 1.168 2.23.592 4.745zm-6.611 54.144c-.432 4.567-.806 6.696-1.263 7.212-.926 1.043-1.401.904-.951-.28.345-.907 2.238-12.456 2.644-16.13.114-1.032.165-.847.173.627.006 1.15-.264 5.007-.602 8.57zm17.136 17.076c-10.148.043-15.574-.08-15.574-.352 0-.488 21.478-.505 27.385-.022 2.481.202-1.542.33-11.811.373zm29.07 37.277c-.673 0-.803-2.13-1.42-23.256l-.27-9.25-5.903-.257c-3.247-.142-12.911-.38-21.477-.531l-15.574-.274v16.784c0 10.91-.147 16.783-.418 16.783-.272 0-.418-5.941-.418-16.988v-16.99l21.218.23c11.67.128 21.772.398 22.449.603.82.248 1.33.744 1.529 1.488.164.613.436 7.987.605 16.386.27 13.44.231 15.271-.321 15.271zm-2.416 2.475c-.805.02-3.063.316-5.018.66-1.954.344-3.614.626-3.688.627-.073 0-.073 5.221 0 11.602.133 11.51.143 11.62 1.226 13.902.6 1.265 1.886 3.193 2.857 4.286.972 1.092 1.635 1.986 1.473 1.986-.161 0-1.777-1.337-3.59-2.971l-3.295-2.971v-27.004l5.187-.3c2.853-.164 5.44-.197 5.749-.074.309.123-.097.24-.902.258zm44.33-103.655l-.221 9.825-1.161-8.362c-1.262-9.087-1.296-9.466-.775-8.644.433.684 1.609-9.736 2.278-20.204.21-3.29.123 16.51-.122 27.385zm-5.292 109.566c-1.433 9.978-3.95 26.495-4.323 28.37l-.174.876-6.908 1.735c-7.33 1.84-8.8 2.268-10.277 2.981l-.924.447-2.234-.344-2.234-.344.91-.186c2.06-.42 3.68-1.577 4.077-2.911.136-.458.184-.956.125-1.275l-.098-.524.785.86c.432.472 1.125 1.037 1.539 1.256.717.378.85.396 2.822.385 1.746-.01 2.415-.087 4.287-.49 3.838-.829 5.12-1.371 6.352-2.688 1.298-1.387 2.03-3.646 2.942-9.086 1.478-8.814 2.326-17.122 2.478-24.272.018-.834.05-1.515.072-1.515.022 0 .376.072.787.16l.746.16-.014.69c-.008.379-.339 2.951-.736 5.715zm-19.586 20.171c-.3.69-.854 1.396-1.401 1.786-.65.463-.675.28-.062-.454 1.1-1.316 1.237-2.156.535-3.262-1.071-1.69-4.422-2.73-6.97-2.164-.528.118-1.088.268-1.243.335-.203.087-.252.07-.174-.055.168-.272 1.607-.944 3.548-1.656 1.725-.633 1.752-.65 1.33-.83-.414-.176-.399-.184.388-.19a7.76 7.76 0 0 0 1.625-.217c.445-.115.83-.188.856-.162.026.026-.19.358-.48.738-.392.513-.528.837-.528 1.254 0 .589.238.867 1.694 1.983.589.452 1.11 1.401 1.106 2.014-.001.203-.103.6-.225.88zm3.13-19.481c-.313.877-.816 1.397-2.336 2.418-1.558 1.045-1.892 1.4-1.892 2.015 0 .606.188.982 1.093 2.194 1.005 1.345 1.24 1.991 1.004 2.775-.091.306-.26.685-.375.842-.184.252-.2.162-.132-.78.103-1.441-.18-2.157-1.241-3.126-1.134-1.036-2.345-1.404-4.288-1.302l-1.395.073.977-.585c1.095-.656 1.383-1.073 1.103-1.596-.161-.302-.152-.326.096-.23 1.424.55 2.59.43 4.113-.424 1.82-1.02 3.02-2.655 3.046-4.146l.013-.74.2.518c.254.662.26 1.408.015 2.094zm-6.528 34.304c-.045.045-.142.5-.214 1.01-.095.674-.231 1.029-.494 1.292-.493.493-.932.362-1.826-.547-.849-.862-1.412-1.05-3.148-1.047-2.523 0-4.41.766-5.635 2.279-1.132 1.4-1.037 1.83.91 4.091.485.564.882 1.116.882 1.226 0 .45-2.446.46-3.056.012-.392-.287-.342-2.12.158-5.764.544-3.97.436-3.716 1.346-3.148 1.923 1.2 3.71 1.376 8.204.806 1.585-.2 2.899-.35 2.92-.33.02.02-.001.073-.047.12zm-8.343-43.346h-.739v-6.984c0-8.225-.225-13.204-.83-18.367-.255-2.18-.991-6.108-1.317-7.032-.303-.86-.26-1.056.086-.398.726 1.375 1.77 7.759 2.352 14.378.19 2.167 1.187 17.195 1.187 17.898v.505h-.739z" fill="#fff"/><path d="M246.764 1298.6c-1.619-.039-9.95-.07-18.514-.07-15.496 0-15.572-.002-15.572-.298 0-.276.06-.289.85-.185 1.233.163 26.657.14 27.014-.024.262-.12.237-.148-.221-.25-1.383-.304 5.78.302 8.13.689 1.242.204 1.222.206-1.687.137zm39.011 38.551c-3.74.06-9.128.107-11.973.108-5.286 0-11.164.174-15.357.453-1.658.11-2.394.11-2.505 0-.092-.093-.927-.167-2.013-.178-1.826-.02-1.807-.023 1.25-.209 8.374-.507 11.477-.584 22.985-.572 6.464.01 12.35.075 13.082.152 1.088.114.09.159-5.469.246zm-73.619 1.512c-.872 1.41-6.955 16.439-12.94 31.974-.404 1.045-.677 1.58-.73 1.427-.102-.29-.257-.138-.656.648-.138.272-.284.461-.324.42-.04-.04.457-1.293 1.104-2.784 1.702-3.923 2.187-5.081 3.918-9.365 4.674-11.558 6.897-18.095 7.64-22.468.347-2.038.348-2.986.003-7.17-.353-4.281-.476-9.633-.553-24.057-.044-8.394-.107-15.262-.139-15.262-.078 0-33.537 25.111-37.194 27.915-1.607 1.232-2.968 2.24-3.024 2.24-.057 0 .193-.308.556-.684.658-.683.658-.684.216-.58-.244.059-.39.05-.324-.017.066-.068 9.212-6.914 20.325-15.215l20.205-15.091.102 6.961.262 17.9c.197 13.541.421 18.761.908 21.187.136.676.22.81.589.939.52.181.528.318.056 1.082z" fill="#fff"/><path d="M193.906 1384.339c-.406 1.02-.497 1.118-6.673 7.197l-6.262 6.163-.037-28.003-.038-28.004-2.684-4.397c-2.668-4.37-3.932-6.338-5.04-7.846-1.397-1.9.171-.349 1.916 1.897.41.528 1.919 2.58 3.352 4.561l2.605 3.6v57.098l3.414-3.398c1.878-1.87 3.37-3.25 3.316-3.066-.057.195-.034.332.057.332.23 0 4.027-3.728 4.748-4.663a16.16 16.16 0 0 0 1.193-1.88c.662-1.246.72-1.066.133.409zm-26.874-55.729a610.154 610.154 0 0 0-6.199 4.177c-1.813 1.24-3.345 2.254-3.405 2.254-.06 0 .191-.267.557-.593.651-.579.656-.59.222-.497-.284.06-.39.043-.296-.047.204-.196 5.86-3.965 8.651-5.766 2.426-1.566 2.819-1.76 3.16-1.568.151.086-.611.665-2.69 2.041zm8.553 74.496c-3.813 2.407-40.132 20.856-41.647 21.156-.385.076-.509-.035-1.6-1.421-4.516-5.743-17-23.863-20.871-30.294-.513-.85-.932-1.592-.932-1.648 0-.525 6.066-5.189 14.072-10.818 5.94-4.178 37.549-25.84 37.612-25.778.033.033-.041.144-.165.247-.305.253-.284.417.063.473.194.032-1.32 1.138-4.618 3.374-29.104 19.73-45.042 31.445-45.042 33.105 0 1.34 5.585 10.17 12.392 19.592 5.216 7.22 8.742 11.456 9.538 11.456 1.133 0 9.068-3.745 28.144-13.285 11.991-5.996 15.177-7.5 13.054-6.159zm-45.278 22.52c-5.507 3.345-97.831 49.915-98.184 49.525-.315-.35 1.49-1.3 23.222-12.234 51.376-25.848 73.37-37.162 73.894-38.009.44-.712-6.505-11.232-13.938-21.113-4.778-6.35-7.603-9.626-8.3-9.626-.46 0-1.576.624-5.63 3.152-4.562 2.844-10.126 6.486-18.774 12.289-7.57 5.079-10.115 6.817-34.612 23.626-13.767 9.447-14.602 9.996-14.939 9.822-.338-.176.43-.723 15.094-10.753 40.446-27.663 58.66-39.956 59.898-40.427.183-.069.877.835 2.973 3.872 6.208 8.993 17.883 26.447 19.673 29.411.063.104-.088.29-.377.465zm30.598-100.522c-1.403 1.045-11.264 8.41-21.915 16.367-43.467 32.474-103.595 77.323-111.899 83.464l-1.922 1.42-.09-1.717c-.05-.945-.098-7.772-.107-15.17l-.015-13.451 40.222-38.581c79.321-76.085 73.075-70.14 73.701-70.14h.552l-1.256 1.238c-.69.681-12.098 11.607-25.35 24.28a215334.695 215334.695 0 0 0-86.511 82.763l-.924.896.006 6.571c.004 3.615.066 8.8.138 11.524.17 6.42.393 8.004 1.217 8.619.473.353.445.368 3.221-1.652 8.432-6.133 62.135-45.972 108.352-80.379 9.065-6.748 18.344-13.654 20.62-15.346 2.277-1.692 4.223-3.143 4.324-3.223.138-.11.185-.05.185.235 0 .323-.397.678-2.55 2.282zM80.13 1388.12c-2.16 1.643-5.048 3.876-5.65 4.372-.034.028-.029.084.012.125.04.04 1.455-.862 3.143-2.006 1.687-1.145 3.1-2.05 3.137-2.013.056.057-11.634 8.261-15.488 10.869-1.207.818-1.526.95-1.076.448.406-.453 18.547-14.063 18.632-13.979.039.04-1.18 1.022-2.71 2.185zm-51.758 89.142c-1.042.61-11.02 5.52-12.459 6.13-5.92 2.51-8.879 2.551-11.296.159-1.448-1.434-2.104-2.623-2.406-4.359-.33-1.9-.306-9.232.066-20.204.609-17.986 2.176-27.996 6.529-41.705 2.226-7.013 3.191-8.432 10.828-15.927l3.094-3.036.067 17.634c.059 15.6.106 18.895.32 22.338l.053.836-.143-.803c-.178-.995-.438-3.8-.59-6.357-.07-1.165-.136-7.862-.167-16.86-.028-8.347-.09-14.912-.14-14.894-.223.078-5.739 5.44-6.372 6.194-7.189 8.559-11.05 25.374-12.924 56.29-.25 4.107-.253 11.463-.008 13.561.885 7.567 3.517 9.496 10.021 7.344 2.464-.815 4.294-1.644 10.306-4.672l5.67-2.855v.461c0 .433-.027.477-.449.725z" fill="#fff"/><path d="M26.18 1445.452c-.328 0-.414.212-.336.828.045.357-.042.183-.342-.687-.221-.64-.623-1.545-.893-2.01-.653-1.123-.625-1.276.05-.268.297.444.82 1.107 1.161 1.472.575.614.602.665.36.665zm5.709 29.863l-.33.118-.11-.645c-.377-2.206-.536-8.314-.535-20.504l.001-10.243.363-.235c.2-.13.382-.236.405-.236.023 0-.025.194-.107.43-.288.837-.345 3.087-.345 13.629 0 14.523.133 17.39.82 17.533.107.022.047.078-.162.153zm267.749-156.075c-.037-1.093-.167-5.656-.29-10.14-1.105-40.197-4.082-76.29-7.846-95.117-1.487-7.442-2.866-11.615-4.794-14.516-2.8-4.212-6.763-5.62-16.837-5.983-3.942-.142-15.179.171-19.337.54-10.389.92-14.395 3.377-19.227 11.794-2.407 4.193-6.163 12.008-8.092 16.835-3.743 9.369-5.866 19.272-7.171 33.454-.175 1.897-.6 7.494-.943 12.438-.69 9.911-1.347 17.947-1.768 21.637-.263 2.299-.276 2.34-.298.94-.03-1.828.497-12.842.92-19.232 1.048-15.886 3.235-33.274 5.12-40.705 1.256-4.953 3.781-10.993 8.24-19.71 4.992-9.762 7.415-13.172 10.99-15.465 2.267-1.454 4.81-2.31 8.362-2.813 4.565-.646 22.876-.772 29.789-.205 4.425.363 6.695 1.212 8.994 3.362 4.242 3.968 6.02 9.953 9.073 30.526 3.93 26.488 4.724 39.65 5.098 84.52.046 5.404.053 8.932.017 7.84zm-113.308-13.16c-12.378 9.25-22.587 16.849-22.685 16.887-.099.038-.18-.059-.18-.216s2.14-1.88 4.756-3.827 12.705-9.486 22.42-16.752c9.716-7.266 17.757-13.226 17.869-13.244.112-.018.231.05.265.15.033.101-10.067 7.751-22.445 17.001zm-12.1-52.69c-.628.62-1.05 1.185-.936 1.256.264.163-33.573 32.482-34.101 32.571-.714.12-.42-.295 1.538-2.181 10.623-10.229 34.49-32.923 34.555-32.857.047.047-.429.592-1.057 1.212z" fill="#fff"/><path d="M273.79 1188.435c-24.647.094-30.775.231-34.413.769-1.863.275-1.988.49-.514.885.451.12 5.175.277 10.835.36 5.519.08 8.576.165 6.794.187-4.89.06-10.955.425-13.066.782-2.064.35-3.27.836-5.33 2.149l-1.36.865-.073-.677c-.041-.372.044-1.923.188-3.446l.263-2.77h31.325c30.67 0 31.326.01 31.326.398 0 .39-.603.4-25.974.498z" fill="#fff"/><path d="M283.877 1192.7c-.172-.066-.889-.36-1.592-.652-2.797-1.163-6.618-1.564-15.34-1.612-5.481-.03-5.434-.034 4.382-.32l9.922-.29 1.47 1.498c.81.823 1.33 1.442 1.158 1.376zm7.892-6.282c-4.398-.073-16.557-.18-27.02-.24-23.406-.133-28.326-.246-28.326-.648 0-.247 4.787-.29 31.671-.29h31.67v1.31l-7.995-.132zm81.424 156.528c-1.949-.453-60.218-9.556-66.142-10.333-2.124-.279-3.012 0-3.214 1.002-.24 1.19-.434 1.616-.732 1.616-.217 0-.352-.34-.454-1.15-.39-3.088-.6-18.483-.726-53.253l-.138-38.098 17.542-.053 17.542-.053.053-15.626.054-15.627h-35.123v-67.888c0-37.339-.062-70.64-.138-74.003l-.138-6.115h1.322l.003 5.488c.007 14.387.63 141.13.695 141.195.04.04 7.57.281 16.734.535 9.163.253 16.738.51 16.833.572.095.061.283 3.922.417 8.578.642 22.28.824 23.354 4.155 24.49 1.83.625 1.308.707-2.585.407-1.634-.126-3.31-.23-3.723-.23h-.754v14.217h-.836c-.46 0-.836-.052-.836-.116 0-.358 1.05-13.305 1.14-14.047l.106-.888h-31.14v41.083l17.508 5.445 17.508 5.444.05 8.455c.027 4.65-.024 10.006-.113 11.903-.146 3.103-.18 2.442-.334-6.585-.094-5.519-.231-10.775-.305-11.681l-.135-1.647-6.794-2.177c-9.636-3.088-23.674-7.492-25.453-7.985-.829-.23-1.554-.34-1.612-.247-.332.537-.556 8.655-.672 24.334l-.13 17.738 14.334-.074c7.884-.041 14.32-.059 14.3-.041-.128.12-8.336.75-13.205 1.015-9.673.526-14.947 1.152-14.947 1.775 0 .514 8.67 2.196 27.908 5.414 9.556 1.599 41.773 6.71 42.294 6.71.136 0 .247.133.247.294 0 .174-.15.26-.366.21z" fill="#fff"/><path d="M304.364 1240.428c-.414 0-.418-.14-.418-13.38 0-13.239.004-13.378.418-13.378s.418.14.418 13.379c0 13.24-.004 13.379-.418 13.379zm-36.374-67.104h-31.776l-.024 2.56c-.03 3.115-.135 2.835-.237-.627l-.075-2.56h31.943c28.255 0 31.944.035 31.944.313 0 .277-3.67.314-31.776.314zm69.403 101.179h-4.39v-10.871h8.78v10.871h-4.39zm5.629 2.803c-.354.298-.773.542-.93.542-.159 0-.363.131-.455.292-.119.208-.725.314-2.103.366-1.642.062-1.953.022-2.044-.265-.262-.826-.863-1.057-3.253-1.25-1.291-.103-2.395-.235-2.453-.293-.057-.058 2.592-.105 5.888-.105s5.993.04 5.993.086c0 .047-.29.33-.643.628zm-1.772 5.693c-.887.887-2.254.299-2.254-.97 0-1.27 1.367-1.858 2.254-.97.676.675.676 1.264 0 1.94zm.328-27.014c-.215 1.115-.653 1.376-2.31 1.376-2.209 0-2.188.05-2.188-5.33 0-5.382-.02-5.332 2.187-5.332 1.688 0 2.083.251 2.32 1.476.216 1.126.21 6.67-.01 7.81z" fill="#fff"/><path d="M344.678 1272.225c-.102.99-.316 2.212-.474 2.718-.258.822-.29.154-.31-6.349l-.02-7.267-6.533.055-6.533.055-.104 7.212c-.092 6.365-.135 7.082-.366 6.104-.18-.763-.261-3.152-.261-7.682v-6.575h14.842l-.028 4.965c-.016 2.73-.112 5.774-.213 6.764zm-10.682-31.797h-.679l.055-13.38.056-13.378h1.248v26.758h-.68zm10.714 15.389c-.086.588-.255 1.245-.375 1.46-.203.363-.227.353-.325-.128-.143-.701-.574-11.754-.462-11.865.048-.05.28.29.516.752.733 1.437 1.086 6.779.646 9.78zm-.016 26.586a6.855 6.855 0 0 1-.582 1.301c-.37.609-.373.595-.28-1.647.06-1.483.01-2.416-.149-2.712-.318-.594 0-.578.571.03.533.567.745 2.024.44 3.028zm62.799 70.927c-.49 6.702-2.049 21.463-3.521 33.343-.952 7.678-4.166 30.37-4.324 30.53-.048.047-.313.112-.588.144-.375.043-.576-.097-.802-.56-.739-1.506-2.197-10.695-4.215-26.56-3.151-24.767-4.896-37.007-5.982-41.966-.122-.56-.1-.575.787-.574.502 0 1.854.142 3.003.315 2.53.378 14.611 2.782 15.296 3.042.51.194.502.146.346 2.286zm-1.447.206c-.451-1.52-1.51-2.573-3.02-3.003-1.332-.38-13.788-2.08-13.962-1.906-.119.119 1.252 10.274 4.486 33.238 2.922 20.745 4.832 32.728 5.294 33.202.296.305.622-1.073 1.47-6.218 1.726-10.468 5.301-38.73 6.15-48.62.154-1.789-.082-5.562-.418-6.693zm5.412-47.764c-.135 2.969-1.14 16.52-1.745 23.518-1.238 14.336-1.78 17.895-2.867 18.873-.419.376-1.38.244-13.845-1.91a2293.99 2293.99 0 0 0-13.327-2.253c-3.773-.623-6.114-1.098-6.114-1.243 0-.167.343-.18 1.202-.047.66.103 7.504 1.177 15.208 2.388 14.688 2.31 15.417 2.378 16.32 1.53.564-.53.8-2.04.495-3.172-.203-.754-.27-.813-.771-.688-.303.076-.898.414-1.324.751-1.006.797-1.204.78-.51-.045 1.323-1.573 2.475-4.614 3.33-8.791 1.01-4.941 1.636-9.95 2.73-21.87.694-7.55 1.059-10.67 1.273-10.885.092-.09.077.942-.055 3.844zm-6.785-111.357c-3.339 1.805-6.778 2.436-13.24 2.429-5.821-.01-8.624-.434-12.283-1.877-1.007-.398-2.159-.723-2.56-.723-.71 0-.73.024-.73.812 0 .955.702 6.278 3.537 26.783 2.798 20.239 4.472 32.782 6.487 48.604 2.22 17.423 3.229 25.088 4.098 31.124.65 4.516.836 6.253.604 5.668-.387-.976-3.017-19.574-7.2-50.903-4.333-32.456-6.67-49.674-9.617-70.868-4.557-32.767-7.83-57.863-10.76-82.496-1.056-8.884-1.015-8.44-.762-8.44.101 0 .25.635.33 1.411.377 3.64 4.684 37.755 6.265 49.618 1.721 12.913 6.377 46.444 6.46 46.528.023.023 7.001.25 15.508.507 8.506.256 15.544.533 15.64.617.096.083-.703.626-1.777 1.206z" fill="#fff"/><path d="M404.53 1172.236c-5.408 2.089-12.686 2.666-19.311 1.53-2.23-.382-8.647-2.166-9.003-2.503-.334-.316 5.102-1.065 9.377-1.292 4.561-.242 12.82-.12 16.107.238 1.903.208 4.665.778 4.936 1.02.083.073-.865.527-2.106 1.007zm-4.578-18.429c-.316.069-.716.171-.889.227-.172.055-3.08.188-6.463.295-8.828.28-20.915-.144-21.525-.756-.307-.308 1.18-1.17 3.06-1.773 3.855-1.236 9.1-2.083 12.908-2.083 5.346 0 11.34 1.392 12.957 3.009.676.675.665.925-.048 1.081zm.279-23.45c-1.19.299-7.87.542-14.756.536-7.03-.01-14.129-.253-14.377-.501-.232-.231.683-.97 1.926-1.558 1.727-.816 5.437-1.973 8.2-2.557 2.954-.625 7.458-.68 10.105-.121 3.882.818 7.771 2.273 8.937 3.343.597.548.59.7-.035.858zm2.101-24.649l-.677.215c-.185.058-2.043-.102-4.129-.358-5.213-.64-13.305-.647-19.054-.018-3.837.42-5.33.43-5.33.034 0-.58 4.555-2.443 7.525-3.078 5.583-1.193 12.63-1.027 17.12.404 1.695.54 3.98 1.687 4.493 2.255.355.393.36.448.052.546zm-24.088-101.175c-1.075 11.843-3.087 34.044-4.471 49.336-4.275 47.225-5.705 62.159-6.035 63.052-.265.718-.396.28-.854-2.863-1.551-10.645-7.475-62.69-9.099-79.945-2.268-24.095-3.263-49.09-3.6-90.465l-.133-16.358h1.276l-.11 17.821c-.17 27.344.312 46.478 1.632 64.857 1.882 26.209 7.725 84.82 9.898 99.286.33 2.192.455 2.542.632 1.762.669-2.947 4.15-38.088 10.042-101.361 2.85-30.612 2.762-29.72 2.77-27.908.004.69-.873 10.944-1.948 22.786zm26.175 72.559c-.16.061-.794-.028-1.411-.198-4.848-1.337-16.814-1.665-23.226-.636-2.386.382-4.84.49-5.107.223-.507-.507 2.639-2.192 5.783-3.097 4.71-1.357 13.865-1.338 19.268.04 2.124.541 3.295 1.061 4.22 1.873.79.693 1.024 1.583.473 1.795zm.145-26.528c-1.28.271-26.622.196-27.242-.08-.51-.227-.493-.246.654-.762 1.705-.767 4.934-1.732 7.813-2.337 4.76-1 9.218-.901 14.013.31 2.315.584 5.32 1.929 5.483 2.451.045.146-.255.32-.72.418zm3.067-30.008c-.745.225-3.418.278-13.062.257-6.669-.014-12.736-.117-13.484-.228l-1.358-.201 1.59-.758c1.704-.812 5.946-2.004 9.176-2.577 5.68-1.008 14.68.426 17.556 2.797l.52.428-.938.282z" fill="#fff"/><path d="M362.238 1094.528c-.25 0-.31-.392-1.104-7.42-4.369-38.611-7.638-72.07-9.426-96.477a39.806 39.806 0 0 0-.22-2.247l-.106-.68h-22.977v-36.792h22.742l.136-3.397c.074-1.868.21-6.548.303-10.4l.167-7.003.033 10.61.033 10.608h-22.996v35.33h11.812c11.109 0 11.81.022 11.81.365.001.92 1.495 25.072 1.782 28.797 1.32 17.12 4.926 51.926 8.007 77.295.094.776.096 1.411.004 1.411z" fill="#fff"/><path d="M340.844 985.405h-9.93V953.63h19.86v31.775h-9.93zm0-31.148h-9.303v30.102h18.605v-30.102h-9.302zm73.55 9.477c-.233.233-1.556.158-3.848-.218-3.182-.522-17.097-.524-20.924 0-2.83.385-5.4.472-5.4.183 0-.81 4.208-2.463 8.361-3.285 2.346-.465 10.103-.654 12.912-.315 2.877.347 5.367.996 6.948 1.81 1.957 1.01 2.376 1.403 1.95 1.828zm-2.046 30.999c-.379.145-2.49 0-5.132-.344-4.714-.62-16.056-.447-21.113.323-2.304.35-3.688.391-3.86.114-.316-.512 3.273-2.282 6.368-3.141 5.346-1.484 12.406-1.608 17.527-.309 2.133.541 5.536 2.075 6.178 2.785.367.405.369.443.032.572zm-13.389-62.867h-13.588l1.15-.529c4.204-1.93 6.792-2.543 11.497-2.725 5.526-.213 8.883.384 12.503 2.225l2.026 1.03H398.96z" fill="#fff"/><path d="M406.287 800.109c-.182.07-2.61-.039-5.397-.24-6.618-.477-11.914-.282-17.453.643l-.68.113-.012 76.869-.013 76.868-.587 6.166-.588 6.167-.027-59.996c-.014-32.999.036-75.73.113-94.96l.139-34.964h.976v11.313c0 10.676.02 11.307.366 11.204.2-.06 1.451-.49 2.779-.956 3.356-1.18 5.495-1.524 9.398-1.516 4.056.009 6.274.439 9.053 1.755 2.048.97 2.489 1.32 1.933 1.534zm-45.098-17.062c-3.054 53.195-4.552 89.441-5.733 138.755l-.131 5.488h-1.273l.142-8.31c.324-18.884 1.682-50.674 3.58-83.776.172-2.99.645-11.503 1.052-18.919 1.538-28.026 2.198-39.378 2.297-39.476.36-.36.373.887.066 6.237z" fill="#fff"/><path d="M407.992 873.845c-7.55.286-21.708.005-22.955-.456-.442-.164-.433-.187.25-.609.998-.616 3.48-1.414 5.937-1.91 6.318-1.274 10.112-1.15 15.365.506 1.941.612 4.676 1.806 4.876 2.129.079.127-1.226.255-3.472.34zm.039-28.012c-3.113.167-15.579.14-19.315-.044l-2.718-.133 1.587-.764c3.498-1.685 5.884-2.135 11.27-2.127 4.748.008 6.978.408 9.515 1.706.918.47 1.791.937 1.941 1.04.17.115-.69.236-2.28.322zm-.441-24.244c-1.894.226-17.25.407-20.54.241-3.062-.154-3.119-.166-2.662-.536 1.089-.881 5.95-2.108 10.013-2.527 4.053-.418 11.053.501 13.285 1.744 1.22.679 1.198.923-.096 1.078zm-54.534 17.868c-.09 1.65-.225 3.06-.302 3.136-.076.075-.075-.898.003-2.163.121-1.952-.23-32.285-.374-32.43-.028-.028-4.376-.15-9.662-.27-5.287-.122-10.577-.264-11.755-.316l-2.143-.094v40.322l8.31-.012c4.57-.007 9.391-.09 10.714-.187 1.322-.096 2.442-.139 2.488-.095.215.203-1.915.907-3.325 1.099-.862.117-5.4.272-10.086.344l-8.519.132v-41.836h24.877l-.031 14.686c-.018 8.077-.105 16.035-.195 17.684z" fill="#fff"/><path d="M350.46 845.343c-.276 0-.314-2.079-.314-17.456v-17.455h-18.605v17.455c0 15.377-.037 17.456-.314 17.456-.276 0-.313-2.125-.313-17.874v-17.873h19.86v17.873c0 15.749-.038 17.874-.314 17.874zm8.764-70.031c-2.026 33.205-4.384 76.468-6.02 110.482-.156 3.22-.294 5.1-.309 4.18-.066-4.193 1.76-46.105 3.216-73.793 1.397-26.573 2.446-42.363 3.432-51.635.569-5.355.479-2.303-.319 10.766zm23.011 1.463h-.523v-42.41l-4.904-19.716c-4.97-19.978-6.716-26.695-7.87-30.26-1.003-3.103-1.605-4.113-1.935-3.252-.07.184-.271 3.127-.446 6.542-.661 12.902-1.95 35.968-3.94 70.535-.806 14.02-1.14 18.716-1.323 18.603-.184-.114-.12-2.341.263-9.138.638-11.309 1.373-24.268 2.177-38.358.345-6.036.863-15.161 1.151-20.278.289-5.116.62-10.901.735-12.856.51-8.64.834-14.346 1.07-18.87.14-2.676.333-4.788.427-4.693.345.344 3.846 14.68 11.156 45.68l4.485 19.016v39.455h-.523zm-35.329-18.396h-9.93V740.61h19.86v1.254H338.23v15.051h18.606v1.464h-9.93z" fill="#fff"/><path d="M368.4 588.214c-1.187 36.164-4.351 103.567-7.068 150.514-.283 4.887-.681 11.801-.885 15.365-.204 3.565-.4 6.222-.437 5.906-.058-.506-.154-.575-.806-.575h-.74l.128-.888c.07-.49.186-5.193.257-10.453l.129-9.564-1.646-.025-1.646-.026 1.23-.18c2.51-.366 3.486-1.297 3.874-3.692.696-4.307 1.971-28.492 4.406-83.563.462-10.463 1.027-23.163 1.255-28.222.713-15.8 1.041-24.392 1.245-32.523.179-7.126.165-9.302-.08-12.997-.076-1.152-.058-1.202.424-1.202h.503l-.043 5.174a443.033 443.033 0 0 1-.1 6.95zM334.646 744.79c-.101-.977-.324-2.325-.495-2.995-.405-1.588-.392-1.963.077-2.214.36-.193.396-.069.521 1.822.074 1.116.122 2.734.108 3.597l-.027 1.568-.184-1.777z" fill="#fff"/><path d="M368.612 575.723c-.059.214-.3.366-.584.366-.416 0-.504-.138-.631-.993-.27-1.8-.584-2.268-2.027-3.009-1.066-.547-1.579-.68-2.645-.69-1.232-.01-1.365.034-1.923.658-.58.65-.672.945-.936 3.025-.178 1.4-.856 2.304-1.992 2.66-1.869.584-2.14.73-2.526 1.363a2.732 2.732 0 0 0-.094 2.603c.428.829.8 1.08 2.047 1.384l1.103.27-1.502.022c-1.894.03-2.46-.184-2.758-1.038-.294-.842-.3-2.353-.015-3.38.253-.912.845-1.285 2.393-1.51 2.424-.35 2.885-.891 3.239-3.793.293-2.408.352-2.574 1.003-2.822.57-.217 3.481.143 6.367.787l1.411.315.003 1.29c.002.71.04 1.478.085 1.708.045.23.037.583-.018.784zm-10.932 23.053c-.447.923-1.018 1.863-1.269 2.09l-.456.413.074-1.926c.086-2.217.277-2.537 1.614-2.717 1.089-.146 1.09-.037.037 2.14zm-9.206 4.21c-5.724.326-6.86.695-8.077 2.624-.289.457-.576.779-.639.715-.063-.063-.048-.649.034-1.302.212-1.698.676-2.098 2.642-2.272.85-.076 3.52-.108 5.935-.073l4.39.064-4.285.244zm-24.633 3.69c-.253-.294-.443-.953-.536-1.856-.231-2.257-.998-3.264-2.684-3.527-.49-.076-1.126-.28-1.414-.453-.485-.291-.385-.307 1.372-.227 1.041.048 2.092.193 2.335.322.56.3.84 1.19.996 3.166.069.862.17 1.897.224 2.3l.1.731-.393-.456zm-6.119-7.083c-.095-.059-.453-.691-.795-1.406a18.811 18.811 0 0 0-1.368-2.343l-.746-1.045.855-.065c1.108-.084 1.815.373 1.952 1.265.206 1.339.273 3.7.102 3.594zm-5.389-7.728a9.915 9.915 0 0 1-.75-1.41c-.266-.636-.273-.778-.041-.778.525 0 1.024.811 1.12 1.82l.096 1.002-.425-.634zm-13.247 43.474c-.373-.051-3.172-.325-6.219-.608-11.174-1.037-18.637-1.322-39.353-1.504l-15.627-.137v62.75c0 62.608 0 62.748-.418 62.748-.417 0-.418-.14-.418-63.442v-63.442l.889.099c2.734.304 13.24.753 26.81 1.146 11.678.337 31.597.836 33.395.837h1.62v.823c0 .808-.012.821-.679.73zm-5.383-3.672c-3.728.067-37.212-.98-46.2-1.445-7.502-.388-10.452-.682-10.452-1.042 0-.232 1.372-.617 2.206-.619.35 0 .76-.119.91-.262.223-.214.248-.141.135.396l-.139.658 2.573.13c1.415.07 6.618.27 11.562.443 20.048.7 39.641 1.494 40.555 1.644.23.038-.287.081-1.15.097zM243.8 615.39c-.767 1.074-1.867 3.497-2.337 5.144l-.41 1.44-.014-2.717c-.018-3.51.165-4.197 1.194-4.506.427-.127 1.071-.2 1.432-.162l.657.07-.522.731zm-5.309 9.505c-.298 1.468-.592 1.767-1.001 1.015-.44-.808-.573-6.629-.187-8.1.62-2.359 1.216-.909 1.325 3.224.04 1.552-.02 3.29-.137 3.861zm6.079-15.103c-.218 2.876-.274 3.03-1.197 3.294-.43.122-2.029.282-3.552.355l-2.77.132v-16.998h7.735l-.03 5.592c-.017 3.076-.1 6.507-.185 7.625zm6.344-43.32c-.093 1.628-.395 3.994-1.214 9.512-.392 2.645-.756 5.185-.808 5.644-.157 1.378.087-5.862.29-8.576.983-13.227-.019-20.083-2.499-17.096-1.012 1.22-3.25 5.931-4.2 8.842-3.234 9.916-5.434 23.75-4.206 26.447.52 1.14 1.834 2.272 3.188 2.743l1.126.392-2.799.06c-1.539.031-2.846.01-2.905-.049-.138-.137.711-10.286 1.127-13.462.755-5.778 2.13-11.973 3.762-16.964.962-2.94 3.74-8.84 4.896-10.4 1.233-1.664 1.669-1.198 2.823 3.015 1.153 4.206 1.576 7.156 1.42 9.893zm-3.2 40.56c-.127 1.302-.728 3.967-.896 3.968-.025 0-.046-2.61-.046-5.801 0-3.19-.064-6.272-.142-6.847l-.14-1.045.39.836c.717 1.53 1.126 5.886.834 8.889z" fill="#fff"/><path d="M279.199 569.713c-4.125 12.206-6.45 18.69-7.673 21.393-.592 1.31-.606 1.322-1.283 1.176-2.046-.444-15.508-5.327-17.716-6.425-.74-.369-.973-.618-1.122-1.197-.233-.912.12-6.418.735-11.458a64.29 64.29 0 0 0 .467-7.566c.017-4.24-.023-4.518-1.666-11.67-.511-2.222-.929-4.17-.929-4.33 0-.25 5.027-5.745 11.465-12.535 2.94-3.1 10.15-10.348 10.293-10.348.22 0 1.612 3.185 3.334 7.63 1.926 4.971 8.36 22.431 8.344 22.64-.006.08-1.918 5.791-4.25 12.69zm-.704-10.557c-.229-.457-.677-.884-1.194-1.136-.79-.385-.903-.389-2.404-.077-.867.18-3.034.891-4.816 1.58-3.375 1.305-4.748 1.715-4.523 1.351.07-.114 1.046-.607 2.169-1.097 5.462-2.38 8.862-4.748 10.513-7.32.573-.894.658-1.189.569-1.98-.24-2.13-3.59-6.573-5.695-7.553-2.98-1.388-6.018-.08-11.618 5.01-5.187 4.713-6.676 7.266-6.676 11.446 0 2.321.579 3.28 2.33 3.862 1.31.435 1.316.8.05 2.689-1.963 2.925-2.665 5.21-2.673 8.694-.004 2.075.062 2.555.484 3.503.82 1.844 2.41 2.957 6.057 4.242 2.971 1.047 5.277 1.408 6.605 1.036 2.887-.808 4.897-3.239 7.434-8.99 3.248-7.361 4.505-13.024 3.388-15.26zm-7.265-27.595c-1.133-.94-4.681 1.654-10.768 7.873-4.247 4.338-7.695 8.394-8.555 10.064-.357.692.064 1.882.723 2.048 1.35.338 4.162-1.355 8.543-5.145 3.815-3.3 8.09-8.018 9.154-10.105 1.127-2.209 1.512-4.23.903-4.735zm-4.599 61.549c-1.734-.21-7.509-1.73-10.428-2.743-3.09-1.072-5.372-2.152-6.11-2.89-.732-.732-.608-1.039.18-.447.374.28 1.15.742 1.725 1.026 1.149.568 7.76 2.802 12.595 4.255 1.996.6 2.715.882 2.038.8z" fill="#fff"/><path d="M300.897 529.471c-1.717 0-5.842-.502-11.25-1.368-8.44-1.352-12.758-1.693-13.013-1.028-.364.948 1.691 7.678 6.19 20.27l3.51 9.825-3.651 10.87c-4.384 13.053-8.566 24.404-8.618 23.387-.007-.13.515-1.682 1.159-3.45.644-1.767 3.265-9.472 5.826-17.123l4.655-13.91-3.634-9.713c-4.043-10.806-6.4-17.62-6.777-19.588-.345-1.804-.162-2.005 1.67-1.827 7.597.737 24.678 3.162 25.075 3.56.053.052-.461.095-1.142.095zm12.613 41.999c-1.168-.016-1.235-.038-.63-.214.84-.242 1.306-1.065 1.646-2.902l.251-1.359.02 2.247.02 2.248-1.307-.02zm3.174-42.835c-.152 9.23-.35 11.994-.924 12.812-.294.42-.31.336-.21-1.11.059-.86.202-3.774.318-6.476.241-5.603.808-16.884.905-17.978.1-1.143.072 2.867-.09 12.752zm-6.57-20.763c-.674 2.914-2.255 8.553-3.36 11.982-1.708 5.305-2.661 7.16-3.791 7.377-.475.091-13.388-1.852-13.61-2.048-.083-.073 5.34-19.088 6.334-22.209l.749-2.352h1.272c2.478 0 8.185 1.037 10.564 1.918 1.366.507 2.37 1.589 2.35 2.532-.008.37-.237 1.63-.508 2.8zm-3.583-2.879c-.399-.845-.91-1.563-1.323-1.857-1.653-1.177-3.804-.605-5.808 1.545-2.239 2.4-3.387 5.316-3.556 9.028-.221 4.848 1.298 8.027 3.835 8.027 1.763 0 4.304-2.39 5.827-5.483 1.4-2.843 1.795-4.55 1.73-7.478-.05-2.196-.11-2.523-.705-3.782zm-18.189 16.473c-.611 2.576-2.095 3.25-6.172 2.807-2.163-.236-7.668-1.182-7.832-1.346-.085-.084 2.963-7.59 4.093-10.084.354-.779.691-1.368.75-1.308.06.059.004 1.003-.126 2.097-.656 5.567 1.736 9.253 5.203 8.017.496-.177 1.573-.795 2.392-1.372.82-.577 1.613-1.05 1.763-1.05.34 0 .322.578-.071 2.24z" fill="#fff"/><path d="M288.477 512.4c-.688 3.873-2.592 6.91-4.61 7.353-.848.186-1.786-.383-2.337-1.418-.41-.769-.47-1.185-.46-3.184.01-1.948.1-2.555.59-3.972 1.378-3.997 3.766-6.581 5.732-6.205.941.18 1.186.936 1.227 3.792.02 1.442-.043 3.078-.142 3.634z" fill="#fff"/><path d="M293.178 504.22c-1.136 3.954-1.93 6.086-1.968 5.287-.011-.23-.251-1.346-.533-2.48-.767-3.08-1.733-4.105-3.869-4.105-1.336 0-2.611.63-4.246 2.098-.667.599-1.27 1.03-1.34.96-.193-.194 2.448-7.161 2.9-7.646.217-.233.627-.483.912-.554.64-.16 9.303 1.995 9.282 2.31-.008.12-.52 1.979-1.138 4.13zm12.129 6.96c-.703 2.579-2.105 5.392-3.407 6.833-1.399 1.548-2.595 1.825-3.457.802-.83-.987-1.041-1.934-.929-4.165.181-3.59 1.89-7.623 4.107-9.697.58-.542 1.238-.986 1.463-.986.484 0 1.532 1.259 2.113 2.54.49 1.08.538 3.1.11 4.672z" fill="#fff"/><path d="M367.56 589.259c-.09 4.344-.679 19.704-1.208 31.566-.274 6.151-.76 17.087-1.078 24.302l-.579 13.118h-63.623l-.088-13.065c-.053-7.881-.167-13.144-.287-13.264-.369-.368-13.552-.998-43.642-2.088-9.061-.328-16.51-.63-16.552-.673-.173-.174.767-7.089 1.16-8.539.62-2.277 1.874-4.717 3.224-6.271 2.253-2.593 3.036-5.112 3.033-9.762-.002-3.44-.253-5.184-.983-6.811-.812-1.812-2.055-2.742-5.204-3.894-1.587-.58-2.737-1.51-3.24-2.619-.77-1.69-.423-6.553.976-13.714 1.518-7.77 3.29-13.74 5.307-17.867 2.149-4.399 2.995-5.15 3.786-3.362.873 1.971 1.037 9.32.388 17.264-.323 3.942-.327 10.285-.01 11.746.389 1.782.939 2.447 2.85 3.445 5.756 3.007 20.191 6.18 21.474 4.721 1.18-1.342 4.385-9.853 9.94-26.392l3.334-9.93-3-8.362c-4.493-12.524-6.768-19.668-6.768-21.254v-.592h1.621c2.075 0 5.706.427 11.352 1.335 6.407 1.03 8.172 1.238 10.65 1.258 4.898.04 6.324-1.37 8.646-8.55 3.802-11.758 4.519-14.919 3.89-17.162-.748-2.674-3.395-3.891-13.373-6.15-6.8-1.54-8.82-2.084-9.874-2.657-2.361-1.285-2.25-3.141.608-10.197 2.626-6.479 3.993-8.708 6.002-9.783.785-.42 1.143-.459 4.1-.443 3.457.018 5.094.267 12.421 1.89 3.813.845 5.431 1.397 6.12 2.085.582.582.632 1.802.181 4.37-1.048 5.962-2.826 34.436-3.988 63.864-.065 1.667-.206 6.888-.311 11.602-.106 4.714-.3 9.16-.432 9.88-.304 1.662-.915 2.587-1.893 2.867-1.98.566-2.665 2.387-2.837 7.53-.127 3.773.208 6.773 1.098 9.844.68 2.343 1.109 3.148 2.524 4.73 1.443 1.614 2.544 3.214 3.592 5.22.934 1.79 2.125 2.746 3.717 2.985 1.648.247 2.59 1.603 2.593 3.73.002 1.235.478 1.934 1.617 2.374.871.336 1.646.385 6.12.385 6.894 0 8.616-.409 9.684-2.296.618-1.09 1.337-1.575 3.01-2.033 1.353-.37 1.37-.382.381-.275-1.494.162-2.762.847-3.42 1.848l-.562.851-.067-.693a3.29 3.29 0 0 1 .192-1.32c.418-1.008 1.214-1.21 4.624-1.168 2.4.029 2.72.064 1.627.179-.747.078.24.102 2.195.053 4.107-.104 5.508-.317 6.735-1.024 3.495-2.015 6.058-13.044 4.066-17.496-.497-1.11-.976-1.517-2-1.701-1.024-.184-1.665-.6-1.975-1.278-.503-1.106-.178-2.402.795-3.169.19-.15.223-.257.08-.261-.134 0-.486.282-.784.636-1.06 1.26-.572 3.427.912 4.044l.742.309-1.098.01c-1.614.017-1.933-.38-1.933-2.403 0-1.685.348-2.7.99-2.892.203-.06 1.023-.258 1.823-.44.8-.181 1.623-.483 1.83-.669.205-.186.374-.242.374-.123 0 .326-.495.672-1.608 1.126l-1.005.41.836-.127c1.712-.261 2.52-1.286 2.735-3.47.305-3.098 1.946-3.875 5.046-2.39 1.46.7 1.505.746 1.831 1.83.184.61.422 2.57.529 4.351.183 3.063.192 4.665.061 10.87z" fill="#fff"/><path d="M319.716 485.78a434.87 434.87 0 0 1-.924 7.526c-.354 2.702-.73 5.618-.836 6.48-.17 1.389-.18 1.281-.089-.94.156-3.805.89-12.28 1.268-14.634.184-1.15.38-2.77.435-3.6.096-1.444.074-1.535-.5-2.109-.856-.856-2.358-1.352-7.312-2.414-10.784-2.312-14.114-2.403-16.665-.457-1.391 1.06-2.554 3.206-5.052 9.315-2.204 5.39-2.651 7.706-1.767 9.156.63 1.032 2.452 1.763 6.893 2.761 9.31 2.095 15.154 3.725 14.76 4.119-.06.06-.484-.04-.941-.223-1.403-.561-4.698-1.323-10.057-2.324-5.372-1.003-9.716-2.005-10.972-2.53-1.776-.742-1.976-1.785-.936-4.888.547-1.633 6.983-17.315 7.191-17.524.11-.11 10.664.76 13.602 1.121 6.448.794 11.279 2.254 12.016 3.632.288.537.23 4.332-.114 7.533zm11.484-86.546l-2.18 16.828c-4.427 34.18-7.61 57.625-7.958 58.626-.123.352-.348.64-.5.64-.152 0-1.436-.336-2.854-.745-5.451-1.574-8.028-1.917-16.312-2.17-3.3-.101-6.095-.243-6.212-.315-.416-.257 3.361-9.847 6.879-17.466 7.639-16.546 26.644-55.173 29.16-59.265.624-1.015.624-1.117-.023 3.867zm-14.402 53.131c-.847-.666-3.12-.934-6.883-.813-4.928.16-5.638.452-6.974 2.87-1.661 3.007-4.986 11.8-5.436 14.38-.252 1.44.144 1.988 1.804 2.494 1.78.544 6.668.475 8.903-.124 2.083-.558 2.798-.977 3.53-2.067 1.746-2.6 5.467-13.207 5.567-15.87.009-.252-.218-.64-.511-.87z" fill="#fff"/><path d="M314.398 456.446c-1.34 5.129-3.745 11.847-4.357 12.175-.748.4-4.043.73-7.382.74-1.916.01-3.551-.059-3.634-.141-.485-.48 5.867-14.46 7.093-15.611.255-.24.965-.53 1.579-.647 1.423-.27 6.09-.275 6.793-.01.684.26.676.553-.092 3.492zm-1.611 51.074c-.515 2.95-4.784 16.578-5.67 18.105-.425.731-.25-.017.4-1.699 1.823-4.73 4.848-16.896 5.014-20.168.01-.21.075-.175.196.105.184.43.223 2.73.06 3.658zm64.635-116.303c-.665.254-6.305-.11-13.27-.859-14.307-1.537-28.774-3.314-29.024-3.564-.33-.33 2.464-4.308 5.216-7.431 3.092-3.51 7.731-6.257 12.933-7.659 1.631-.44 2.482-.54 4.709-.553 3.114-.018 4.153.273 6.585 1.844 4.363 2.82 7.852 7.112 11.233 13.82 1.988 3.945 2.09 4.22 1.618 4.402zm253.096-41.851l-40.736-.448v-4.332c0-2.383-.84-5.393-1.866-6.69-1.027-1.296-5.068-12.14-8.98-24.098-12.477-38.133-19.42-49.336-30.573-49.336-6.44 0-14.829 8.645-19.025 19.605-1.682 4.394-6.888 20.783-11.569 36.42l-8.51 28.43-40.43.449-40.432.447v-67.387c0-73.118.96-86.248 8.341-114.126 12.23-46.19 34.17-84.083 74.97-129.483l8.153-9.071 27.458-.751 27.458-.752 15.028 15.727c39.817 41.666 65.05 87.812 76.295 139.527 3.308 15.214 3.668 22.74 4.38 91.448l.774 74.87-40.736-.449zM548.39 25.247l-25.503-.064 8.362-7.4c4.599-4.07 10.744-8.693 13.657-10.274l5.294-2.875 11.848 9.692c6.515 5.33 11.847 9.983 11.847 10.339 0 .356-11.477.618-25.504.582z" fill="#fff"/><path d="M570.47 338.047h-11.627v-7.704c0-6.339-.469-7.525-2.645-6.69-1.455.558-4.09 1.015-5.853 1.015-2.628 0-3.208 1.21-3.208 6.69v6.69h-15.23c-11.496 0-15.036-.513-14.433-2.091.439-1.15 3.963-12.627 7.832-25.504 7.512-25.008 12.81-36.024 19.4-40.342 3.73-2.444 4.466-2.45 8.095-.073 6.435 4.217 10.303 12.09 20.077 40.869l9.217 27.14h-11.626zm-19.476 65.223c-49.417 0-52.698-.184-51.967-2.926.428-1.61 4.453-15.603 8.944-31.095l8.165-28.169 5.884.974c3.236.535 18.425.982 33.752.992l27.868.018 10.05 30.103 10.05 30.103h-52.746z" fill="#fff"/><path d="M499.347 382.366l-7.322 23.413-.039 65.641-.038 65.641h-63.551V356.444h39.301c21.616 0 39.227.564 39.136 1.254-.09.69-3.46 11.79-7.487 24.668z" fill="#fff"/><path d="M579.748 481.873c-14.257 0-25.922-.61-25.922-1.353 0-.744 1.105-2.814 2.455-4.6 3.436-4.541 3.436-32.053 0-36.595-1.35-1.785-2.455-4.984-2.455-7.108 0-3.003-.928-3.86-4.18-3.86-3.65 0-4.182.73-4.182 5.754 0 3.165-.752 6.22-1.672 6.788-2.191 1.354-2.191 33.766 0 35.12.92.569 1.672 2.118 1.672 3.444 0 1.987-4.25 2.41-24.25 2.41h-24.249v-70.76l22.842 1.096c12.562.603 37.021 1.096 54.352 1.096h31.511v68.568h-25.922zm-58.533 122.084h-24.25V496.924h48.5v107.033h-24.25zm58.533 0h-25.922V496.924h51.844v107.033h-25.922z" fill="#fff"/><path d="M639.954 537.061h-30.94V403.967l-7.525-22.438c-4.14-12.34-7.526-23.033-7.526-23.761 0-.729 17.31-1.324 38.465-1.324h38.465v180.618h-30.939zm14.215-113.722H640.79v40.137h26.758V423.34H654.17zm-31.026 13.38h-7.613l.505 8.78c.475 8.257.788 8.811 5.246 9.322 8.062.923 9.475-.522 9.475-9.688v-8.415h-7.613z" fill="#fff"/><path d="M653.333 460.132h-9.198v-31.776h18.396v31.776h-9.198zm-27.081-12.157c-.424-1.627-.396-3.885.062-5.017.458-1.133.805.199.771 2.958-.034 2.76-.409 3.686-.833 2.059z" fill="#fff"/><path d="M623.424 451.207h-3.193v-10.453h6.365l-.346 1.568c-.427 1.938-.417 4.298.027 6.899l.34 1.986h-3.193zm-67.035-112.762c-.164.632-.573.732-2.565.627l-2.37-.124v-10.871l2.077-.13c2.886-.183 3.161.31 3.101 5.541-.027 2.313-.136 4.544-.243 4.957zm47.746 70.266c-.92.162-21.052.4-44.737.527-40.191.216-61.636-.09-62.947-.9-.359-.222-.278-.443.284-.776 1.813-1.073 102.892-.593 107.609.512l1.463.342-1.672.295zm.338 79.154c-2.621.448-45.719.448-48.34 0-2.398-.408-2.42-1.195-.045-1.617 2.034-.361 47.171-.34 48.848.024 1.992.431 1.764 1.214-.463 1.594zm-1.133 4.015c-4.296.39-41.778.39-46.074 0l-3.303-.3 2.09-.29c2.725-.379 45.775-.379 48.5 0l2.09.29-3.303.3zm-58.575-4.234c-1.807.78-45.844.797-47.627.018-.954-.417-1.108-.642-.71-1.04.72-.72 47.535-.733 48.755-.013.799.471.78.517-.418 1.035zm-2.091 4.234c-3.807.383-39.675.383-43.482 0l-2.926-.293 1.881-.3c2.453-.39 43.12-.39 45.573 0l1.881.3-2.927.293zm37.838 235.27h-26.34V611.757h52.68v115.394h-26.34zm-59.997 0H495.22v-37.524c-.002-34.317.475-67.245 1.083-74.839l.243-3.031h49.264v115.395h-25.295zm2.405 123.043c-12.59-.079-23.849-.243-25.019-.364l-2.127-.22-.276-19.733c-.152-10.853-.277-36.901-.277-57.885v-38.15h50.589v116.497l-22.89-.145zm57.592.296h-26.34V733.84h52.68v116.65h-26.34zM640.3 1065.39h-31.357V542.77h62.714v522.62H640.3zm-89.76-7.002c-.126 5.827-.255 7.003-.768 7.003-.543 0-.61-31.3-.557-262.251.033-144.238.174-284.17.314-310.96l.253-48.708.313 44.11c.32 45.04.72 558.096.445 570.806zm-30.025-86.233H495.22V856.76h50.59v115.395h-25.295zm59.997 123.339h-26.34V978.845h52.68v116.649h-26.34zm0-123.339h-26.34V856.76h52.68v115.395h-26.34zm-59.997 123.339H495.22V978.845h50.59v116.649h-25.295zm0 103.688H495.22v-97.417h50.59v97.417h-25.295zm59.997 0h-26.34v-97.417h52.68v97.417h-26.34zm-102.015 51.008h-3.345v-83.736l2.789-5.064c1.533-2.785 3.038-5.434 3.344-5.888.465-.689.556 7.062.556 46.931v47.756h-3.344zm-23.575-53.308c-14.756 26.675-27.029 48.846-27.274 49.27-.42.725-.617.683-3.438-.737-1.646-.83-2.993-1.63-2.993-1.78 0-1.352 47.065-85.297 55.142-98.352.303-.49.682-.407 2.193.48 1.005.588 2.136 1.419 2.513 1.845.648.732-.802 3.465-26.143 49.274zm-4.229 52.471c-11.612 0-21.114-.107-21.114-.239 0-.13.612-1.351 1.36-2.712l1.358-2.474 19.755-.01h19.755v5.435h-21.114zm2.927-9.198c-13.832 0-18.187-.12-18.187-.5 0-.56 7.554-14.444 24.403-44.85l11.344-20.471.26 9.183c.144 5.051.285 19.861.314 32.91l.053 23.728H453.62z" fill="#fff"/><path d="M492.334 1301.686c-.137 5.442-.405 10.05-.594 10.24-.545.543-14.289-6.642-20.426-10.68-13.753-9.048-25.258-20.659-34.862-35.184-4.037-6.106-7.525-12.433-7.092-12.865.363-.362 31.553-.286 45.478.111l10.348.295-.005-56.582c-.003-31.12-.121-57.288-.264-58.15l-.259-1.568h-12.851v2.252c0 1.238-.318 3.26-.707 4.494-1.419 4.505-9.655 19.976-31.836 59.808-5.05 9.066-9.552 17.095-10.005 17.841-.808 1.329-.832 1.337-1.115.396-.667-2.22-1.027-74.129-1.05-209.906l-.024-144.557h65.744l-.248 162.953c-.137 89.624-.417 166.324-.623 170.444-.39 7.778-.332 7.56-2.335 8.815-.84.526-1.3 4.633-.889 7.928.27 2.159.416 2.424 1.548 2.818.697.244 1.457.922 1.718 1.535.522 1.226.789 62.088.349 79.562z" fill="#fff"/><path d="M518.843 1217.16h-26.967v-5.436h53.934v5.436h-26.967zm1.672 30.103H495.22v-26.34h50.59v26.34h-25.295zm59.997 0h-26.34v-26.34h52.68v26.34h-26.34zm1.882-30.103h-28.222v-5.436h56.443v5.436h-28.221zm23.767-8.727c-.564.468-5.024.596-24.21.695-12.935.067-24.43-.032-25.544-.22-1.774-.296-2.026-.465-2.026-1.356 0-.85.275-1.074 1.672-1.364.92-.192 12.415-.294 25.545-.228 19.486.098 24 .226 24.563.694.868.72.868 1.058 0 1.779zm-61.041 0c-.564.468-4.92.596-23.519.694-12.555.066-23.58-.036-24.5-.228-1.391-.29-1.672-.517-1.672-1.356 0-.838.28-1.066 1.665-1.353.915-.19 11.94-.293 24.499-.228 18.61.096 22.963.224 23.526.692.868.72.868 1.058 0 1.779zm4.877 171.157c-.163 16.765-.291 6.393-.529-42.61-.31-64.102-.316-276.794-.007-273.366.088.977.338 1.777.555 1.777.407 0 .39 271.886-.019 314.2zm75.849 102.643c-2.118 0-2.27-.06-1.673-.657.833-.833.826-1.052-.153-4.578-1.499-5.397-14.773-39.7-15.77-40.756-.465-.49-1.656-.621-5.49-.602-7.454.038-9.241 1.194-8.635 5.583.197 1.422 6.711 32.365 8.338 39.604.2.887.124.897-9.516 1.195-12.339.38-92.115.109-92.54-.316-.318-.318.673-5.326 5.063-25.595 2.83-13.067 3.475-17.127 2.876-18.114-.999-1.644-3.49-2.343-8.976-2.518l-5.257-.167-1.587 4.123c-11.922 30.987-14.448 38.008-14.448 40.157 0 .611.312 1.456.692 1.876.664.733.586.765-1.881.765-1.415 0-2.577-.141-2.581-.314-.004-.172 4.547-15.012 10.115-32.978l10.123-32.664 56.171-.312c30.895-.172 56.276-.208 56.404-.08.247.247 21.053 65.504 21.054 66.034 0 .173-1.048.314-2.33.314zm-105.331-72.749H495.22v-26.758h50.59v26.758h-25.295zm59.997 0h-26.34v-26.758h52.68v26.758h-26.34zm0-33.03h-26.34v-18.814h52.68v18.814h-26.34zm0-25.085h-26.34v-19.651h52.68v19.651h-26.34zm0-25.922h-26.34v-19.651h52.68v19.651h-26.34zm0-25.922h-26.34v-19.651h52.68v19.651h-26.34zm0-26.34h-26.34v-19.651h52.68v19.651h-26.34zm-59.997 0H495.22v-19.651h50.59v19.651h-25.295zm0 26.34H495.22v-19.651h50.59v19.651h-25.295zm0 25.922H495.22v-19.651h50.59v19.651h-25.295zm0 25.922H495.22v-19.651h50.59v19.651h-25.295zm0 25.085H495.22v-18.814h50.59v18.814h-25.295z" fill="#fff"/><path d="M503.93 1448.994c-3.466 15.754-6.249 28.212-6.539 29.267-.442 1.611-1.97 1.862-3.588.589-1.557-1.226-1.544-1.28 3.954-16.686 7.163-20.07 8.157-22.191 6.173-13.17zm-3.726-2.926c-7.507 21.113-11.02 30.61-11.55 31.218-1.144 1.31-7.24 1.489-7.225.21.003-.27 3.195-8.768 7.093-18.886 4.718-12.246 7.387-18.64 7.984-19.128.629-.512 1.635-.731 3.36-.731 2.074 0 2.459.115 2.44.731-.012.403-.958 3.366-2.102 6.586zm-2.256-2.718c-.943 0-1.533 1.155-5.612 10.984-5.889 14.193-7.802 19.47-7.256 20.017.258.257.775.35 1.151.205 1.2-.46 6.247-11.871 10.289-23.262 2.115-5.961 2.471-7.944 1.428-7.944zm111.586 35.552c-.595.226-1.675.456-2.401.512l-1.32.101-1.356-5.226c-1.66-6.393-5.83-25.01-6.182-27.594-.17-1.256-.124-1.673.14-1.255.719 1.14 12.2 32.11 12.2 32.91 0 .077-.486.326-1.081.552zm8.293-.715c-2.012-.133-3.781-.359-3.932-.502-.246-.234-9.125-24.568-12.504-34.27-1.602-4.6-1.534-4.726 2.47-4.563l2.652.108 2.09 5.435c4.747 12.34 12.883 33.737 12.883 33.88 0 .085-1.647.045-3.659-.088zm-4.143-14.759c-3.333-8.902-7.083-17.533-8.022-18.466-.402-.4-.988-.575-1.401-.418-.651.247-.623.529.34 3.405 2.85 8.503 10.593 26.758 11.351 26.758 1.548 0 1.075-2.353-2.268-11.279zm-121.041 18.818c-.503.106-6.048.109-6.428 0-.396-.111-.36-.266.104-.46.975-.41 3.626-.588 5.116-.346.719.116 1.6.456 1.6.616 0 .057-.177.141-.392.187zm128.022-35.014c-.185.114-.509-.7-2.134-5.365-1.167-3.35-1.828-5.503-1.933-6.292-.096-.727.065-.601.604.472 1.534 3.05 3.958 10.88 3.463 11.185zm-5.099 34.992c-.22.092-1.047.134-2.77.14-2.366.01-3.24-.06-3.24-.248 0-.17 1-.557 1.829-.708 1.5-.272 3.615-.032 4.249.485l.245.2-.313.131z" fill="#fff"/><path d="M605.42 1478.66c-.641-1.992-2.952-11.596-4.855-20.173-1.707-7.694-3.56-16.533-3.547-16.928.006-.207.594 1.187 1.781 4.219.516 1.317.923 2.439.904 2.494-.018.055-.215-.365-.438-.932-.56-1.424-.899-2.128-1.026-2.128-.205 0 .01 1.802.498 4.181 1.628 7.92 4.725 21.333 6.367 27.568.612 2.325.742 3.028.315 1.699zm21.048 3.787c-3.097-.041-3.464-.12-2.845-.616.373-.298.506-.313.334-.038-.245.393.006.465 1.618.464 1.717 0 2.467-.095 2.554-.32.068-.179-.084-.705-1.656-5.72-.628-2.006-1.127-3.693-1.108-3.75.026-.077 2.933 8.922 3.183 9.851.036.137-.236.153-2.08.13zm-20.532-43.55c-.395-.037-1.612-.078-2.704-.09-1.738-.02-2.03 0-2.33.165-.493.268-.594.6-.45 1.473.065.396.1.739.078.762-.07.069-.605-1.75-.57-1.936.02-.104.263-.256.607-.378.512-.183.867-.205 3.283-.21 2.197 0 2.718.022 2.756.138.04.116-.089.13-.67.075zm-100.731 4.277c-.286 1.54-.335 1.704-.362 1.228-.017-.302-.075-.549-.128-.549-.118 0-.77 1.369-1.311 2.756-.222.567-.418.985-.437.929-.05-.152 2.01-5.404 2.409-6.141.226-.417.214-.297-.171 1.777z" fill="#fff"/><path d="M531.189 1482.07c-14.624-.078-27.962-.229-29.685-.337l-1.072-.067v-.432c.002-1.146.773-5.01 4.084-20.47 3.237-15.112 3.904-18.578 4.036-20.957.08-1.445-.062-1.91-.772-2.535-1.506-1.326-3.757-1.709-11.435-1.943-1.85-.057-2.268-.043-2.315.073-.031.078-1.304 3.387-2.828 7.354-10.62 27.644-13.138 34.685-13.138 36.746 0 .738.268 1.503.718 2.05.225.271.291.426.216.501-.13.13-3.357.147-4.096.023-.32-.054-.496-.136-.496-.232 0-.082.38-1.408.845-2.946 3.124-10.336 19.227-62.346 19.345-62.478.074-.083 31.58-.325 47.097-.362l3.058-.01v66.092l-13.562-.072z" fill="#fff"/><path d="M502.026 1441.269c-.433 1.252-.807 2.256-.832 2.231-.025-.025.199-.79.496-1.701.354-1.082.547-1.855.557-2.23.014-.565.01-.574-.351-.699-.466-.161-3.096-.177-3.924-.024-.757.14-1.3.408-1.635.807-.484.574-2.686 5.684-5.004 11.608-.481 1.229-.89 2.19-.907 2.135-.036-.106 4.84-12.817 5.131-13.382.219-.422.74-.82 1.446-1.1.473-.19.829-.229 2.406-.265 1.717-.039 3.252.086 3.362.275.023.038-.313 1.094-.745 2.345zm25.634-61.277c-4.368.027-11.024.025-14.79 0-6.21-.047-6.652-.062-4.755-.153 2.502-.121 24.446-.104 26.235.02.883.063-1.1.103-6.69.137zm-32.428 22.801a1988.86 1988.86 0 0 1 0-13.379c.016-3.66.028-.634.028 6.724 0 7.359-.012 10.353-.028 6.655zm25.321 6.672h-25.242v-26.654h50.485v26.654h-25.243z" fill="#fff"/><path d="M520.501 1382.707h-25.295v13.379c0 11.823-.018 13.379-.157 13.379-.138 0-.156-1.562-.156-13.431v-13.432h25.451c13.999 0 25.452.024 25.452.052 0 .03-11.383.052-25.295.052zm-25.451-6.272c-.139 0-.157-1.115-.157-9.407s.018-9.407.156-9.407c.139 0 .157 1.115.157 9.407s-.018 9.407-.157 9.407zm92.765 3.561c-4.398.025-11.407.022-15.575-.01-6.514-.045-7.314-.066-5.696-.153 2.31-.123 25.9-.104 27.856.023 1.05.068-.628.103-6.585.137zm3.919-26.007c-5.77.1-16.873.1-22.952 0-4.403-.073-4.592-.083-2.604-.143 2.814-.084 24.794-.085 27.751 0 2.274.063 2.249.065-2.195.143zm-11.236 28.718h-26.34v13.379c0 8.85-.036 13.379-.105 13.379s-.104-4.547-.104-13.431v-13.432h26.444c14.545 0 26.445.024 26.445.052 0 .03-11.853.052-26.34.052zm-26.314-10.957a945.137 945.137 0 0 1 0-9.407c.016-2.569.028-.437.028 4.737s-.012 7.276-.028 4.67z" fill="#fff"/><path d="M554.184 1371.75a945.137 945.137 0 0 1 0-9.407c.016-2.569.028-.437.028 4.737s-.012 7.276-.028 4.67zm-.131 4.685c-.069 0-.104-3.205-.104-9.407s.035-9.407.104-9.407c.07 0 .105 3.205.105 9.407s-.036 9.407-.105 9.407zM481.28 1143.75c-.184 0-1.36-.655-2.614-1.454l-2.28-1.452 1.952-.011c2.699-.015 3.274.285 3.274 1.706 0 .666-.15 1.21-.333 1.21zm186.877 101.388c-6.47 11.115-12.024 18.962-19.824 28.012-9.657 11.204-24.843 24.124-35.121 29.88l-2.4 1.344-.48-1.188c-.8-1.976-1.142-16.691-1.172-50.395l-.029-32.066 1.976-.128c2.73-.176 3.12-1.012 2.94-6.32-.157-4.625-.314-4.87-3.139-4.88l-1.777-.01V1065.56h62.715l-.02 86.65-.018 86.651-3.65 6.272zM459.56 867.582h-32.612V543.139h65.223v324.443H459.56zm120.784-262.09h-26.34v-1.464h51.844l-.052-53.568-.053-53.569-25.87-.053-25.87-.053v-1.253h52.68v109.96h-26.34zm-59.474 0h-24.982v-109.96h49.963v109.96h-24.982zm.365-108.654l-24.302-.053v107.243h48.709l-.052-53.568-.053-53.569-24.302-.053zm133.687 41.487c-15.947-.115-21.5-.247-36.427-.865-6.042-.25-4.482-.27 23.048-.298l29.528-.029-.052-90.361-.053-90.361-28.744.016c-27.499.015-38.168.188-44.8.723-3.022.244-3.49.353-3.49.814 0 .723 3.09 10.377 9.01 28.153 5.413 16.252 6.058 18.33 6.001 19.337-.06 1.044-.695-.76-8.505-24.122-4.643-13.888-8.374-25.318-8.293-25.4.082-.082 18.015-.179 39.85-.216l39.703-.067v182.798l-16.776-.122z" fill="#fff"/><path d="M653.824 461.457h-9.93v-33.865h19.86v33.865h-9.93zm-.47-33.188l-9.25-.054v31.988h18.607l-.053-15.94-.054-15.94-9.25-.053z" fill="#fff"/><path d="M667.203 463.339c-.276 0-.313-2.3-.313-19.442v-19.441h-25.922v-1.045h26.549v19.964c0 17.606-.037 19.964-.314 19.964zm-39.193-9.013c-.712.38-1.364.522-2.717.59-1.959.101-5.813-.355-6.798-.804-.573-.26-.39-.29 2.143-.343 1.523-.032 4.016-.032 5.54 0l2.77.058-.938.5zm2.488-5.305c-.092 1.036-.262 2.118-.376 2.404-.144.36-.211-1.713-.22-6.744l-.014-7.264h-13.17l-.026 6.846c-.016 4.367-.086 6.43-.193 5.697-.148-1.01-.828-11.458-.827-12.7v-.47h15.052l-.029 5.174c-.015 2.845-.104 6.021-.197 7.057zm-50.154 33.341h-26.34v-.75c0-.749 0-.75.784-.629 4.452.69 13.894.958 33.761.96h17.3l-.053-34.337-.053-34.336-29.685-.136c-16.327-.075-32.883-.238-36.792-.361-3.91-.124-8.025-.227-9.146-.23-1.897 0-2.038-.034-2.038-.422 0-.37.138-.418 1.202-.417 5.172.01 63.837.955 72.121 1.166l5.279.134v69.357h-26.34z" fill="#fff"/><path d="M556.735 441.605c-.222-.119-.738-.216-1.145-.216-1.236 0-1.47-.603-1.541-3.963l-.06-2.831.515 1.426c.283.784.893 2.054 1.355 2.822 1.28 2.128 1.605 3.152.876 2.762zm-7.121-12.132c-3.125 0-3.405-.03-3.106-.329.426-.426 1.66-.706 3.106-.706s2.68.28 3.105.706c.3.3.019.329-3.105.329zm-3.966 8.81c-.149 2.162-.53 3.106-1.254 3.106-.22 0-.547.209-.726.464-.241.344-.326.379-.326.134 0-.183.283-.687.628-1.122.345-.434.767-1.258.937-1.83.317-1.07.698-4.365.803-6.949.032-.805.063-.193.068 1.359.005 1.552-.054 3.73-.13 4.838zm-24.747 44.079h-25.013v-70.659h1.045v70.28l20.957-.102c20.968-.102 23.31-.182 25.766-.877 1.498-.424 1.865-.75 1.84-1.634-.033-1.16-.452-2.175-1.305-3.16-.872-1.007-1.06-1.706-1.521-5.659-.32-2.742-.345-21.213-.032-23.832.141-1.176.175 1.147.116 7.84-.092 10.297.165 17.638.678 19.34.225.75.49 1.152.925 1.41.918.541 1.29 1.731 1.433 4.579l.125 2.474H520.9zm34.313-5.017l-1.26 1.986.107-1.28c.129-1.54.566-2.276 1.542-2.598.4-.132.76-.207.8-.167.04.04-.496.967-1.19 2.06zm48.386-73.699c-2.72.46-10.313.571-45.47.672-43.47.124-59.538-.105-60.772-.867-.096-.06-.037-.556.132-1.102.534-1.726 11.808-40.056 14.941-50.798 1.998-6.848 3.095-10.294 3.279-10.295.165 0 .23.145.165.364-.636 2.116-13.964 48.253-15.912 55.083-.649 2.274-1.12 4.307-1.05 4.527.282.891 2.092 1.316 7.327 1.718 3.716.286 97.517.528 97.517.251 0-.095-4.5-13.67-10-30.17l-9.999-29.997-24.232-.128c-26.657-.14-35.062-.404-39.075-1.222l-.836-.17.94-.02c.518-.011 5.41.114 10.871.278 11.073.332 28.324.696 43.15.91l9.806.142 9.996 30.103c5.497 16.557 9.998 30.213 10 30.346.004.134-.347.303-.778.375zm-44.917 58.752c-.078 1.462-.71 8.121-.777 8.187-.02.02-.035-5.781-.035-12.89 0-7.11.02-12.907.044-12.883.024.024.189 1.429.366 3.122.318 3.027.556 11.595.402 14.464zm23.177-123.35c-.432.076-5.747.19-11.812.253l-11.027.115v-1.294l11.581-.054 11.582-.054-6.014-17.664c-3.307-9.716-6.673-19.5-7.48-21.741-7.17-19.923-11.01-26.345-17.81-29.785-1.432-.724-2.714-.757-3.997-.103-4.388 2.234-7.603 5.914-10.95 12.537-3.772 7.458-6.214 14.338-12.874 36.27-2.2 7.243-4.375 14.325-4.833 15.737-.458 1.412-.803 2.823-.767 3.136.16 1.385 3.801 1.716 18.92 1.717h10.91l.065-5.591c.056-4.831.115-5.692.432-6.324.36-.718.365-.662.26 3.031a607.38 607.38 0 0 1-.243 6.967l-.136 3.204-14.653-.094c-13.8-.089-16.137-.186-16.644-.697-.102-.102.54-2.561 1.463-5.617.904-2.99 3.494-11.644 5.756-19.232 8.681-29.13 10.393-33.328 16.396-40.217 1.614-1.853 4.455-4.273 5.949-5.07.982-.523 1.584-.689 2.787-.766 1.45-.093 1.625-.054 3.148.694 2.235 1.098 6.015 4.865 8.178 8.148 2.809 4.263 5.98 11.375 9.277 20.8 3.515 10.048 13.32 40.428 13.32 41.27 0 .166-.33.343-.785.424z" fill="#fff"/><path d="M557.385 324.4c-.86.141-4.14.134-3.486-.01a44.67 44.67 0 0 0 1.842-.51c1.45-.424 2.11-.393 2.304.11.073.192-.135.32-.66.407zm66.161 26.053h-33.518l-.804-2.561c-1.024-3.263-1.153-4.637-.512-5.45.323-.409.532-.523.683-.372.124.123.26 1.65.314 3.54l.095 3.321 6.924.133c3.809.073 17.696.23 30.86.349 26.81.242 29.476.31 29.476.748 0 .249-4.955.292-33.518.292zm-35.456-11.08c-1.434 0-3.058-4.172-10.47-26.894-4.292-13.153-6.531-19.663-8.39-24.388-.58-1.473-1.011-2.722-.958-2.775.111-.111.5.786 2.45 5.663 2.035 5.085 3.979 10.542 7.744 21.74 5.074 15.094 7.63 22.007 9.213 24.92.45.828.818 1.557.818 1.62 0 .063-.184.114-.408.114zm-47.767-70.813c-2.669 2.387-7.056 8.206-8.805 11.678-2.763 5.486-6.652 17.935-20.628 66.034l-1.124 3.867-6.573.129c-3.615.071-18.309.141-32.652.157-22.694.024-26.079-.011-26.079-.276 0-.183.272-.345.68-.407.373-.057 12.767-.214 27.542-.35 14.774-.135 29.072-.304 31.773-.376l4.91-.131 3.09-10.348c10.473-35.058 15.763-51.803 17.869-56.554a43.316 43.316 0 0 1 4.952-8.412c1.907-2.531 6.393-6.93 6.392-6.267 0 .029-.606.594-1.347 1.256zm-32.744 88.373c-.087.288-.834 2.828-1.66 5.645-1.683 5.745-4.531 15.115-9.34 30.73l-3.251 10.557-.17 32.82c-.093 18.051-.175 38.3-.183 44.998-.013 12.033-.018 12.177-.432 12.177-.416 0-.418-.14-.418-44.045v-44.046l4.897-15.69c9.129-29.253 10.046-32.327 9.71-32.535-1.13-.699-21.378-1.23-47.061-1.235-13.378 0-15.209-.04-15.209-.316 0-.587 59.114-.336 62.428.264.785.142.836.192.689.676zm16.27 55.342a505.955 505.955 0 0 1-7.37-.335c-2.781-.155-2.303-.178 4.234-.205 6.89-.03 7.369-.01 7.369.335 0 .341-.28.355-4.233.205zm-73.536-283.382c-9.248 19.802-17.815 50.744-20.012 72.278-1.491 14.613-1.586 19.116-1.77 84.09l-.184 64.959 7.974-.307c5.771-.222 7.974-.178 7.974.16 0 .327-2.554.466-8.609.466h-8.608l.204-62.61c.219-67.042.443-74.824 2.627-91.25 1.96-14.74 7.23-35.488 12.969-51.059 2.291-6.216 7.007-17.554 8.272-19.887 1.213-2.237.596.092-.837 3.16zM428.358 492.02a46391.9 46391.9 0 0 1 0-90.309c.029-24.873.053-4.585.053 45.085s-.024 70.02-.053 45.224z" fill="#fff"/><path d="M492.745 529.318l-.058 8.1h-65.636v-181.87l11.76.046c6.467.025 10.488.073 8.936.107-2.99.065-3.837.204-2.927.482.288.088-3.31.169-7.996.18l-8.518.021V537.21h63.76l.036-22.525c.02-12.389.072-22.125.116-21.636.054.597.179.888.382.888.306 0 .339 7.915.145 35.381zm56.189-503.912c-15.02 0-27.31-.026-27.31-.062 0-.104 7.146-6.644 8.944-8.185 5.842-5.01 13.863-10.875 16.843-12.318 2.245-1.087 2.999-.838 7.351 2.424 4.905 3.677 11.093 8.843 17.469 14.586 1.858 1.673 3.52 3.157 3.695 3.297.302.242-1.092.256-26.992.259zm23.725-2.083c-2.113-2.03-6.304-5.563-15.927-13.428a3731.12 3731.12 0 0 0-6.378-5.206c-.21-.164-5.81 2.87-7.95 4.306-4.305 2.89-7.676 5.615-15.44 12.482l-4.194 3.711 19.863.044c21.777.048 31.32-.123 31.32-.56 0-.059-.582-.666-1.294-1.35zM512.95 37.297c-17.545 19.566-29.291 34.46-40.185 50.948-7.626 11.542-14.475 23.57-19.388 34.047-1.118 2.382-1.377 2.793-1.614 2.556-.236-.237.126-1.113 2.259-5.452 11.09-22.566 25.235-44.228 41.19-63.076 8.625-10.19 23.06-25.842 22.99-24.929-.002.03-2.366 2.687-5.253 5.906zm158.104 250.335h-.452v-6.437c0-8.553-.359-37.625-.629-50.947-.529-26.077-1.192-34.542-3.587-45.781-6.866-32.218-19.37-62.669-37.34-90.936-9.544-15.01-21.373-30.346-34.045-44.133-1.573-1.712-6.66-7.087-11.302-11.944-7.664-8.018-8.386-8.833-7.825-8.833.537 0 1.532.94 7.588 7.167 9.745 10.02 13.557 14.119 18.798 20.219 31.703 36.895 53.95 79.561 63.209 121.225 1.227 5.52 2.792 13.673 3.45 17.968 1.78 11.633 2.185 22.823 2.444 67.608l.144 24.824h-.453zm-8.098 62.842c-4.951-.016-8.304-.066-7.45-.111 1.537-.081 1.977-.272 1.108-.481-.244-.06 2.973-.081 7.148-.05l7.591.057-.097-7.639c-.16-12.636-.524-48.37-.524-51.578l-.001-2.993h.842l.097 20.14c.053 11.077.14 25.213.192 31.412l.096 11.271-9.002-.029zm-94.538-64.311a51.848 51.848 0 0 1-.639-1.469c-2.969-6.984-5.777-11.306-10.06-15.488-1.196-1.167-1.967-1.806-3.088-2.56-3.091-2.077-6.016-2.533-9.116-1.419-1.01.363-2.54 1.228-3.477 1.966-.27.213-.285.216-.384.083-.127-.17-.085-.207.925-.837 1.463-.913 3.12-1.59 4.465-1.825.83-.145 2.761-.1 3.811.087 2.91.52 5.296 1.847 7.764 4.317 2.354 2.357 4.279 5.143 6.676 9.662.926 1.745 3.15 6.434 3.15 6.64 0 .018-.05.013-.11-.01-.061-.023-.111-.01-.111.03s.05.214.11.387c.105.295.145.506.084.437zm-146.965 949.456c-.164 1.697-.446 2.575-.826 2.575-.59 0-.527-2.25.253-9.198.406-3.612.504-4.121.62-3.24.188 1.416.157 7.75-.047 9.863zm2.657 13.74c-.949.178-1.764-.031-2.025-.519-.471-.881 1.567-.816 2.461.08.262.261.206.318-.436.439zm37.527-8.842c-13.993 0-25.145-.204-26.448-.478l-.292-.06.747-1.429c1.44-2.752 3.16-5.874 3.208-5.825.028.027-.42.934-.996 2.014-1.401 2.634-2.428 4.699-2.428 4.883 0 .083.092.18.205.217.698.221 4.322.283 19.524.333 14.159.047 16.645.077 16.645.201 0 .124-1.528.146-10.165.144zm-9.598 3.347c-15.765 0-19.755-.026-19.72-.13.034-.104 4.099-.137 19.763-.158 17.486-.023 19.72-.01 19.72.13s-2.25.158-19.763.158zm26.348 6.585h-3.449v-41.999c0-33.434.027-42.035.13-42.177.105-.143.126 8.215.105 41.894l-.027 42.073h3.346c2.16 0 3.345.037 3.345.104 0 .068-1.22.105-3.45.105z" fill="#fff"/><path d="M484.32 1253.543c-.475-.033-3.027-.11-5.671-.172-2.645-.062-5.02-.128-5.279-.147-.258-.019 1.717-.016 4.39.01 2.673.024 5.36.071 5.971.106l1.111.063.074-11.432c.04-6.288.11-18.017.152-26.065.078-14.376.08-14.173.096 11.533l.018 26.166-.863-.06zm-47.7-38.423c-9.391 16.858-15.407 27.98-15.407 28.484 0 .232 1.033.86 3.246 1.972 2.242 1.127 2.63 1.242 2.98.883.13-.134 2.48-4.302 5.224-9.262 2.743-4.96 5.011-8.995 5.04-8.967.028.028-2.29 4.288-5.15 9.465-4.732 8.563-5.222 9.408-5.423 9.347-.121-.037-1.303-.6-2.625-1.25-2.349-1.156-3.415-1.817-3.48-2.157-.058-.302 1.63-3.52 6.489-12.366 3.56-6.483 10.751-19.43 10.854-19.541.282-.306-.091.418-1.748 3.392zm-7.003 6.326c-.494.861-.964 1.634-1.044 1.718-.201.209-.352.037-.416-.475-.042-.334-.032-.366.053-.174.235.533.52.23 1.62-1.725.332-.589.621-1.071.644-1.071.112 0-.028.283-.857 1.727zm47.023-63.526c-2.965 5.363-5.413 9.728-5.439 9.702-.026-.026 1.128-2.203 2.564-4.836 4.746-8.701 6.851-12.784 7.286-14.126.103-.315.155-.69.12-.862-.077-.385-.003-.379.475.039l.384.335-5.39 9.749z" fill="#fff"/><path d="M471.713 1142.48c-.537 3.051-3.895 9.904-13.163 26.866-6.705 12.27-27.69 50.1-27.955 50.394-.03.034-.074.033-.096 0-.022-.036.117-.346.31-.69a9524.122 9524.122 0 0 0 13.44-24.091c13.177-23.74 19.845-36.068 23.667-43.755 2.883-5.797 3.48-7.38 3.809-10.1l.097-.801v.776a9.555 9.555 0 0 1-.109 1.404zm10.007 1.256c-.18.526-.525.386-3.205-1.298-2.156-1.355-2.564-1.634-2.472-1.69.168-.104 1.947-.205 3.001-.17 2.288.073 2.778.465 2.768 2.212-.002.378-.044.804-.093.946zm-.259-2.138c-.305-.617-.822-.745-3.211-.798-1.215-.027-1.83-.015-1.83.034 0 .132 4.137 2.69 4.693 2.902.234.089.386-.056.446-.428a6.74 6.74 0 0 1 .072-.385c.06-.236-.05-1.084-.17-1.326zm-3.23-4.07c-5.633 0-6.393-.013-6.393-.111s.76-.111 6.393-.111c5.634 0 6.393.013 6.393.11 0 .099-.76.112-6.393.112zm3.505 23.933c-.057-3.326-.17-5.546-.297-5.881-.063-.165-.087-.177-.176-.087-.146.149-1.967 3.367-4.214 7.447-1.057 1.919-1.932 3.442-1.944 3.386-.02-.09 6.475-11.866 6.647-12.055.036-.04.058 2.217.052 5.174l-.012 5.244-.056-3.228zm-9.949 54.559c-.019-8.08-.16-24.831-.245-29.047-.132-6.595-.318-12.6-.392-12.65-.043-.028 0-.162.104-.332l.177-.284.05.406c.186 1.485.364 21.445.338 37.73-.01 5.651-.024 7.53-.032 4.177zm-169.403-152.659h-.575l-.098-29.822c-.054-16.403-.099-58.443-.099-93.422 0-54.014.031-63.6.205-63.6.291 0 .357 6.49.535 52.846.263 68.242.429 106.905.519 120.658l.087 13.34h-.574zm-29.818-17.886h-27.273v-.887h54.545v.887h-27.272zm-31.983-.935c-2.764 0-3.934-.045-2.601-.1a76.96 76.96 0 0 1 5.026 0c1.43.054.34.099-2.425.099zm-.147.712c-2.957 0-4.73-.111-4.73-.296s1.773-.296 4.73-.296c2.956 0 4.73.111 4.73.296s-1.774.296-4.73.296zm28.423-133.038h-31l-.173 37.029c-.16 34.448-.476 53.995-1.089 67.332-.224 4.889-.238 4.544-.127-3.252.067-4.797.208-29.642.311-55.211l.188-46.49h31.445c20.766 0 31.445.101 31.445.296 0 .196-10.53.296-31 .296zm-.042-141.907h-31.042v69.476c0 61.558-.05 69.475-.444 69.475-.393 0-.443-7.95-.443-69.771v-69.77h31.485c20.794 0 31.486.1 31.486.295 0 .195-10.544.295-31.042.295zm-30.967-7.378c-.064-2.957-.203-4.346-.453-4.504-.28-.178-.281-.23-.003-.234.245-.003.389-.821.456-2.592.055-1.422.097.606.095 4.509-.002 3.902-.046 5.172-.096 2.82z" fill="#fff"/><path d="M268.383 767.36l-31.522.037.033-36.326.033-36.327.077 31.707c.074 30.052.092 31.733.342 32.19.211.387.29 1.071.403 3.474.077 1.645.141 3.473.143 4.063l.003 1.071 31.005.038 31.005.037-31.522.037zm33.527 109.286c-.099-.156-.15-.079-.196.295-.033.28-.072-11.765-.085-26.765-.013-15-.051-41.707-.085-59.35-.055-28.509-.048-29.906.063-12.564.188 29.5.445 82.39.441 90.983-.002 4.617-.056 7.53-.138 7.4z" fill="#fff"/></svg>