<svg xmlns="http://www.w3.org/2000/svg" width="1620.831" height="720.916" viewBox="0 0 1519.5291 675.85905"><path d="M1.375 595.852c.756 0 2.781-.281 4.5-.625L9 594.602l.24-45.125.239-45.125.27 44.75c.15 24.613.395 44.75.547 44.75.151 0 5.547-1.52 11.99-3.376L34 587.1v21.907c0 16.664.3 22.023 1.256 22.39.692.265 6.633-1.324 13.204-3.531 13.6-4.57 14.182-4.648 16.802-2.277 1.822 1.649 1.983 1.649 3.189 0 .698-.955 2.145-1.737 3.215-1.737 1.07 0 5.07-1.054 8.89-2.343 5.331-1.798 6.944-2.783 6.944-4.24 0-1.487 1.846-2.536 8.5-4.828l8.5-2.928 52-.24 52-.24 3.5 6.1c12.306 21.446 38.645 46.317 61.546 58.116l5.047 2.6 514.617.01c454.663.01 515.968-.171 526.21-1.514 58.068-7.612 112.158-34.646 160.446-80.19 14.26-13.45 29.135-29.64 35.75-38.909 4.58-6.419 4.585-6.435 2.827-9.16-4.636-7.188-19.546-24.057-32.081-36.296-51.145-49.935-108.956-78.664-172.862-85.901-5.609-.636-52.899-1.019-125.5-1.017-64.075.002-152.388-.3-196.25-.669l-79.75-.672v-16.675h4.8c14.445 0 88.426-3.217 104.7-4.553 43.24-3.548 69.618-7.961 93.5-15.642 19.417-6.245 31.392-13.445 34.068-20.485 2.933-7.713-.751-19.325-8.135-25.646-7.874-6.74-67.508-35.315-107.764-51.637l-36.33-14.731-14.144-13.31c-15.383-14.478-19.726-17.165-34.195-21.158l-8-2.208-209.5-.692c-115.225-.38-251.687-.748-303.25-.815l-93.75-.123-.024-3.25c-.106-14.502-21.976-40.564-81.136-96.688-11.921-11.31-34.424-32.938-50.007-48.064C187.249 70.728 164.15 48.483 151.5 36.42c-21.825-20.811-23.46-22.147-32-26.131-4.95-2.31-13.275-5.348-18.5-6.751C92.398 1.227 89.042.926 65.5.347c-24.981-.614-26.126-.56-29.196 1.387-2.302 1.46-3.391 3.069-3.895 5.752-.652 3.476 2.062 9.249 40.693 86.563l41.392 82.839 9.016 8.978 9.016 8.979 22.903 9.005c12.597 4.952 23.125 9.227 23.397 9.5.471.47-.874 7.669-2.944 15.756-.86 3.364-1.293 3.75-4.198 3.75-1.781 0-13.54-4.05-26.129-9-12.59-4.95-23.484-9-24.209-9-1.931 0-11.858 21.055-14.85 31.5-3.09 10.784-5.287 23.473-5.696 32.912-.337 7.768-.629 7.487 9.297 8.975l4.558.684.211-5.786c.337-9.232 2.814-24.044 5.648-33.785 2.759-9.482 11.191-28.5 12.637-28.5 1.204 0 1.286-.234-3.513 10.104-7.059 15.205-10.716 28.62-12.104 44.396-.339 3.85-.833 8.41-1.099 10.134-.557 3.617-.13 3.885 7.757 4.87l5.506.689.703-9.316c.387-5.124.905-9.517 1.151-9.763 1.267-1.267 1.46 1.55.705 10.265-.667 7.7-.571 9.62.48 9.62.722 0 4.411 1.561 8.198 3.468 5.434 2.737 10.628 4.173 24.636 6.811l17.75 3.344-4.91 2.852c-5.942 3.451-6.377 4.039-6.396 8.64-.013 3.063-.609 4.025-3.905 6.31-3.716 2.574-4.047 2.629-7.414 1.222l-3.525-1.473-2.025 4.71c-3.95 9.18-6.245 19.527-6.847 30.867-.677 12.763-2.306 15.256-2.286 3.5.016-9.448 2.787-23.41 6.476-32.632 2.24-5.6 2.493-7.015 1.377-7.722-2.663-1.687-3.633-.82-6.66 5.95-5.165 11.551-8.206 25.991-8.206 38.96v4.36l8.808-.279 8.808-.279 6.942 5.54c10.088 8.051 10.35 8.48 6.289 10.252-1.841.804-17.072 3.08-33.847 5.06-38.439 4.535-36.19 4.072-35.808 7.382l.308 2.658 19 2.788c10.45 1.534 48.025 5.364 83.5 8.512 63.245 5.612 64.506 5.765 64.809 7.88.257 1.794-1.083 2.881-7.964 6.461-22.96 11.945-43.78 33.897-54.482 57.442l-3.863 8.5-48.5-.323-48.5-.322-34.263-10.77c-18.845-5.923-34.708-10.495-35.25-10.16-.595.367-.987 8.367-.987 20.118 0 19.404-.011 19.505-2.114 18.838-7.03-2.232-29.589-8.464-30.634-8.464-.985 0-1.252 10.035-1.252 47 0 39.212.228 47 1.375 47zM36.75 3.814c2.668-2.119 3.319-2.168 21.75-1.653 19.701.55 29.869 2.118 44.695 6.893 5.534 1.783 7.76 3.205 12.489 7.984l5.753 5.814h-21.314c-19.973 0-21.498.13-24.23 2.077-1.604 1.142-2.66 2.492-2.346 3 .34.55-5.837.923-15.266.923H42.445l-4.164-8.25c-5.035-9.977-5.377-13.734-1.531-16.788zm1.256 620.155c.83 1.42 3.56.611 22.356-6.62 11.776-4.532 21.912-8.548 22.525-8.927 1.632-1.009 1.315-10.719-.426-13.02-1.45-1.917-1.85-1.869-22.73 2.75-11.69 2.585-21.587 4.7-21.993 4.7-.973 0-.961-102.993.012-103.022.413-.012 10.322 2.086 22.02 4.663 20.749 4.571 21.306 4.64 22.719 2.773.848-1.121 1.46-4.213 1.48-7.462l.031-5.549-22.25-8.553c-19.611-7.538-22.398-8.37-23.5-7.01-1.06 1.31-1.25 1.06-1.25-1.649 0-1.755.113-3.18.25-3.166.138.014 15.1 4.644 33.25 10.29l33 10.265.258 56.462.259 56.463-23.259 7.408c-12.792 4.075-27.87 8.87-33.508 10.657L37 628.671l.03-3.16c.024-2.465.238-2.804.976-1.542zm-.09-13.633c.714 1.83.359 5.516-.532 5.516-.211 0-.352-1.687-.313-3.75.053-2.856.255-3.277.845-1.766zm-.533-124.484c.85 0 1.222 4.762.514 6.569-.535 1.366-.777.688-.827-2.319-.039-2.337.102-4.25.313-4.25zM59 600.965c10.175-2.275 18.95-4.11 19.5-4.08.828.048-36.305 13.967-37.258 13.967-.736 0-1.97-4.56-1.387-5.126.354-.344 8.97-2.487 19.145-4.761zM42.274 492.472c2.102.168 36.752 12.687 36.318 13.122-.306.305-34.849-7.147-38.324-8.268-1.752-.565.083-5.008 2.006-4.854zM60.476 606.75c10.436-3.794 19.324-6.898 19.75-6.898.426 0 .774 1.508.774 3.352v3.352l-13.25 5.112c-7.288 2.812-16.314 6.26-20.058 7.662l-6.808 2.549.308-4.116.308-4.115 18.976-6.898zm-14.81 10.118C48.394 616.922 75 606.331 75 605.192c0-.737-.16-1.34-.356-1.34-1.807 0-29.159 11.045-29.44 11.888-.204.612 0 1.12.463 1.128zm-2.916-135.54c.962.38 9.175 3.533 18.25 7.01 9.075 3.476 17.287 6.637 18.25 7.024 1.185.477 1.75 1.8 1.75 4.097 0 1.866-.186 3.393-.414 3.393-.408 0-34.414-12.147-37.836-13.514-1.258-.503-1.75-1.824-1.75-4.7 0-3.406.26-3.897 1.75-3.31zm17.255 11.94c8.248 3.254 15.303 5.609 15.679 5.233.376-.375.263-1.059-.25-1.519-.88-.787-28.873-12.13-29.938-12.13-.273 0-.494.563-.491 1.25 0 .688 6.752 3.912 15 7.166zM59.75 30.86l15.75.01 26.363 38.547c14.5 21.2 26.2 38.67 26 38.822-3.73 2.824-33.223 22.617-33.703 22.617-.649 0-49.99-97.741-50.104-99.25-.03-.413 7.032-.747 15.694-.743zm20.223 586.817c3.01-1.028 5.035-1.47 4.5-.98-1.139 1.042-10.336 4.192-11.901 4.077-1.21-.089-.341-.452 7.4-3.097zM108.25 24.855h15.25l83.5 87.032c45.925 47.868 85.412 89.305 87.75 92.082 4.488 5.332 5.508 9.811 3 13.174-1.166 1.564-1.89 1.543-10.75-.316-8.166-1.712-18.846-2.927-49.5-5.628l-6-.53-69.211-92.66C124.223 67.047 93.06 25.238 93.039 25.1c-.021-.137 6.824-.248 15.211-.247zm3 96.925c8.938-6.16 16.777-11.252 17.42-11.315.644-.062 7.336 8.887 14.87 19.887 7.535 11 16.518 24.086 19.963 29.08 6.047 8.768 6.205 9.155 4.605 11.276-1.55 2.056-3.226 2.317-26.132 4.069-13.462 1.03-24.83 1.656-25.262 1.392-.795-.485-21.562-41.234-21.66-42.503-.03-.377 7.259-5.726 16.196-11.886zm24.919 271.285c18.792-2.337 34.701-4.69 35.353-5.231.796-.66.526 2.38-.823 9.267-1.104 5.638-2.081 10.357-2.172 10.487-.404.578-32.652-2.882-48.37-5.19-9.538-1.4-17.526-2.546-17.75-2.546-.224 0-.407-.571-.407-1.27 0-.918 9.446-2.444 34.169-5.517zM597 548.852c326 0 490 .335 490 1s-164 1-490 1-490-.335-490-1 164-1 490-1zm-487.358-287c.835-5.225 3.03-14.072 4.88-19.66 3.708-11.205 10.097-24.694 11.333-23.93.435.27-.934 4-3.041 8.29-7.18 14.615-11.643 31.822-13.37 51.55-.374 4.263-1.122 7.75-1.663 7.75-1.154 0-.381-9.966 1.86-24zm13.858 292H137v53h-27v-53h13.5zm0-59H137v51h-27v-51h13.5zm-7.122-435c.207 0 .995.788 1.75 1.75 1.243 1.586 1.208 1.622-.378.378-1.666-1.307-2.195-2.128-1.372-2.128zm3.538 4.55c.504.523 25.28 33.575 55.056 73.45l54.14 72.5-23.556.268c-16.36.186-23.556.606-23.556 1.373 0 .72-.435.776-1.25.16-.687-.52-11.454-4.916-23.926-9.77l-22.676-8.828-6.295-6.351-6.295-6.352h56.208l7.617-4.654c4.19-2.56 7.616-5.147 7.615-5.75 0-.603-16.63-24.72-36.952-53.596-20.323-28.875-36.972-52.702-36.998-52.95-.026-.247.364-.023.868.5zm4.632 202.314c.777-4.75 2.6-12.4 4.051-17 3.016-9.558 10.893-25.864 12.494-25.864.59 0 .92.338.732.75-.188.413-1.969 3.9-3.958 7.75-7.103 13.75-11.83 30.933-13.413 48.75-.38 4.263-1.122 7.75-1.651 7.75-1.104 0-.386-9.112 1.745-22.136zm7.845.136c.216 0 .652.675.969 1.5.316.825.14 1.5-.393 1.5s-.969-.675-.969-1.5.177-1.5.393-1.5zm4.441-8.523l4.834.665 6.269-7.07 6.269-7.072h27.488l.649 11.25c1.014 17.611.81 38.75-.375 38.75-1.386 0-35.405-5.088-35.56-5.319-.068-.1-1.138-4.343-2.377-9.43-1.854-7.606-2.59-9.25-4.143-9.25-2.016 0-2.542-1.479-.888-2.5 1.554-.961 1.178-6.18-.571-7.93-1.966-1.965-2.344-1.958-4.6.084-1.72 1.557-1.829 1.522-1.829-.594 0-2.113.291-2.209 4.834-1.584zm6.246 11.773c2.252 3.866 6.92 1.336 6.92-3.75 0-1.705-.54-3.64-1.2-4.3-4.043-4.043-8.835 2.702-5.72 8.05zm10.437 2.125c.894.894 2.012 1.625 2.483 1.625 3.793 0 5.181-8.245 1.75-10.394-4.1-2.568-7.834 5.167-4.233 8.769zm9.683 1.425c2.842 2.842 6.8.556 6.8-3.929 0-2.622-2.214-5.87-4-5.87-3.255 0-5.331 7.268-2.8 9.8zm10.777 2.177c2.356 2.356 4.814 1.703 6.075-1.613 1.076-2.83-.221-6.831-2.498-7.705-2.01-.77-5.554 2.638-5.554 5.341 0 1.1.89 2.89 1.977 3.977zm-36.951-26.57c2.618-7.635 9.923-22.407 11.08-22.407 1.308 0 1.292.045-3.62 10.137-2.482 5.1-5.258 11.636-6.168 14.524-.91 2.887-2.029 5.018-2.486 4.735-1.066-.658-1.153-.146 1.194-6.99zm2.721 317.283c.17 7.255.171 19.405.001 27-.17 7.596-.31 1.66-.31-13.19s.138-21.064.309-13.81zm0-58.44c.172 7.013.172 18.488 0 25.5-.172 7.013-.312 1.275-.312-12.75s.14-19.762.312-12.75zm.316-230.14c.06-3.347.134-3.433 1.03-1.19 1.157 2.891.077 14.08-1.358 14.08-.622 0-.764-1.771-.37-4.64.349-2.551.664-6.264.698-8.25zm12.437 275.89h9.5v53h-19v-53h9.5zm0-59h9.5v51h-19v-51h9.5zm-.96-255.739c2.496-5.132 4.933-9.087 5.415-8.789.904.559-7.376 18.052-9.028 19.073-1.643 1.015-1.015-.772 3.612-10.284zm4.913 104.691c1.675-7.933 5.434-18.14 6.45-17.512.412.255-.496 4.198-2.02 8.762-2.732 8.188-4.883 21.19-4.883 29.522 0 2.528-.465 4.276-1.137 4.276-1.41 0-.427-15.494 1.59-25.048zm7.533-109.443c.558-.345 1.014-.176 1.014.375 0 1.604-4.107 8.116-5.12 8.116-1.064 0 2.587-7.553 4.106-8.491zm1.761 332.181c.17 7.255.171 19.405.001 27-.17 7.596-.31 1.66-.31-13.19s.138-21.064.309-13.81zm0-58.44c.172 7.013.172 18.488 0 25.5-.172 7.013-.312 1.275-.312-12.75s.14-19.762.312-12.75zM178 553.852h10v53h-20v-53h10zm0-59h10v51h-20v-51h10zm-5.04-100.5c2.705-15.034 14.04-86.746 14.04-88.824 0-.922-.675-1.676-1.5-1.676s-1.5-.45-1.5-1c0-.652 16.167-1 46.5-1H277v35h31v-35l12.75-.07c7.013-.037 137.4-.15 289.75-.25l277-.18.888-32.25c.488-17.737 1.275-32.25 1.75-32.25.474 0 .862.9.862 2 0 1.81.667 2 7 2 6.717 0 7 .097 7 2.393 0 3.067 1.553 3.607 10.382 3.607 8.343 0 9.618-.834 9.618-6.29v-3.89l8.75.713c10.296.838 21.354 3.47 27.42 6.526 7.701 3.882 7.733 4.212.578 6.018-5.727 1.445-7.525 1.48-15.367.301-14.877-2.236-13.38-3.098-17.764 10.222-2.1 6.38-3.435 11.947-2.967 12.373.467.425 8.983 3.469 18.923 6.764l18.073 5.991 15.427-5.766c11.869-4.437 15.502-5.44 15.753-4.349.295 1.279-2.134 19.675-3.495 26.484-.462 2.306-.061 2.991 2.535 4.334 4.447 2.3 21.307 6.649 23.31 6.013 1.964-.623 3.278-4.286 4.824-13.444.603-3.575 1.572-8 2.153-9.832 1.252-3.95 1.437-3.93 14.317 1.461l8.742 3.66-.68 8.606c-.745 9.416-2.201 15.586-4.04 17.112-.787.652-6.01.312-15.528-1.012-9.673-1.345-19.816-1.995-31.153-1.995-10.54 0-16.811-.373-16.811-1 0-.622-5.667-1-15-1h-15v-2.5c0-2.481-.067-2.5-9-2.5-7.333 0-9 .278-9 1.5 0 .933-.944 1.5-2.5 1.5-2 0-2.5.5-2.5 2.5 0 2.111-.467 2.5-3 2.5-2.653 0-3 .34-3 2.94 0 2.675-.338 2.967-3.75 3.25l-3.75.31v7.5c0 7.439.023 7.503 2.75 7.816 2.742.316 2.75.34 2.75 8.25v7.934h3c2.333 0 3 .445 3 2 0 1.795.667 2 6.5 2h6.5v-3c0-2.652.34-3 2.934-3 2.456 0 2.985.447 3.25 2.75.266 2.314.85 2.801 3.682 3.072 3.352.32 3.364.34 2.704 4.463-.364 2.277-.796 4.274-.96 4.438-1.138 1.138-106.651-3.524-183.61-8.113-103.856-6.193-154.113-8.61-179.052-8.61H568v-23h-35V352.5l-21.25 1.26c-29.15 1.73-100.68 9.88-161.25 18.374l-23 3.225-.5 15.997-.5 15.997-1.965-3.5c-2.575-4.588-2.739-18.647-.282-24.25 1.17-2.666 1.298-3.749.446-3.745-.66.003-14.024 1.808-29.699 4.011-15.675 2.203-39.525 5.362-53 7.018-13.475 1.657-29.768 3.91-36.208 5.006-11.378 1.937-25.54 6.51-29.392 9.49-1.863 1.441-1.862 1.5.07 2.99 3.562 2.751 12.28 4.317 34.03 6.111 4.95.409 8.197.92 7.215 1.136-1.757.387-35.64-2.278-42.965-3.379-2.062-.31-3.754-1.087-3.759-1.726-.01-.639.882-6.112 1.97-12.162zm20.298-58.162c1.106 1.513 2.995 1.686 15.71 1.441l14.45-.279 5.278-16.5c2.902-9.075 5.283-16.837 5.29-17.25.01-.412-9.436-.75-20.986-.75h-21v15.809c0 11.12.373 16.319 1.258 17.529zm41.409 6.995c.366.367 1.941.667 3.5.667 2.571 0 2.833-.323 2.833-3.5 0-3.333-.167-3.5-3.5-3.5-3.176 0-3.5.262-3.5 2.833 0 1.559.3 3.134.667 3.5zm2.833-4.333c.825 0 1.5.675 1.5 1.5s-.675 1.5-1.5 1.5-1.5-.675-1.5-1.5.675-1.5 1.5-1.5zm13 5h7.5v-13h-15v13h7.5zm0-11h5.5v9h-11v-9h5.5zm17.25 10.796l6.75-.296.308-4.25.307-4.25H261v9.091l6.75-.295zm-.25-6.796c5.2 0 5.5.136 5.5 2.5s-.3 2.5-5.5 2.5-5.5-.136-5.5-2.5.3-2.5 5.5-2.5zm405.782 15.555c.705.27 9.593.369 19.75.218l18.468-.273.282-11.75.281-11.75H672v11.531c0 8.457.342 11.663 1.282 12.024zM692 330.852h18v20h-36v-20h18zm67.636 27.302c.383.384 5.347.698 11.03.698H781v-24.068l-10.75.284-10.75.284-.28 11.052c-.155 6.08.032 11.367.416 11.75zM770 336.852h9v20h-18v-20h9zm-575.519-75c5.765 0 13.553-.527 17.307-1.17 5.74-.984 7.015-1.573 8.019-3.7.806-1.708 1.193-9.327 1.193-23.477v-20.948l16.25.71c17.83.778 36.475 2.732 48.494 5.08 5.445 1.065 11.46 3.374 20.187 7.75C325.996 236.157 327 237.864 327 261.91c0 13.577-.33 17.834-1.586 20.481-2.901 6.115-8.789 8.575-27.336 11.426-28.998 4.457-39.243 5.225-76.828 5.76l-37.25.53v-38.256h10.481zm6.519-50h17v22.393c0 19.497-.205 22.472-1.582 23-.87.334-8.52.607-17 .607H184v-46h17zm-9.253 354.69c.17 7.255.171 19.405.001 27-.17 7.596-.31 1.66-.31-13.19s.138-21.064.309-13.81zm0-58.44c.172 7.013.172 18.488 0 25.5-.172 7.013-.312 1.275-.312-12.75s.14-19.762.312-12.75zM204 553.852h10v53h-20v-53h10zm0-59h10v51h-20v-51h10zm7.484-12.413c8.488-16.636 20.466-30.726 35.516-41.782 7.428-5.457 17.903-11.805 19.479-11.805.45 0 .577 12.592.285 27.983l-.532 27.983 52.793.267c29.036.147 55.084.111 57.884-.08l5.091-.346v-12.807h-3.944c-3.258 0-10.434-3.585-41.25-20.612-20.518-11.337-38.656-21.454-40.306-22.483-2.934-1.83 4.46-1.871 338.75-1.888l341.75-.017v66H643.5c-332.833 0-333.5 0-333.5-2 0-1.757-.667-2-5.5-2s-5.5.243-5.5 2c0 1.971-.667 2-46 2-25.3 0-46-.366-46-.813 0-.447 2.018-4.767 4.484-9.6zm7.766 127.078c2.338-.31 21.238-.563 42-.563H299v2.449c0 2.302.33 2.45 5.5 2.45 5.173 0 5.5-.147 5.5-2.455v-2.454l333.5-.026 333.5-.026v62.96H280.452l-7.476-4.263c-21.218-12.099-40.375-29.634-53.062-48.57-2.703-4.034-4.914-7.696-4.914-8.137 0-.442 1.913-1.056 4.25-1.365zM230 553.852h10v53h-20v-53h10zm0-59h10v51h-20v-51h10zm-4.762-82.707c1.244.239.462.444-1.738.455-2.2.011-3.218-.185-2.262-.435s2.756-.26 4-.02zm9.012 1.045c.688.277.125.504-1.25.504s-1.937-.227-1.25-.504c.688-.278 1.813-.278 2.5 0zM256 553.852h10v53h-20v-53h10zm0-59h10v51h-20v-51h10zm12.747 71.69c.17 7.255.171 19.405.001 27-.17 7.596-.31 1.66-.31-13.19s.138-21.064.309-13.81zm0-58.44c.172 7.013.172 18.488 0 25.5-.172 7.013-.312 1.275-.312-12.75s.14-19.762.312-12.75zm42.236-33.25h41.983l6.267 3.489 6.267 3.488-48.25.011-48.25.011v-7h41.983zm-37.99-44.203l2.994 1.703.01 19.75.01 19.75h-6v-42.907l2.994 1.704zm-2.024-8.797c.532 0 .71.675.393 1.5-.317.825-.753 1.5-.969 1.5-.216 0-.393-.675-.393-1.5s.436-1.5.969-1.5zM293.5 296.297c20.344-2.94 25.407-4.485 30.467-9.298 4.827-4.593 5.327-7.547 4.874-28.791-.28-13.113-.652-16.425-2.091-18.618-.962-1.467-1.75-2.818-1.75-3.002 0-.184 1.575-.15 3.5.074l3.5.409v62.781l-30.75-.15c-16.912-.082-29.4-.33-27.75-.549 1.65-.22 10.65-1.505 20-2.856zm-8 257.555H299v53h-27v-53h13.5zm0-59H299v51h-27v-51h13.5zm-9.565-73.949c1.618.147 98.476 54.616 98.776 55.548.195.604-.474 2.122-1.487 3.372l-1.841 2.275-49.534-27.373-49.534-27.373 1.528-3.25c.84-1.787 1.782-3.227 2.092-3.199zm3.603 13.95c.552 0 65.627 35.882 66.379 36.6.229.22-14.734.4-33.25.4H279v-18.5c0-10.176.242-18.5.538-18.5zm12.962-131H306v31h-27v-31h13.5zm-2.5 116.87l7.5.87-7.583.13c-4.171.07-7.912-.2-8.313-.6-1.221-1.221.568-1.307 8.396-.4zm15 133.13h3v57h-6v-57h3zm0-62h3v54h-6v-54h3zm7 62c1.95 0 2 .666 2 26.5 0 25.832-.05 26.5-2 26.5s-2-.668-2-26.5c0-25.834.05-26.5 2-26.5zm0-59c1.948 0 2 .666 2 25.5 0 24.832-.052 25.5-2 25.5s-2-.668-2-25.5c0-24.834.052-25.5 2-25.5zm5.747 71.69c.17 7.254.171 19.404.001 27-.17 7.595-.31 1.66-.31-13.19s.138-21.065.309-13.81zm0-58.44c.172 7.012.172 18.487 0 25.5-.172 7.012-.312 1.274-.312-12.75 0-14.026.14-19.763.312-12.75zM369 553.852h49v53h-98v-53h49zm0-59h49v51h-98v-51h49zm-28.75-258.797l6.75-.295v64.092h-14.028l.264-31.75.264-31.75 6.75-.296zm6.425 144.728l1.675-5.432.767 4c.95 4.947.901 20.942-.076 25l-.722 3-1.039-2.5c-2.691-6.476-2.943-16.487-.605-24.068zM410.5 235.852H472v64H349v-64h61.5zM544.86 417.54c53.844-1.91 68.535-2.707 69.183-3.757.454-.733 1.127-4.567 1.498-8.519.61-6.524.348-10.702-1.174-18.66-.901-4.714 1.245-3.011 2.981 2.364 2.002 6.197 2.072 15.96.153 21.347-.776 2.179-1.243 4.13-1.037 4.335.205.205 61.722-1.695 136.704-4.222 74.983-2.528 139.37-4.591 143.082-4.585l6.75.01v16l-272.25-.173c-186.456-.118-253.657-.416-213.25-.944 32.45-.425 89.762-1.863 127.36-3.196zm-178.9-46.688c1.625 0 4.043 10.026 3.963 16.432-.082 6.503-1.82 12.7-3.743 13.341-.873.291-1.181-3.537-1.181-14.69 0-8.983.389-15.083.961-15.083zm12.736 105.083c.167-.229.303 1.009.303 2.75 0 2.512-.418 3.167-2.023 3.167-1.957 0-1.967-.089-.303-2.75.947-1.512 1.857-2.937 2.023-3.167zm10.43-105.083c1.688 0 4.871 10.293 4.851 15.685-.021 5.598-2.87 14.315-4.68 14.315-.438 0-.798-6.75-.798-15s.282-15 .627-15zM459 360.45c40.382-4.515 54.978-5.403 102-6.21 45.594-.783 59.915-.242 189.906 7.171 52.473 2.993 96.123 5.475 97 5.516.877.042-13.481 3.627-31.906 7.968l-33.5 7.893-31.132.032-31.132.032 1.338 3.75c1.777 4.98 1.767 12.498-.023 16.782-.797 1.908-1.71 3.468-2.028 3.468-.318 0-.284-2.88.077-6.4.36-3.519.34-8.919-.044-12l-.7-5.6H565.668l-78.084-6.996c-42.946-3.847-80.334-7.309-83.084-7.692-4.603-.64-3.89-.835 9-2.444 7.7-.961 28.175-3.333 45.5-5.27zm-44.5 27.902c0-2.75-.316-7.362-.703-10.25-.875-6.534.266-6.762 2.51-.5 2.144 5.98 2.183 15.984.084 21.23-2.178 5.445-3.515 5.073-2.622-.73.402-2.612.731-7 .731-9.75zm7.247 178.19c.17 7.255.171 19.405.001 27-.17 7.596-.31 1.66-.31-13.19s.138-21.064.309-13.81zm0-58.44c.172 7.013.172 18.488 0 25.5-.172 7.013-.312 1.275-.312-12.75s.14-19.762.312-12.75zm60.753 45.75H541v53H424v-53h58.5zm0-59H541v51H424v-51h58.5zm-38.766-101.5c.258-4.4.033-10.373-.5-13.273-1.248-6.788.073-7.594 2.43-1.483 3.242 8.401 1.392 26.256-2.72 26.256-.718 0-.877-.665-.418-1.75.407-.962.95-5.35 1.208-9.75zm25.418-16.7c1.542 1.655 3.848 10.647 3.842 14.985-.01 5.312-1.357 10.962-3.235 13.529-1.032 1.41-1.259-1.067-1.259-13.747 0-8.507.294-15.152.652-14.767zm35.598-140.463c16.913.363 47.063.66 67 .661l36.25.002v63H474V235.53l30.75.66zm-5.598 143.463c1.542 1.655 3.848 10.647 3.842 14.985-.01 5.312-1.357 10.961-3.235 13.53-1.032 1.411-1.259-1.066-1.259-13.747 0-8.507.294-15.153.652-14.768zm26.348 18.2c0-4.125-.343-9.412-.762-11.75-1.041-5.811.47-5.351 2.69.818 2.301 6.401 2.334 16.09.074 21.682-2.125 5.255-3.61 5.532-2.689.5.378-2.062.687-7.125.687-11.25zm24.5-67h16v20h-32v-20h16zm55 223h58v53H547v-53h58zm0-59h58v51H547v-51h58zm-48.5-94.5c0-3.85-.329-9.137-.73-11.75-.998-6.479.567-5.99 2.718.852 1.984 6.306 1.72 17.895-.516 22.648-1.843 3.919-2.965 3.4-2.16-1 .379-2.062.688-6.9.688-10.75zm32.796-11.582c2.36 5.413 2.437 15.735.153 20.55-.922 1.942-1.738 3.532-1.813 3.532-.075 0-.144-6.363-.153-14.139l-.017-14.139 1.83 4.196zM680 236.852h70v63H610v-63h70zm-33.763 147.646c1.834 1.134 3.961 11.802 3.318 16.647-.544 4.106-2.906 10.707-3.83 10.707-.124 0-.225-6.257-.225-13.904 0-7.648.332-13.7.737-13.45zm20.51 182.044c.17 7.255.171 19.405 0 27-.17 7.596-.31 1.66-.31-13.19s.138-21.064.309-13.81zm0-58.44c.172 7.013.172 18.488 0 25.5-.172 7.013-.312 1.275-.312-12.75s.14-19.762.312-12.75zm60.753 45.75H786v53H669v-53h58.5zm.25-58.758l58.25-.258v51.016H668.966l.267-25.25.267-25.25 58.25-.258zm-53.949-109.242c.166 0 .953 1.56 1.75 3.468 1.908 4.566 1.866 14.826-.077 18.582-.84 1.622-1.627 2.95-1.75 2.95-.123-.001-.224-5.626-.224-12.5 0-6.876.135-12.5.3-12.5zm24-2c1.205 0 3.199 7.992 3.199 12.819 0 5.698-1.516 12.182-2.848 12.18-.359 0-.652-5.625-.652-12.5s.135-12.5.301-12.5zm122.14-147h67.943l-.439 6.75c-.241 3.713-.715 17.888-1.054 31.5l-.616 24.75H752v-63h67.942zm30.059 317h58v53H792v-53h58zm-21.161-59c20.261 0 46.361.297 58 .66l21.161.658v49.682H792v-51h36.839zm69.161-258c2.75 0 5 .45 5 1s-2.25 1-5 1-5-.45-5-1 2.25-1 5-1zm16.5 0h8.5v8h-7.833c-4.309 0-8.134-.3-8.5-.667-.367-.366-.667-2.166-.667-4v-3.333h8.5zm-2.753 329.69c.17 7.255.171 19.405 0 27-.17 7.596-.309 1.66-.31-13.19 0-14.85.14-21.064.31-13.81zm0-58.44c.172 7.013.172 18.488 0 25.5-.172 7.013-.312 1.275-.312-12.75s.14-19.762.312-12.75zM969 553.852h55v53H914v-53h55zm0-58h55v50H914v-50h55zm-38.839-234.648c1.74-4.869 3.497-9.237 3.907-9.708.41-.472 5.386-.294 11.088.397 9.083 1.101 11.235 1.05 17.65-.418l7.304-1.672 11.445 10.708c6.295 5.89 11.445 10.982 11.445 11.316 0 .334-6.838 3.112-15.196 6.174l-15.196 5.567-17.804-5.945c-9.792-3.27-17.804-6.31-17.804-6.756 0-.446 1.423-4.795 3.161-9.663zm7.611 9.364c2.172 2.785 15.379 8.284 19.897 8.284 4.505 0 5.064-1.877 2.44-8.19-1.17-2.818-1.956-5.297-1.744-5.508.212-.212 1.15 1.546 2.087 3.907 1.913 4.822 6.17 9.791 8.39 9.791.808 0 2.974-1.148 4.814-2.55 4.904-3.741 4.58-7.276-1.266-13.803-5.454-6.09-7.792-7.564-12.073-7.611-2.331-.026-3.353.503-3.822 1.98-.63 1.984-.684 1.986-3.318.143-3.837-2.685-10.316-3.332-12.923-1.291-1.933 1.514-4.265 7.655-4.226 11.132.009.825.794 2.497 1.744 3.716zM957 260.852c.533.825.97 1.95.97 2.5s-.437.325-.97-.5c-.533-.825-.97-1.95-.97-2.5s.437-.325.97.5zm17.202 1.4c3.41 3.779 7.734 7.511 9.608 8.294 7.19 3.004 5.241-1.47-4.835-11.096-4.374-4.179-8.633-7.598-9.464-7.598-3.032 0-1.371 3.683 4.69 10.4zm7.455 363.942l.65-17.158 65.192-.08 65.192-.08 25.33-8.513c13.933-4.681 25.477-8.512 25.655-8.512.178 0 .324 18 .324 40v40H981l.003-14.25c.002-7.837.296-21.971.654-31.408zm93.843 40.658h19.5v-26h-39v26h19.5zm-.5-23h17v20h-34v-20h17zm-1-14h8v-13h-16v13h8zm-.5-10h5.5v7h-11v-7h5.5zm-.5-193h91v40.5c0 22.275-.338 40.494-.75 40.487-.413-.01-11.325-3.257-24.25-7.223l-23.5-7.21-66.75-.29-66.75-.292v-65.972h91zM993.577 293.25l.632-4.103 12.131 3.422c6.673 1.882 12.305 3.596 12.517 3.808.812.811-1.037 11.34-2.293 13.058-1.268 1.734-1.64 1.72-9.399-.357-4.443-1.189-9.723-2.85-11.734-3.69-3.378-1.41-3.61-1.774-3.07-4.78.322-1.79.87-5.101 1.216-7.358zm7.054 10.527c3.905 3.072 9.424 4.301 13.278 2.958 7.252-2.528.454-10.882-8.857-10.882-7.243 0-9.455 3.965-4.421 7.924zm1.68-6.287c3.186-.8 9.392 1.066 11.906 3.58 2.014 2.015 2.023 2.134.244 3.435-2.392 1.75-4.679 1.702-9.208-.19-5.593-2.338-7.08-5.787-2.942-6.825zm-6.503-19.782l.692-3.644 7 2.89c5.258 2.17 6.088 2.743 3.337 2.3-7.42-1.196-11.374 2.375-7.742 6.992 2.137 2.718 1.894 2.979-1.845 1.977-2.435-.653-2.805-3.344-1.442-10.515zm8.413 3.145c5.698 0 11.933 4.324 10.223 7.09-.884 1.43-8.247 1.063-11.403-.569-5.073-2.623-4.367-6.52 1.18-6.52zm8.962 9.585c3.832-.842 4.576-4.128 1.661-7.33-2.123-2.332-2.155-2.503-.344-1.813 1.1.42 3.237 1.21 4.75 1.758 3.136 1.135 3.16 1.24 1.59 7.108l-1.16 4.336-5.48-1.526c-3.013-.838-5.079-1.619-4.59-1.734.49-.115 2.097-.474 3.573-.799zM1028 553.852c.641 0 1 9.5 1 26.5s-.359 26.5-1 26.5c-.642 0-1-9.5-1-26.5s.358-26.5 1-26.5zm0-58c.64 0 1 9 1 25s-.36 25-1 25-1-9-1-25 .36-25 1-25zm4.5 58c1.296 0 1.5 3.611 1.5 26.5s-.204 26.5-1.5 26.5-1.5-3.611-1.5-26.5.204-26.5 1.5-26.5zm0-58c1.293 0 1.5 3.444 1.5 25s-.207 25-1.5 25-1.5-3.444-1.5-25 .207-25 1.5-25zm7.883 58c2.543 0 3.514.497 3.907 2 .496 1.899 1.364 2 17.116 2 15.927 0 16.594-.08 16.594-2 0-1.778.667-2 6-2h6v-8h-6c-4.667 0-6-.333-6-1.5 0-1.273-2.504-1.5-16.531-1.5-13.772 0-16.628.25-17.107 1.5-.356.926-1.876 1.5-3.969 1.5H1037v-50h71v17.836c0 9.81-.298 34.785-.662 55.5l-.663 37.664H1037v-53h3.383zm5.128-238.409c.819-2.7 1.489-8.437 1.489-12.75 0-4.312.216-7.84.48-7.84s4.896 1.758 10.293 3.909c9.29 3.7 69.257 33.086 67.537 33.094-1.664.008-78.86-10.155-80.06-10.54-1.514-.486-1.538.057.26-5.873zm4.32-4.244c2.2 1.991 15.152 6.518 16.919 5.914.807-.276 1.25-2.481 1.25-6.222 0-3.43-.51-6.207-1.25-6.805-2.56-2.072-15.837-7.138-17.266-6.59-2.312.888-2.042 11.541.347 13.703zm.531-12.347c1.486 0 15.219 6.314 15.832 7.28.905 1.425 1.074 8.119.226 8.967-.537.537-13.155-3.347-15.418-4.746-.902-.557-1.51-11.5-.64-11.5zm17.888 255.258c3.987.19.725.345-7.25.345s-11.238-.156-7.25-.345c3.987-.19 10.512-.19 14.5 0zm43.29-58.258c1.373 0 1.51 5.955 1.25 54.45-.223 41.91-.578 54.74-1.54 55.7-1 1-1.25-9.89-1.25-54.45 0-49.495.172-55.7 1.54-55.7zm4.71 1.248c.687.253 14.931 4.464 31.653 9.357l30.402 8.895-.65 23c-.358 12.65-.651 28.18-.653 34.513v11.512l-29.75 9.882c-16.362 5.434-30.312 10.09-31 10.344-.99.367-1.25-10.8-1.25-53.75 0-42.952.26-54.119 1.25-53.753zm13.901-142.735c1.183-10.457 2.296-19.188 2.473-19.402.455-.552 7.523 4.786 9.66 7.295 4.562 5.355 7.14 13.226 6.075 18.55-.884 4.418-6.46 10.286-13.173 13.864-3.281 1.75-6.24 3.18-6.576 3.18-.963 0-.752-3.219 1.541-23.487zm42.441 234.457c2.628-.868 3.89-.888 4.7-.078 1.629 1.629 2.708 1.352 2.708-.694 0-1.477 4.918-3.389 27.25-10.594 28.473-9.186 35.227-12.22 42.315-19.012 8.758-8.392 6.807-15.512-6.78-24.738-5.17-3.511-10.336-5.33-39.597-13.946-18.508-5.45-33.772-9.908-33.92-9.908-.147 0-.268-18.675-.268-41.5v-41.5h61.855c77.481 0 89.688.87 119.788 8.538 36.118 9.202 73.792 28.575 106.853 54.947 11.363 9.064 32.115 28.059 32.906 30.12.329.857.598 13.833.598 28.835v27.277l-12.327 11.996c-41.608 40.49-92.243 68.42-141.673 78.145-22.291 4.386-23.514 4.447-96.75 4.866l-71.25.407v-81.976l3.592-1.186zm14.96-29.97h7.552l-.302-5.25-.302-5.25-7.25-.294-7.25-.294v-16.063c0-12.547.277-15.957 1.266-15.577.696.267 12.959 3.945 27.25 8.173 27.435 8.116 32.177 10.196 39.15 17.168 5.486 5.487 5.754 8.905 1.084 13.877-6.124 6.522-14.265 10.276-41.315 19.053-14.335 4.651-26.373 8.457-26.75 8.457-.377 0-.685-5.4-.685-12v-12h7.552zm-1.552-8c6 0 6 0 6 3s0 3-6 3-6 0-6-3 0-3 6-3zm314.082-23c3.294 3.575 8.243 9.753 11 13.73 4.443 6.412 4.876 7.487 3.83 9.5-1.336 2.57-9.57 12.797-16.32 20.27l-4.515 5 .01-27.5.01-27.5 5.988 6.5zM85.604 366.352c1.158 7.82.81 7.501 8.165 7.49 3.702-.007 8.419-.29 10.481-.632l3.75-.62v-6.119c.01-15.664 4.3-36.422 10.387-50.225l3.457-7.839-3.074-1.293c-1.692-.71-3.163-1.173-3.27-1.027-.106.146-1.861 4.194-3.9 8.995-5.463 12.864-8.486 26.106-9.817 42.998-.64 8.125-1.577 14.772-2.082 14.772-1.161 0-.065-17.26 1.901-29.957 1.542-9.955 5.478-22.825 9.8-32.043l2.578-5.5-6.236-2.813-6.235-2.813-2.347 2.813c-7.532 9.025-13.122 28.606-13.648 47.813-.196 7.15-.157 14.35.088 16zm9.818-31.744c2.765-12.024 9.527-29.906 11.566-30.585.839-.28 1.103.069.715.943-9.614 21.644-13.685 39.072-13.697 58.636 0 6.318-.372 9.25-1.16 9.25-2.01 0-.267-25.881 2.576-38.244zm16.318 38.244c2.652 0 3.26-1.774 3.26-9.51 0-14.334 3.751-30.46 10.508-45.17 2.72-5.923 3.038-7.28 1.813-7.75-3.11-1.194-4.124-.4-6.608 5.18-6.352 14.265-9.559 28.259-10.427 45.5-.572 11.364-.524 11.75 1.454 11.75zm6.023-.015c3.337-.03 3.957-1.556 4.666-11.485 1.142-15.987 4.12-27.818 10.108-40.15 2.376-4.891 2.981-7.036 2.139-7.572-2.956-1.88-4.462-.558-7.947 6.972-6.348 13.72-8.789 24.399-10.17 44.5-.475 6.9-.343 7.748 1.204 7.735zm8.587-.985c2.284 0 2.367-.303 2.95-10.75.736-13.207 3.49-24.031 9.03-35.49l4.225-8.741-2.472-.825c-2.312-.77-2.692-.367-5.835 6.19-1.848 3.859-4.252 9.659-5.34 12.89-2.368 7.03-4.894 22.99-4.902 30.976-.01 5.37.15 5.75 2.344 5.75zm7.365 0h3l.696-10.25c.885-13.005 2.863-21.942 7.329-33.104 2.904-7.26 3.292-9.012 2.151-9.734-.765-.485-1.716-.888-2.113-.897-1.353-.028-8.883 17.078-10.912 24.791-1.114 4.232-2.277 12.532-2.587 18.444l-.562 10.75h2.998z"/><path d="M752.406 268.86v-30.94h133.791l-.012 19.651c-.01 10.808-.492 24.73-1.078 30.94l-1.066 11.288H752.406V268.86zm-141.986 0v-30.94h138.808v61.88H610.42v-30.94zm-135.463-1.1v-32.038l28.849 1.094c15.867.602 45.593 1.097 66.059 1.1l37.21.005v61.878H474.958V267.76zm-125.429.264v-31.776h122.084V299.8H349.528v-31.775z" fill="#fff"/><path d="M172.606 402.233c.401-2.53 4.061-25.858 8.133-51.84 4.072-25.983 7.879-47.243 8.459-47.245.58-.002 1.36 6.957 1.732 15.465.373 8.509 1.26 16.41 1.97 17.56.879 1.42 6.083 2.091 16.219 2.091h14.925l5.463-17.56 5.463-17.56h40.973v30.963l-7.526-.598-7.525-.599v6.022c0 5.933.1 6.022 6.846 6.022 5.399 0 7.028-.695 7.705-3.287.768-2.936 2.578-3.337 16.986-3.763l16.126-.476.474-16.912.474-16.912 288.849-1.234c158.866-.678 289.036-1.409 289.266-1.623.23-.214.907-13.897 1.505-30.407l1.087-30.017 6.021.672c3.311.369 7.367 2.086 9.013 3.816 1.892 1.988 5.273 3.135 9.198 3.119 7.402-.031 9.547-1.237 11.11-6.246.762-2.439 2.498-3.763 4.936-3.763 7.378 0 23.629 3.705 29.423 6.708 5.04 2.613 5.447 3.228 2.815 4.262-1.692.665-8.961.755-16.154.2-9.282-.715-13.561-.42-14.744 1.019-2.896 3.522-7.433 21.493-5.831 23.095.826.826 9.34 4.142 18.921 7.369l17.42 5.866 14.73-5.27c8.101-2.897 15.073-4.925 15.493-4.505.42.42.03 5.232-.863 10.694-3.054 18.651-3.098 18.547 9.4 22.407 18.02 5.566 16.915 6.363 21.925-15.82 1.699-7.52 2.636-7.677 14.762-2.479 8.37 3.588 8.813 5.182 5.608 20.13-1.827 8.517-1.911 8.606-7.108 7.541-5.913-1.21-59.423-4.167-76.754-4.24-8.898-.037-11.289-.579-11.289-2.556 0-3.914-17.434-3.47-21.45.546-1.68 1.68-4.314 3.538-5.854 4.128-1.54.591-2.799 2.227-2.799 3.635 0 1.447-1.456 2.562-3.344 2.562-2.89 0-3.345 1.114-3.345 8.183 0 5.73.752 8.471 2.508 9.145 1.687.647 2.513 3.31 2.522 8.123.012 6.134.658 7.46 4.514 9.25 6.414 2.979 15.542 2.733 15.542-.418a2.516 2.516 0 0 1 2.508-2.508 2.516 2.516 0 0 1 2.509 2.508c0 1.394 1.486 2.509 3.345 2.509 3.476 0 4.278 2.63 1.93 6.33-1.097 1.728-9.006 1.816-40.53.449-83.246-3.61-117.91-5.344-121.531-6.079-3.53-.716-3.763-1.604-3.763-14.29 0-11.647-.368-13.385-2.646-12.51-1.455.557-6.406 1.014-11.002 1.014h-8.358l.55 12.513.55 12.512-8.361-.837c-19.224-1.924-101.682-5.993-140.899-6.953l-42.227-1.034v-22.89h-36.793v23.128l-12.96 1.045c-50.074 4.04-116.975 11.725-182.709 20.986-18.856 2.656-54.98 7.549-80.274 10.872-49.667 6.524-63.3 9.117-74.886 14.242-6.327 2.799-7.155 3.692-5.391 5.818 1.717 2.069 1.573 2.51-.82 2.51-2.228 0-2.733-1.067-2.172-4.598zm539.83-61.46V328.23h-41.81l.023 8.78c.044 16.913-.772 16.305 21.913 16.305h19.874v-12.542zm-471.48 2.09c.105-1.672.3-1.672.975 0 .514 1.275 4.053 2.09 9.066 2.09h8.222v-15.051h-8.362c-7.776 0-8.362.29-8.362 4.129 0 2.982-.696 3.86-2.508 3.165-4.177-1.602-7.35.546-6.365 4.31.971 3.714 7.113 4.85 7.333 1.357z" fill="#fff"/><path d="M535.163 340.773v-9.199h30.103v18.397h-30.103v-9.198zm-56.025 33.697c-40.472-3.78-72.456-7.063-71.076-7.294 13.914-2.332 82.871-9.163 107.869-10.686 44.512-2.712 121.893-.966 225.772 5.094 47.83 2.79 90.35 5.162 94.49 5.272 5.99.16 1.554 1.685-21.742 7.479l-29.266 7.278-116.231-.134-116.23-.134-73.586-6.875zm194.833-33.697v-9.199h35.12v18.397h-35.12v-9.198zm88.637 6.689v-9.198h15.051v18.396h-15.051v-9.198zM183.962 281.65v-18.148l14.946-.969c8.22-.532 16.386-1.739 18.147-2.681 3.503-1.875 5.337-14.124 5.36-35.786l.012-11.346 7.944.84c4.369.463 14.717 1.274 22.995 1.804 24.28 1.552 35.95 4.079 50.172 10.863 20.287 9.677 21.621 11.64 22.314 32.844.71 21.736-.86 26.25-10.363 29.783-15.002 5.578-66.266 10.022-125.256 10.856l-6.271.09v-18.15z" fill="#fff"/><path d="M183.962 234.637v-21.802h33.548l-.468 21.323-.468 21.323-16.306.479-16.306.478v-21.801zm102.016-18.652c-4.14-.815-17.938-2.522-30.663-3.795-12.725-1.272-23.733-2.964-24.464-3.76-1.901-2.074-132.959-178.3-134.467-180.812-.965-1.606 1.987-2.09 12.731-2.09h13.987l82.012 85.71c95.805 100.124 92.984 97.01 92.276 101.828-.661 4.501-1.841 4.803-11.412 2.919zM157.22 201.926c-16.104-6.555-24.233-10.855-28.403-15.024l-5.841-5.842h57.14l7.004-5.074c4.355-3.155 6.556-5.843 5.82-7.108-.652-1.118-3.387-5.285-6.079-9.259-2.692-3.974-4.552-7.567-4.134-7.985.419-.418 10.659 12.428 22.756 28.548l21.995 29.308-17.995.019c-9.897.01-20.63.374-23.849.809-4.449.6-11.265-1.412-28.414-8.392z" fill="#fff"/><path d="M107.112 156.133c-5.563-11.097-10.114-20.888-10.114-21.757 0-1.909 28.38-21.884 31.091-21.884 1.634 0 14.669 17.9 35.565 48.843 4.874 7.217 5.07 8 2.359 9.438-1.626.864-10.482 2.061-19.68 2.662-9.198.6-19.51 1.493-22.915 1.984l-6.192.89-10.114-20.176zm-37.683-75.48L44.982 32.09l15.49.482 15.49.482 24.67 35.956c13.57 19.776 24.7 36.877 24.734 38.004.052 1.712-28.281 22.202-30.702 22.202-.434 0-11.79-21.854-25.235-48.563zM39.44 20.785C30.51 3.162 33.77.995 65.474 3.479c26.615 2.086 42.096 6.393 49.044 13.645l4.847 5.06h-20.01c-14.667 0-20.923.64-23.432 2.397-1.888 1.322-9.866 2.92-17.793 3.563L43.76 29.31l-4.32-8.525zm295.037 247.239v-31.776h11.706V299.8h-11.706v-31.775zm-33.448 30.248l-9.198-.981 13.293-2.256c11.369-1.929 14.117-3.079 18.982-7.944l5.69-5.69-.587-21.74c-.322-11.958-.021-21.741.669-21.74.69 0 1.254 13.922 1.254 30.939v30.94l-10.452-.273c-5.75-.15-14.592-.715-19.651-1.255zm-21.741 20.76v-14.216h26.758v28.431h-26.758v-14.215zm-120.412-28.09c-11.87-1.858-12.614-2.427-14.197-10.868-.876-4.67-.419-6.187 2.476-8.214 4.675-3.275 4.09-11.362-.822-11.362-2.524 0-3.581 1.436-4.309 5.853l-.965 5.854-.707-5.777c-.626-5.11.181-6.606 6.99-12.96 7.657-7.145 7.77-7.185 20.269-7.185h12.569l1.036 6.271c.57 3.45 1.045 13.986 1.055 23.414l.019 17.142-6.272-.233c-3.45-.128-11.163-.999-17.142-1.935zm21.435-18.343c.636-5.513-4.32-8.452-7.023-4.166-1.495 2.37-1.892 2.275-3.451-.824-2.54-5.046-5.997-5.596-7.162-1.139l-.998 3.816-1.347-3.64c-.777-2.102-2.782-3.64-4.745-3.64-2.669 0-3.398 1.089-3.398 5.07 0 5.476 4.38 8.7 6.706 4.937 1.076-1.74 1.93-1.608 4.19.65 2.293 2.294 3.316 2.441 5.33.769 2.028-1.683 2.801-1.52 4.141.875 2.42 4.325 7.136 2.68 7.757-2.708zM130.82 403.064c-14.97-1.865-26.87-3.742-26.443-4.169.427-.427 15.583-2.825 33.68-5.33l32.902-4.553-1.011 7.376c-1.682 12.269 1.452 11.734-39.128 6.676z" fill="#fff"/><path d="M60.532 28.095c2.76-.302 6.428-.853 8.153-1.223l4.286-.918c1.288-.276 1.423.088.491 1.322-.727.963-4.8 1.39-13.139 1.377l-4.808-.007 5.017-.55zm12.543 4.771c-1.84-.161-9.035-.356-15.99-.433-6.954-.077-12.645-.258-12.647-.401-.007-.623 3.46-.784 16.882-.784 14.04 0 14.28.014 14.82.877.3.482.487.912.413.955-.073.043-1.638-.053-3.478-.214zM194.08 164.954c-5.081-6.547-9.586-12.015-10.572-12.831-1.363-1.13-1.178-.054.537 3.125.953 1.768 1.672 3.275 1.598 3.35-.074.074-3.03-4.044-6.568-9.15-3.539-5.108-16.767-24.02-29.398-42.028-12.63-18.007-22.873-32.833-22.762-32.944.112-.112 13.834 18.008 30.493 40.267 42.438 56.703 41.423 55.334 41.194 55.563-.114.114-2.149-2.294-4.522-5.352zM129.1 175.04c1.61-.186 6.878-.632 11.707-.989 11.472-.849 16.774-1.393 21.082-2.165 4.448-.796 5.885-1.505 5.885-2.903 0-1.101-1.203-3.75-2.609-5.745-.455-.646-.73-1.27-.613-1.388.24-.24 2.317 2.677 3.372 4.736 1.017 1.984.864 3.246-.537 4.425-1.895 1.594-5.042 2.029-26.371 3.638-11.368.857-17.716 1.066-11.916.392zm11.722 20.917c-5.965-2.363-6.388-2.61-9.082-5.282-1.554-1.542-2.759-2.87-2.677-2.952.081-.081 1.413.81 2.959 1.98s5.832 3.625 9.523 5.456c3.692 1.83 6.447 3.316 6.123 3.302-.325-.013-3.405-1.14-6.846-2.504zm151.754 21.794c-1.12-.256-1.02-.311.927-.515 1.2-.125 2.459-.459 2.799-.741.34-.282.849-1.544 1.13-2.804.467-2.084.434-2.454-.363-4.095-1.51-3.109-8.866-11.483-24.924-28.377-4.109-4.322-7.378-7.952-7.265-8.065.172-.173 8.719 8.69 26.748 27.736 7.067 7.465 8.939 12.814 5.693 16.269-.947 1.007-2.23 1.168-4.745.592zm-54.144-6.611c-4.567-.432-6.696-.806-7.212-1.263-1.043-.926-.904-1.401.28-.951.907.345 12.456 2.238 16.13 2.644 1.032.114.847.165-.627.173-1.15.006-5.007-.264-8.57-.602zm-17.075 17.136c-.044-10.148.079-15.574.351-15.574.488 0 .505 21.478.022 27.385-.202 2.481-.33-1.542-.373-11.811zm-37.277 29.07c0-.673 2.129-.803 23.255-1.42l9.25-.27.257-5.903c.142-3.247.38-12.911.531-21.477l.274-15.574h-16.784c-10.91 0-16.783-.147-16.783-.418 0-.272 5.941-.418 16.988-.418h16.99l-.231 21.218c-.126 11.67-.397 21.772-.602 22.449-.248.82-.744 1.33-1.488 1.529-.613.164-7.987.436-16.386.605-13.44.27-15.271.231-15.271-.321zm-2.476-2.416c-.019-.805-.316-3.063-.66-5.018-.344-1.954-.626-3.614-.627-3.688 0-.073-5.221-.073-11.602 0-11.51.133-11.62.143-13.902 1.226-1.265.6-3.193 1.886-4.286 2.857-1.092.972-1.986 1.635-1.986 1.473 0-.161 1.337-1.777 2.971-3.59l2.971-3.295h27.004l.3 5.187c.164 2.853.197 5.44.074 5.749-.123.309-.239-.097-.257-.902zm103.655 44.33l-9.825-.221 8.362-1.161c9.087-1.262 9.466-1.296 8.644-.775-.684.433 9.736 1.609 20.204 2.278 3.29.21-16.51.123-27.385-.122zm-109.566-5.292c-9.978-1.433-26.495-3.95-28.37-4.323l-.876-.174-1.735-6.908c-1.84-7.33-2.268-8.8-2.981-10.277l-.447-.924.344-2.234.344-2.234.186.91c.42 2.06 1.577 3.68 2.911 4.077.458.136.956.184 1.275.125l.524-.098-.86.785c-.472.432-1.037 1.125-1.256 1.539-.378.717-.396.85-.385 2.822.01 1.746.087 2.415.49 4.287.829 3.838 1.371 5.12 2.688 6.352 1.387 1.298 3.646 2.03 9.086 2.942 8.814 1.478 17.122 2.326 24.272 2.478.834.018 1.516.05 1.516.072a21 21 0 0 1-.16.787l-.16.746-.69-.014c-.38-.008-2.952-.339-5.716-.736zm-20.171-19.586c-.69-.3-1.396-.854-1.786-1.401-.463-.65-.28-.675.454-.062 1.316 1.1 2.156 1.237 3.263.535 1.689-1.071 2.729-4.422 2.163-6.97-.118-.528-.268-1.088-.335-1.243-.086-.203-.07-.252.056-.174.272.168.943 1.607 1.656 3.548.632 1.725.65 1.752.83 1.33.176-.413.183-.399.19.388.004.45.1 1.181.216 1.625.115.445.188.83.162.856-.026.026-.358-.19-.738-.48-.513-.392-.836-.528-1.254-.528-.588 0-.866.238-1.983 1.694-.451.589-1.4 1.11-2.014 1.106-.203-.001-.6-.103-.88-.224zm19.481 3.131c-.877-.314-1.397-.817-2.418-2.337-1.045-1.558-1.4-1.892-2.015-1.892-.606 0-.982.188-2.194 1.094-1.345 1.004-1.991 1.238-2.775 1.004-.306-.092-.685-.261-.842-.376-.252-.184-.162-.2.78-.132 1.441.103 2.157-.18 3.126-1.241 1.036-1.134 1.404-2.345 1.302-4.288l-.073-1.395.585.977c.656 1.095 1.073 1.383 1.596 1.103.302-.161.326-.152.23.096-.55 1.424-.43 2.59.424 4.113 1.02 1.82 2.655 3.02 4.146 3.046l.74.013-.518.2a3.017 3.017 0 0 1-2.094.015zm-34.303-6.529c-.046-.045-.501-.142-1.012-.214-.673-.095-1.028-.231-1.291-.494-.493-.493-.362-.932.547-1.826.862-.849 1.05-1.412 1.047-3.148-.003-2.523-.766-4.41-2.279-5.635-1.4-1.132-1.83-1.037-4.091.91-.564.485-1.116.882-1.226.882-.45 0-.46-2.446-.012-3.056.287-.392 2.12-.342 5.764.158 3.97.544 3.716.436 3.148 1.346-1.2 1.923-1.376 3.71-.806 8.204.2 1.585.35 2.899.33 2.92-.02.02-.074-.001-.12-.047zm43.345-8.343v-.739h6.984c8.225 0 13.204-.225 18.367-.83 2.18-.255 6.108-.991 7.032-1.317.86-.303 1.056-.26.398.086-1.375.726-7.759 1.77-14.378 2.352-2.167.19-17.195 1.187-17.898 1.187h-.505v-.739z" fill="#fff"/><path d="M220.93 246.764c.038-1.619.07-9.95.07-18.514 0-15.496 0-15.572.296-15.572.276 0 .29.06.185.85-.163 1.233-.14 26.657.025 27.014.12.262.148.237.25-.221.304-1.383-.302 5.78-.689 8.13-.204 1.242-.206 1.222-.137-1.687zm-38.552 39.011a954.2 954.2 0 0 1-.108-11.973c0-5.286-.174-11.164-.453-15.357-.11-1.658-.11-2.394 0-2.505.093-.092.167-.927.178-2.013.02-1.826.024-1.807.209 1.25.507 8.374.584 11.477.572 22.985-.007 6.464-.075 12.35-.152 13.082-.114 1.088-.159.09-.246-5.469zm-1.512-73.619c-1.41-.872-16.439-6.955-31.974-12.94-1.045-.404-1.58-.677-1.427-.73.29-.102.138-.257-.648-.656-.272-.138-.461-.284-.42-.324.04-.04 1.293.457 2.784 1.104 3.923 1.702 5.081 2.187 9.365 3.918 11.558 4.674 18.095 6.897 22.468 7.64 2.038.347 2.986.348 7.17.003 4.281-.353 9.633-.476 24.057-.553 8.394-.044 15.262-.107 15.262-.138 0-.08-25.111-33.538-27.915-37.195-1.232-1.607-2.24-2.968-2.24-3.024 0-.057.308.193.684.556.683.658.684.658.58.216-.058-.244-.05-.39.018-.324.067.066 6.914 9.213 15.214 20.325l15.091 20.205-6.961.102-17.9.262c-13.541.197-18.761.421-21.187.908-.675.136-.81.22-.939.589-.181.52-.318.528-1.082.056z" fill="#fff"/><path d="M135.19 193.906c-1.02-.406-1.118-.497-7.197-6.673l-6.163-6.262 28.003-.037 28.004-.037 4.397-2.685c4.37-2.668 6.338-3.932 7.846-5.04 1.9-1.397.349.171-1.897 1.916-.528.41-2.58 1.919-4.561 3.352l-3.6 2.605h-57.098l3.398 3.414c1.87 1.878 3.25 3.37 3.066 3.316-.195-.057-.332-.034-.332.057 0 .23 3.728 4.027 4.663 4.748.446.344 1.292.881 1.88 1.193 1.246.662 1.066.72-.409.133zm55.728-26.874a609.65 609.65 0 0 0-4.176-6.199c-1.24-1.813-2.254-3.345-2.254-3.405 0-.06.267.191.593.557.579.651.59.656.498.222-.06-.284-.044-.39.047-.296.195.204 3.965 5.86 5.766 8.651 1.565 2.426 1.76 2.819 1.568 3.16-.086.151-.665-.611-2.042-2.69zm-74.495 8.553c-2.407-3.813-20.856-40.132-21.156-41.647-.076-.385.035-.509 1.421-1.6 5.744-4.516 23.863-17 30.294-20.871.85-.513 1.593-.932 1.648-.932.525 0 5.189 6.066 10.818 14.072 4.178 5.94 25.84 37.549 25.778 37.612-.033.033-.144-.041-.247-.165-.253-.305-.417-.283-.473.063-.032.194-1.138-1.32-3.373-4.618-19.73-29.104-31.446-45.042-33.106-45.042-1.34 0-10.17 5.585-19.592 12.392-7.22 5.216-11.456 8.742-11.456 9.538 0 1.133 3.745 9.068 13.285 28.144 5.996 11.991 7.5 15.177 6.159 13.054zm-22.52-45.278c-3.345-5.507-49.915-97.831-49.525-98.184.35-.315 1.3 1.49 12.234 23.222 25.849 51.376 37.162 73.37 38.009 73.894.712.44 11.232-6.505 21.113-13.938 6.35-4.778 9.626-7.603 9.626-8.3 0-.46-.624-1.576-3.152-5.63-2.844-4.562-6.486-10.126-12.289-18.774-5.079-7.57-6.817-10.115-23.626-34.612-9.447-13.767-9.996-14.602-9.822-14.939.176-.338.723.43 10.753 15.094 27.663 40.446 39.956 58.66 40.427 59.898.069.183-.835.877-3.872 2.973-8.993 6.208-26.447 17.883-29.411 19.673-.104.063-.29-.088-.465-.377zm100.522 30.598c-1.045-1.403-8.41-11.264-16.367-21.915-32.474-43.467-77.323-103.595-83.464-111.899l-1.42-1.922 1.717-.09c.945-.05 7.772-.098 15.17-.107l13.451-.015 38.581 40.222c76.085 79.321 70.14 73.075 70.14 73.701v.552l-1.238-1.256c-.681-.69-11.607-12.098-24.28-25.35a215334.695 215334.695 0 0 0-82.763-86.511l-.896-.924-6.571.006c-3.615.004-8.8.066-11.524.138-6.42.17-8.004.393-8.619 1.217-.353.473-.368.445 1.652 3.221 6.133 8.432 45.972 62.135 80.379 108.352a60914.79 60914.79 0 0 1 15.346 20.62c1.693 2.277 3.143 4.223 3.223 4.324.11.138.05.185-.235.185-.323 0-.678-.396-2.282-2.55zM131.408 80.13c-1.642-2.16-3.875-5.048-4.371-5.65-.028-.034-.084-.029-.125.012-.04.04.862 1.455 2.006 3.143 1.145 1.688 2.05 3.1 2.013 3.137-.057.056-8.261-11.634-10.869-15.488-.817-1.207-.95-1.526-.448-1.076.453.406 14.063 18.547 13.979 18.632-.04.039-1.022-1.18-2.185-2.71zM42.267 28.372c-.61-1.042-5.52-11.02-6.13-12.459-2.51-5.92-2.551-8.879-.159-11.296 1.434-1.448 2.623-2.104 4.359-2.406 1.9-.33 9.232-.306 20.204.066 17.986.609 27.996 2.176 41.705 6.529 7.013 2.226 8.432 3.191 15.927 10.828l3.036 3.094-17.634.067c-15.6.059-18.895.106-22.338.32l-.836.053.803-.143c.995-.178 3.8-.438 6.357-.59 1.165-.07 7.862-.136 16.86-.167 8.347-.028 14.912-.09 14.895-.14-.078-.223-5.44-5.739-6.195-6.372-8.559-7.189-25.374-11.05-56.29-12.924-4.107-.25-11.463-.253-13.561-.008-7.567.885-9.496 3.517-7.344 10.021.815 2.464 1.644 4.294 4.672 10.306l2.855 5.67h-.461c-.433 0-.477-.027-.725-.449z" fill="#fff"/><path d="M74.077 26.18c0-.328-.212-.414-.828-.336-.357.045-.183-.042.687-.342.64-.221 1.545-.623 2.01-.893 1.123-.653 1.276-.625.268.05-.444.297-1.107.82-1.472 1.161-.614.575-.665.602-.665.36zm-29.863 5.709l-.118-.33.645-.11c2.206-.377 8.314-.536 20.504-.535l10.243.001.235.363c.13.2.236.382.236.405 0 .023-.194-.025-.43-.107-.837-.288-3.087-.345-13.629-.345-14.523 0-17.39.133-17.533.82-.022.107-.078.047-.153-.162zM200.29 299.638c1.092-.037 5.655-.167 10.139-.29 40.197-1.105 76.29-4.082 95.117-7.846 7.442-1.487 11.615-2.866 14.516-4.794 4.212-2.8 5.62-6.763 5.983-16.837.142-3.942-.171-15.179-.54-19.337-.92-10.388-3.377-14.395-11.794-19.227-4.193-2.407-12.008-6.163-16.835-8.092-9.369-3.743-19.272-5.866-33.454-7.171-1.897-.175-7.494-.6-12.438-.943-9.911-.69-17.947-1.347-21.636-1.768-2.3-.263-2.34-.276-.941-.298 1.828-.03 12.842.497 19.232.92 15.886 1.048 33.274 3.235 40.705 5.12 4.953 1.256 10.994 3.781 19.71 8.24 9.763 4.992 13.172 7.415 15.465 10.99 1.455 2.267 2.31 4.81 2.813 8.362.646 4.565.772 22.876.205 29.789-.363 4.425-1.212 6.695-3.362 8.994-3.968 4.242-9.953 6.02-30.526 9.073-26.488 3.93-39.65 4.724-84.52 5.098-5.404.046-8.931.053-7.84.017zm13.16-113.308c-9.25-12.378-16.85-22.587-16.888-22.685-.039-.099.059-.18.216-.18s1.88 2.14 3.827 4.756a22407.94 22407.94 0 0 0 16.752 22.42c7.266 9.716 13.226 17.757 13.244 17.869.018.112-.05.231-.15.265-.101.033-7.751-10.067-17.001-22.445zm52.688-12.1c-.62-.628-1.184-1.05-1.255-.936-.163.264-32.482-33.573-32.571-34.101-.12-.714.295-.42 2.18 1.538 10.23 10.623 32.924 34.49 32.858 34.555-.047.047-.592-.429-1.212-1.057z" fill="#fff"/><path d="M331.094 273.79c-.095-24.647-.231-30.775-.769-34.413-.275-1.863-.491-1.988-.885-.514-.12.451-.277 5.175-.36 10.835-.08 5.519-.164 8.576-.187 6.794-.061-4.89-.425-10.955-.782-13.066-.35-2.064-.836-3.27-2.149-5.33l-.865-1.36.677-.073c.372-.041 1.923.044 3.446.188l2.77.263v31.325c0 30.67-.008 31.326-.398 31.326s-.4-.603-.498-25.974z" fill="#fff"/><path d="M326.83 283.877c.065-.172.359-.889.65-1.592 1.164-2.797 1.565-6.618 1.613-15.34.03-5.481.033-5.434.32 4.382l.29 9.922-1.498 1.47c-.823.81-1.442 1.33-1.376 1.158zm6.281 7.892c.073-4.398.18-16.557.24-27.02.133-23.406.246-28.326.648-28.326.247 0 .29 4.787.29 31.671v31.67h-1.31l.132-7.995zm-156.528 81.424c.453-1.949 9.556-60.218 10.333-66.142.279-2.124.002-3.012-1.002-3.214-1.19-.24-1.616-.434-1.616-.732 0-.217.34-.352 1.15-.454 3.088-.39 18.483-.6 53.253-.726l38.098-.138.054 17.542.053 17.542 15.626.053 15.627.054v-35.123h67.888c37.339 0 70.64-.062 74.003-.138l6.115-.138v1.322l-5.488.003c-14.387.007-141.13.63-141.195.695-.04.04-.281 7.57-.535 16.734-.253 9.163-.511 16.738-.572 16.833-.062.095-3.922.283-8.578.417-22.28.642-23.353.824-24.49 4.155-.625 1.83-.707 1.308-.407-2.585.126-1.634.23-3.31.23-3.723v-.754h-14.216v-.836c0-.46.052-.836.116-.836.358 0 13.305 1.05 14.047 1.14l.888.106v-31.14h-41.083l-5.445 17.508-5.444 17.508-8.455.05c-4.65.027-10.006-.023-11.903-.113-3.103-.146-2.442-.18 6.585-.334 5.519-.094 10.775-.231 11.681-.305l1.647-.135 2.177-6.794c3.088-9.636 7.492-23.674 7.985-25.453.23-.829.34-1.554.247-1.612-.537-.332-8.655-.556-24.334-.672l-17.738-.13.074 14.334c.04 7.884.059 14.32.041 14.3-.12-.128-.75-8.336-1.015-13.205-.526-9.673-1.152-14.947-1.775-14.947-.514 0-2.196 8.67-5.414 27.908-1.599 9.556-6.71 41.774-6.71 42.294 0 .136-.133.247-.294.247-.173 0-.26-.15-.21-.366z" fill="#fff"/><path d="M279.101 304.364c0-.414.14-.418 13.38-.418 13.239 0 13.378.004 13.378.418s-.14.418-13.379.418c-13.24 0-13.379-.004-13.379-.418zm67.104-36.374v-31.776l-2.56-.024c-3.115-.03-2.835-.135.627-.237l2.56-.075v31.943c0 28.255-.036 31.944-.313 31.944s-.314-3.67-.314-31.776zm-101.179 69.404v-4.39h10.871v8.78h-10.871v-4.39zm-2.803 5.628c-.298-.354-.542-.773-.542-.93 0-.159-.131-.363-.292-.455-.208-.119-.314-.725-.366-2.103-.062-1.642-.022-1.953.265-2.044.826-.262 1.057-.863 1.25-3.253.103-1.291.235-2.395.293-2.453.057-.057.105 2.592.105 5.888s-.04 5.993-.086 5.993c-.048 0-.33-.29-.627-.643zm-5.693-1.772c-.887-.887-.299-2.254.97-2.254 1.27 0 1.858 1.367.97 2.254-.675.676-1.264.676-1.94 0zm27.014.328c-1.115-.215-1.376-.653-1.376-2.31 0-2.209-.05-2.188 5.33-2.188 5.382 0 5.332-.02 5.332 2.187 0 1.688-.251 2.083-1.476 2.32-1.126.216-6.67.21-7.81-.01z" fill="#fff"/><path d="M247.304 344.678c-.99-.102-2.212-.316-2.718-.474-.822-.258-.154-.29 6.349-.31l7.267-.02-.055-6.533-.055-6.533-7.212-.104c-6.366-.092-7.083-.135-6.105-.366.763-.18 3.153-.261 7.683-.261h6.574v14.842l-4.964-.028c-2.731-.016-5.775-.112-6.764-.213zm31.797-10.682v-.679l13.379.055 13.38.056v1.248H279.1v-.68zm-15.389 10.714c-.588-.086-1.245-.255-1.46-.375-.363-.203-.353-.227.128-.325.701-.143 11.754-.574 11.865-.462.049.048-.29.28-.752.516-1.437.734-6.779 1.086-9.78.646zm-26.586-.016a6.858 6.858 0 0 1-1.301-.582c-.609-.37-.595-.373 1.647-.28 1.483.06 2.416.01 2.712-.149.594-.318.578 0-.03.571-.568.533-2.024.745-3.028.44zm-70.927 62.799c-6.702-.49-21.463-2.049-33.343-3.521-7.678-.952-30.37-4.166-30.53-4.324-.047-.048-.112-.313-.144-.588-.042-.375.098-.575.56-.802 1.507-.739 10.695-2.197 26.56-4.215 24.767-3.151 37.007-4.896 41.966-5.982.559-.122.575-.1.574.787 0 .502-.142 1.854-.314 3.003-.38 2.53-2.783 14.611-3.043 15.296-.194.51-.146.502-2.286.346zm-.206-1.447c1.52-.451 2.573-1.51 3.003-3.02.38-1.332 2.08-13.788 1.906-13.962-.119-.119-10.274 1.252-33.238 4.486-20.745 2.922-32.728 4.832-33.202 5.294-.305.296 1.073.622 6.218 1.47 10.468 1.726 38.73 5.301 48.62 6.15 1.789.154 5.562-.082 6.693-.418zm47.764 5.412c-2.969-.135-16.52-1.14-23.518-1.745-14.336-1.238-17.895-1.779-18.873-2.867-.376-.419-.244-1.38 1.91-13.845a2293.99 2293.99 0 0 0 2.253-13.327c.623-3.773 1.099-6.114 1.243-6.114.167 0 .18.343.047 1.202-.102.66-1.177 7.505-2.388 15.208-2.309 14.688-2.377 15.417-1.53 16.32.53.564 2.04.8 3.172.495.754-.203.814-.27.688-.771-.076-.302-.414-.898-.75-1.324-.798-1.006-.78-1.204.044-.51 1.573 1.323 4.615 2.475 8.792 3.33 4.94 1.01 9.95 1.636 21.87 2.73 7.55.694 10.67 1.059 10.884 1.273.092.092-.941.077-3.844-.055zm111.357-6.785c-1.805-3.339-2.435-6.778-2.429-13.24.006-5.821.434-8.624 1.877-12.283.398-1.007.723-2.159.723-2.56 0-.71-.024-.73-.811-.73-.956 0-6.279.702-26.784 3.537-20.239 2.798-32.782 4.472-48.603 6.487-17.424 2.22-25.089 3.229-31.125 4.098-4.516.65-6.253.836-5.668.604.976-.387 19.574-3.017 50.903-7.2 32.456-4.333 49.674-6.67 70.868-9.617 32.767-4.557 57.863-7.83 82.496-10.76 8.884-1.056 8.44-1.015 8.44-.762 0 .101-.635.25-1.411.33-3.64.377-37.755 4.684-49.618 6.265-12.913 1.721-46.444 6.377-46.528 6.46-.023.023-.25 7.001-.507 15.508-.256 8.506-.533 15.544-.617 15.64-.083.096-.626-.703-1.206-1.777z" fill="#fff"/><path d="M347.293 404.53c-2.089-5.408-2.666-12.686-1.53-19.311.382-2.23 2.166-8.647 2.503-9.003.316-.334 1.065 5.102 1.292 9.377.242 4.561.12 12.82-.238 16.107-.208 1.903-.778 4.665-1.02 4.936-.074.083-.527-.865-1.007-2.106zm18.429-4.578c-.07-.316-.171-.716-.227-.888-.055-.173-.188-3.082-.295-6.464-.28-8.828.144-20.915.756-21.525.308-.307 1.17 1.18 1.773 3.06 1.236 3.855 2.083 9.1 2.083 12.908 0 5.346-1.392 11.34-3.009 12.957-.675.676-.925.665-1.081-.048zm23.45.279c-.299-1.19-.542-7.87-.536-14.756.005-7.03.253-14.129.501-14.377.231-.232.97.683 1.558 1.926.816 1.727 1.973 5.437 2.557 8.2.625 2.954.68 7.458.121 10.105-.818 3.882-2.273 7.771-3.343 8.937-.548.597-.7.591-.858-.035zm24.648 2.101l-.214-.677c-.059-.185.103-2.043.358-4.129.64-5.213.647-13.305.018-19.054-.42-3.837-.43-5.33-.034-5.33.58 0 2.443 4.555 3.078 7.525 1.193 5.583 1.026 12.63-.404 17.12-.54 1.695-1.688 3.98-2.255 4.493-.394.355-.448.36-.546.052zm101.176-24.088c-11.843-1.075-34.044-3.087-49.336-4.471-47.225-4.275-62.159-5.705-63.052-6.035-.718-.265-.28-.396 2.863-.854 10.645-1.551 62.69-7.475 79.945-9.099 24.095-2.268 49.09-3.263 90.465-3.6l16.358-.133v1.276l-17.821-.11c-27.344-.17-46.478.312-64.857 1.632-26.209 1.882-84.82 7.725-99.286 9.898-2.192.33-2.542.455-1.762.632 2.947.669 38.088 4.15 101.361 10.042 30.612 2.85 29.719 2.762 27.908 2.77-.69.004-10.944-.873-22.786-1.948zm-72.559 26.175c-.061-.16.028-.794.198-1.411 1.337-4.848 1.665-16.814.636-23.226-.382-2.386-.49-4.84-.223-5.107.507-.507 2.192 2.639 3.097 5.783 1.357 4.71 1.338 13.865-.04 19.268-.542 2.124-1.061 3.295-1.873 4.22-.694.79-1.584 1.024-1.795.473zm26.528.145c-.271-1.28-.196-26.622.08-27.241.228-.51.247-.494.762.653.767 1.705 1.733 4.934 2.337 7.813 1 4.76.901 9.218-.31 14.013-.584 2.315-1.928 5.32-2.45 5.483-.147.045-.32-.255-.419-.72zm30.008 3.067c-.225-.745-.277-3.418-.257-13.062.015-6.669.117-12.736.228-13.484l.201-1.358.758 1.59c.812 1.704 2.004 5.946 2.577 9.176 1.008 5.68-.426 14.68-2.797 17.556l-.428.52-.282-.938z" fill="#fff"/><path d="M425 362.238c0-.25.393-.31 7.422-1.104 38.61-4.369 72.068-7.638 96.476-9.426a39.806 39.806 0 0 0 2.247-.22l.68-.106v-22.977h36.792v22.742l3.397.136c1.868.074 6.548.21 10.4.303l7.003.167-10.61.033-10.608.033v-22.996H532.87v11.812c0 11.109-.022 11.81-.366 11.81-.92.001-25.072 1.495-28.797 1.782-17.12 1.32-51.926 4.926-77.295 8.007-.776.094-1.411.096-1.411.004z" fill="#fff"/><path d="M534.124 340.844v-9.93h31.775v19.86h-31.775v-9.93zm31.148 0v-9.303h-30.103v18.605h30.103v-9.302zm-9.477 73.55c-.233-.233-.158-1.556.218-3.848.522-3.182.524-17.097.003-20.924-.385-2.83-.472-5.4-.183-5.4.81 0 2.463 4.208 3.285 8.361.465 2.347.654 10.103.315 12.912-.347 2.877-.996 5.367-1.811 6.948-1.01 1.957-1.402 2.376-1.827 1.95zm-30.999-2.046c-.145-.379-.004-2.49.344-5.132.62-4.714.447-16.056-.323-21.113-.35-2.304-.391-3.688-.114-3.86.512-.316 2.282 3.273 3.141 6.368 1.484 5.346 1.608 12.406.309 17.527-.541 2.133-2.075 5.536-2.785 6.178-.405.367-.443.369-.572.032zm62.867-13.389v-13.588l.529 1.15c1.93 4.204 2.543 6.792 2.725 11.497.213 5.526-.384 8.883-2.225 12.503l-1.03 2.026V398.96z" fill="#fff"/><path d="M719.42 406.287c-.07-.182.038-2.61.24-5.397.477-6.618.282-11.914-.643-17.453l-.114-.68-76.868-.012-76.868-.013-6.166-.587-6.167-.588 59.996-.027c32.999-.014 75.73.036 94.96.113l34.964.139v.976H731.44c-10.676 0-11.307.02-11.204.366.06.2.49 1.451.956 2.779 1.18 3.356 1.524 5.495 1.516 9.398-.009 4.056-.439 6.274-1.755 9.053-.97 2.048-1.32 2.49-1.534 1.933zm17.062-45.098c-53.195-3.054-89.441-4.552-138.755-5.733l-5.488-.13v-1.274l8.31.142c18.884.324 50.674 1.682 83.776 3.58 2.99.172 11.503.645 18.919 1.052 28.026 1.538 39.378 2.198 39.476 2.297.36.36-.887.373-6.238.066z" fill="#fff"/><path d="M645.684 407.993c-.286-7.552-.005-21.709.456-22.956.164-.442.187-.433.609.25.616.998 1.414 3.48 1.91 5.937 1.274 6.318 1.15 10.112-.506 15.365-.612 1.941-1.806 4.676-2.129 4.876-.127.079-.255-1.226-.34-3.472zm28.012.038c-.167-3.113-.14-15.579.044-19.315l.133-2.718.764 1.587c1.685 3.498 2.135 5.884 2.127 11.27-.008 4.748-.408 6.978-1.706 9.515-.47.918-.937 1.791-1.04 1.941-.115.17-.236-.69-.322-2.28zm24.244-.441c-.226-1.894-.407-17.25-.241-20.54.154-3.062.166-3.119.536-2.662.881 1.089 2.108 5.95 2.527 10.013.418 4.053-.501 11.053-1.744 13.285-.679 1.22-.923 1.198-1.078-.095zm-17.868-54.534c-1.65-.09-3.06-.225-3.136-.302-.075-.076.898-.075 2.163.003 1.952.121 32.285-.23 32.43-.374.028-.028.15-4.376.27-9.662.122-5.287.264-10.577.316-11.755l.094-2.143h-40.322l.012 8.31c.007 4.57.09 9.391.187 10.714.096 1.322.139 2.442.095 2.488-.203.215-.907-1.914-1.099-3.325-.117-.862-.272-5.4-.344-10.086l-.132-8.519h41.836v24.877l-14.686-.031c-8.077-.018-16.035-.105-17.684-.195z" fill="#fff"/><path d="M674.186 350.46c0-.276 2.079-.314 17.456-.314h17.455v-18.605h-17.455c-15.377 0-17.456-.037-17.456-.314 0-.276 2.125-.313 17.874-.313h17.873v19.86H692.06c-15.749 0-17.874-.038-17.874-.314zm70.031 8.764c-33.205-2.026-76.468-4.384-110.482-6.02-3.22-.156-5.1-.294-4.18-.309 4.193-.066 46.105 1.76 73.793 3.216 26.573 1.397 42.363 2.446 51.635 3.432 5.355.569 2.303.479-10.766-.319zm-1.463 23.011v-.522h42.41l19.716-4.905c19.978-4.97 26.695-6.716 30.26-7.87 3.102-1.003 4.113-1.605 3.251-1.935-.183-.07-3.127-.271-6.541-.446-12.902-.661-35.969-1.95-70.535-3.94-14.02-.806-18.716-1.14-18.603-1.323.114-.184 2.341-.12 9.138.263 11.309.638 24.268 1.373 38.358 2.177 6.036.345 15.161.863 20.278 1.151 5.116.289 10.901.62 12.856.735 8.64.51 14.346.834 18.87 1.07 2.676.14 4.788.333 4.693.427-.344.345-14.68 3.846-45.68 11.156l-19.016 4.485h-39.455v-.523zm18.396-35.329v-9.93h17.769v19.86h-1.254V338.23h-15.051v18.605h-1.464v-9.93z" fill="#fff"/><path d="M931.315 368.4c-36.164-1.186-103.567-4.351-150.514-7.068-4.887-.283-11.801-.681-15.365-.885-3.565-.204-6.222-.4-5.906-.437.506-.058.575-.154.575-.806v-.74l.888.128c.489.07 5.193.186 10.453.257l9.564.129.025-1.646.026-1.646.18 1.23c.366 2.51 1.297 3.486 3.692 3.874 4.307.696 28.492 1.971 83.563 4.406 10.463.463 23.163 1.028 28.222 1.255 15.8.713 24.392 1.041 32.523 1.245 7.126.179 9.302.165 12.997-.08 1.152-.076 1.202-.058 1.202.424v.503l-5.174-.043a443.033 443.033 0 0 1-6.95-.1zm-156.577-33.754c.978-.101 2.326-.324 2.996-.495 1.588-.405 1.963-.392 2.214.077.193.36.069.396-1.822.521a53.185 53.185 0 0 1-3.597.108l-1.568-.027 1.777-.184z" fill="#fff"/><path d="M943.806 368.612c-.214-.059-.366-.3-.366-.584 0-.416.138-.504.993-.631 1.8-.27 2.268-.584 3.009-2.027.547-1.066.68-1.579.69-2.645.01-1.232-.034-1.365-.658-1.923-.65-.58-.945-.672-3.025-.936-1.4-.178-2.304-.856-2.66-1.992-.584-1.869-.73-2.14-1.363-2.525a2.732 2.732 0 0 0-2.603-.095c-.829.428-1.08.8-1.384 2.047l-.27 1.103-.022-1.502c-.03-1.894.184-2.46 1.038-2.758.842-.294 2.353-.3 3.38-.015.912.253 1.285.845 1.51 2.393.35 2.424.891 2.885 3.793 3.239 2.408.293 2.574.352 2.822 1.003.217.57-.143 3.481-.787 6.367l-.315 1.411-1.29.003c-.71.002-1.478.04-1.708.085-.23.045-.583.037-.784-.018zm-23.053-10.932c-.923-.447-1.863-1.018-2.09-1.269l-.413-.456 1.926.074c2.217.086 2.537.277 2.717 1.614.146 1.089.037 1.09-2.14.037zm-4.21-9.206c-.326-5.724-.695-6.86-2.624-8.077-.457-.289-.779-.576-.715-.639.063-.063.649-.048 1.302.034 1.698.212 2.098.676 2.272 2.642.076.85.108 3.52.073 5.935l-.064 4.39-.244-4.285zm-3.69-24.633c.294-.253.953-.443 1.856-.536 2.257-.23 3.264-.998 3.527-2.684.076-.49.28-1.126.453-1.414.291-.485.307-.385.227 1.372-.048 1.041-.193 2.092-.322 2.335-.3.56-1.19.84-3.166.997-.862.068-1.897.168-2.3.223l-.731.1.456-.393zm7.083-6.119c.059-.095.691-.453 1.406-.795a18.811 18.811 0 0 0 2.343-1.368l1.045-.746.065.855c.084 1.108-.373 1.815-1.265 1.952-1.339.206-3.7.273-3.594.102zm7.728-5.389a9.915 9.915 0 0 1 1.41-.75c.636-.266.778-.273.778-.041 0 .525-.811 1.024-1.82 1.12l-1.002.096.634-.425zm-43.474-13.247c.051-.373.325-3.172.608-6.219 1.037-11.174 1.322-18.637 1.504-39.353l.137-15.627h-62.75c-62.609 0-62.748 0-62.748-.418 0-.417.14-.418 63.442-.418h63.442l-.099.889c-.304 2.734-.753 13.24-1.146 26.81-.337 11.678-.836 31.597-.837 33.396v1.62h-.823c-.808 0-.821-.012-.73-.68zm3.672-5.383c-.067-3.728.98-37.212 1.445-46.2.388-7.502.682-10.452 1.042-10.452.232 0 .617 1.372.619 2.206 0 .35.119.76.262.91.214.223.141.248-.396.135l-.658-.139-.13 2.573c-.07 1.415-.27 6.618-.443 11.562-.7 20.048-1.494 39.641-1.644 40.555-.038.23-.081-.287-.097-1.15zM904.14 243.8c-1.075-.767-3.498-1.867-5.145-2.337l-1.44-.41 2.717-.014c3.51-.018 4.197.165 4.506 1.194.127.427.2 1.071.162 1.432l-.07.657-.731-.522zm-9.506-5.309c-1.468-.298-1.767-.592-1.015-1.001.808-.44 6.629-.573 8.1-.187 2.359.62.909 1.216-3.224 1.325-1.552.04-3.29-.02-3.861-.137zm15.103 6.079c-2.876-.218-3.03-.274-3.294-1.197-.122-.43-.282-2.029-.355-3.552l-.132-2.77h16.998v7.735l-5.592-.03c-3.076-.017-6.507-.1-7.625-.185zm43.32 6.344c-1.628-.093-3.994-.395-9.512-1.214-2.645-.392-5.185-.756-5.644-.808-1.378-.157 5.862.087 8.576.29 13.227.983 20.083-.019 17.096-2.499-1.22-1.012-5.931-3.25-8.842-4.2-9.916-3.234-23.75-5.434-26.447-4.206-1.14.52-2.272 1.834-2.743 3.188l-.393 1.126-.059-2.799c-.032-1.539-.01-2.846.048-2.905.138-.138 10.287.711 13.463 1.127 5.778.755 11.973 2.13 16.964 3.762 2.94.962 8.84 3.74 10.4 4.896 1.664 1.233 1.198 1.669-3.015 2.823-4.206 1.153-7.156 1.576-9.893 1.42zm-40.56-3.2c-1.302-.127-3.967-.728-3.968-.896 0-.025 2.61-.046 5.801-.046 3.19 0 6.272-.064 6.847-.141l1.045-.142-.836.392c-1.53.716-5.886 1.125-8.889.833z" fill="#fff"/><path d="M949.816 279.199c-12.206-4.125-18.69-6.45-21.393-7.673-1.31-.592-1.322-.606-1.176-1.283.444-2.045 5.327-15.508 6.425-17.716.369-.74.618-.973 1.197-1.122.912-.233 6.418.12 11.458.735a64.29 64.29 0 0 0 7.566.467c4.24.017 4.518-.023 11.67-1.666 2.222-.511 4.17-.929 4.33-.929.25 0 5.745 5.028 12.535 11.465 3.1 2.94 10.348 10.15 10.348 10.293 0 .22-3.185 1.612-7.63 3.334-4.971 1.926-22.431 8.36-22.64 8.344-.08-.006-5.791-1.918-12.69-4.25zm10.557-.704c.457-.229.884-.677 1.136-1.194.385-.79.389-.903.077-2.404-.18-.867-.891-3.034-1.58-4.816-1.305-3.375-1.715-4.748-1.351-4.523.114.07.607 1.046 1.097 2.169 2.38 5.462 4.748 8.862 7.32 10.513.894.573 1.189.658 1.98.569 2.13-.24 6.573-3.59 7.553-5.695 1.388-2.98.08-6.018-5.01-11.618-4.713-5.187-7.266-6.676-11.446-6.676-2.321 0-3.28.579-3.862 2.33-.435 1.31-.8 1.316-2.689.05-2.925-1.963-5.21-2.665-8.694-2.672-2.075-.004-2.555.061-3.503.483-1.844.82-2.957 2.41-4.242 6.057-1.047 2.971-1.408 5.277-1.036 6.605.808 2.887 3.239 4.897 8.99 7.434 7.361 3.248 13.024 4.505 15.26 3.388zm27.595-7.265c.94-1.133-1.654-4.681-7.873-10.768-4.338-4.247-8.394-7.695-10.064-8.555-.692-.357-1.882.064-2.048.723-.338 1.35 1.355 4.162 5.145 8.543 3.3 3.815 8.018 8.09 10.105 9.154 2.209 1.127 4.23 1.512 4.735.903zm-61.549-4.599c.21-1.734 1.73-7.509 2.743-10.428 1.072-3.09 2.152-5.372 2.89-6.11.732-.732 1.039-.608.447.18-.28.374-.742 1.15-1.026 1.725-.568 1.149-2.802 7.76-4.255 12.595-.6 1.996-.882 2.715-.8 2.038z" fill="#fff"/><path d="M990.058 300.897c0-1.717.502-5.842 1.368-11.25 1.352-8.44 1.693-12.758 1.028-13.013-.948-.364-7.678 1.691-20.27 6.19l-9.825 3.51-10.87-3.651c-13.053-4.384-24.404-8.566-23.387-8.618.13-.007 1.682.515 3.45 1.159 1.767.644 9.472 3.265 17.123 5.826l13.91 4.655 9.713-3.634c10.806-4.043 17.62-6.4 19.588-6.777 1.804-.345 2.005-.162 1.827 1.67-.737 7.597-3.162 24.678-3.56 25.075-.052.053-.095-.461-.095-1.142zm-42 12.613c.017-1.168.04-1.235.215-.63.242.84 1.065 1.306 2.902 1.646l1.359.251-2.247.02-2.248.02.02-1.307zm42.836 3.174c-9.23-.152-11.994-.35-12.812-.924-.42-.294-.336-.31 1.11-.21.86.059 3.774.202 6.476.318 5.603.241 16.884.808 17.978.905 1.143.1-2.867.072-12.752-.09zm20.763-6.57c-2.914-.674-8.553-2.255-11.982-3.36-5.305-1.708-7.16-2.661-7.377-3.791-.091-.475 1.852-13.388 2.048-13.61.073-.083 19.088 5.34 22.209 6.334l2.352.749v1.272c0 2.478-1.037 8.185-1.918 10.564-.507 1.366-1.589 2.37-2.532 2.35-.37-.008-1.63-.237-2.8-.508zm2.879-3.583c.845-.399 1.563-.91 1.857-1.323 1.177-1.653.605-3.804-1.545-5.808-2.4-2.239-5.316-3.387-9.028-3.556-4.848-.221-8.027 1.298-8.027 3.835 0 1.763 2.39 4.304 5.483 5.827 2.843 1.4 4.55 1.795 7.478 1.73 2.196-.05 2.523-.11 3.782-.705zm-16.473-18.189c-2.576-.611-3.25-2.095-2.807-6.172.236-2.163 1.182-7.668 1.346-7.832.084-.084 7.59 2.963 10.084 4.093.779.354 1.368.691 1.308.75-.059.06-1.003.004-2.097-.126-5.567-.656-9.253 1.736-8.017 5.203.177.496.795 1.573 1.372 2.392.577.82 1.05 1.613 1.05 1.763 0 .34-.578.322-2.24-.071z" fill="#fff"/><path d="M1007.129 288.477c-3.873-.688-6.91-2.592-7.353-4.61-.186-.848.383-1.786 1.418-2.337.769-.41 1.185-.47 3.184-.46 1.948.01 2.555.1 3.972.59 3.997 1.379 6.581 3.766 6.205 5.732-.18.941-.936 1.186-3.792 1.227-1.442.02-3.078-.043-3.634-.142z" fill="#fff"/><path d="M1015.31 293.178c-3.955-1.136-6.087-1.93-5.288-1.968.23-.011 1.346-.251 2.48-.533 3.08-.767 4.105-1.733 4.105-3.869 0-1.336-.63-2.611-2.098-4.246-.599-.667-1.03-1.27-.96-1.34.194-.193 7.161 2.448 7.646 2.9.233.217.483.627.554.912.16.64-1.995 9.303-2.31 9.282-.12-.008-1.979-.52-4.13-1.138zm-6.96 12.129c-2.58-.703-5.393-2.105-6.834-3.407-1.548-1.398-1.825-2.595-.802-3.457.987-.83 1.934-1.041 4.165-.929 3.59.181 7.623 1.89 9.697 4.107.542.58.986 1.238.986 1.463 0 .484-1.259 1.532-2.54 2.113-1.08.49-3.1.538-4.672.11z" fill="#fff"/><path d="M930.27 367.56c-4.344-.09-19.704-.679-31.566-1.208-6.151-.274-17.087-.76-24.302-1.078l-13.118-.579v-63.623l13.065-.088c7.881-.053 13.144-.167 13.264-.287.368-.369.998-13.552 2.088-43.642.328-9.061.63-16.51.673-16.552.174-.173 7.089.767 8.539 1.16 2.277.62 4.717 1.874 6.271 3.224 2.593 2.253 5.112 3.036 9.762 3.033 3.44-.002 5.184-.253 6.811-.983 1.812-.811 2.742-2.055 3.894-5.204.58-1.587 1.51-2.737 2.619-3.24 1.69-.77 6.553-.423 13.714.976 7.77 1.518 13.74 3.29 17.867 5.307 4.399 2.149 5.15 2.995 3.362 3.786-1.971.873-9.32 1.037-17.264.388-3.942-.323-10.285-.327-11.746-.01-1.782.389-2.447.939-3.445 2.85-3.007 5.756-6.18 20.191-4.721 21.474 1.342 1.18 9.853 4.385 26.392 9.94l9.93 3.334 8.362-3c12.524-4.493 19.668-6.768 21.254-6.768h.592v1.621c0 2.075-.427 5.706-1.335 11.352-1.03 6.407-1.238 8.172-1.258 10.65-.04 4.898 1.37 6.324 8.55 8.646 11.758 3.802 14.919 4.519 17.162 3.89 2.674-.748 3.891-3.395 6.15-13.373 1.54-6.8 2.084-8.82 2.657-9.874 1.285-2.361 3.141-2.25 10.197.608 6.479 2.626 8.708 3.993 9.783 6.002.42.785.459 1.143.443 4.1-.018 3.457-.267 5.094-1.89 12.422-.845 3.812-1.397 5.43-2.085 6.118-.582.583-1.803.633-4.37.182-5.962-1.048-34.436-2.826-63.864-3.988-1.667-.065-6.888-.206-11.602-.311-4.714-.106-9.16-.3-9.88-.432-1.662-.304-2.587-.914-2.867-1.893-.566-1.98-2.387-2.665-7.53-2.837-3.773-.127-6.773.208-9.844 1.098-2.343.68-3.148 1.109-4.73 2.524-1.614 1.443-3.214 2.544-5.22 3.592-1.79.934-2.746 2.125-2.985 3.717-.247 1.648-1.603 2.59-3.73 2.593-1.235.002-1.934.478-2.374 1.617-.336.871-.385 1.646-.385 6.12 0 6.894.409 8.616 2.296 9.684 1.09.618 1.575 1.337 2.033 3.01.37 1.353.382 1.37.275.381-.162-1.494-.847-2.762-1.848-3.42l-.851-.562.692-.067c.381-.037.976.05 1.321.192 1.008.418 1.21 1.214 1.168 4.624-.029 2.4-.064 2.72-.179 1.627-.078-.747-.102.24-.053 2.195.104 4.107.317 5.508 1.024 6.735 2.015 3.495 13.044 6.058 17.496 4.066 1.11-.497 1.517-.976 1.701-2 .184-1.023.6-1.665 1.278-1.975 1.106-.503 2.402-.178 3.169.795.15.19.257.223.261.08 0-.133-.283-.486-.636-.784-1.26-1.06-3.428-.572-4.044.912l-.309.742-.01-1.098c-.017-1.614.38-1.933 2.403-1.933 1.685 0 2.7.348 2.892.99.06.203.258 1.023.44 1.823.181.8.483 1.623.669 1.83.186.205.242.374.123.374-.326 0-.672-.495-1.126-1.608l-.41-1.005.127.836c.261 1.712 1.286 2.52 3.47 2.735 3.097.305 3.875 1.946 2.39 5.046-.7 1.46-.746 1.505-1.83 1.831-.61.184-2.57.422-4.351.529-3.063.183-4.665.192-10.87.061z" fill="#fff"/><path d="M1033.75 319.716c-1.438-.155-4.825-.57-7.527-.924-2.702-.354-5.618-.73-6.48-.836-1.389-.17-1.281-.18.94-.089 3.805.156 12.28.89 14.634 1.268 1.15.184 2.77.38 3.6.435 1.444.096 1.535.074 2.109-.5.856-.856 1.352-2.358 2.414-7.312 2.312-10.784 2.403-14.114.457-16.665-1.06-1.391-3.206-2.554-9.315-5.052-5.39-2.204-7.706-2.651-9.156-1.767-1.032.63-1.763 2.452-2.761 6.893-2.095 9.31-3.725 15.154-4.119 14.76-.06-.06.04-.484.223-.941.561-1.403 1.323-4.698 2.324-10.057 1.003-5.372 2.005-9.716 2.53-10.972.742-1.776 1.785-1.976 4.888-.936 1.633.547 17.315 6.983 17.524 7.191.11.11-.76 10.664-1.121 13.602-.794 6.448-2.254 11.279-3.632 12.016-.537.288-4.332.23-7.533-.114zm86.545 11.484l-16.828-2.18c-34.18-4.427-57.625-7.61-58.626-7.958-.352-.123-.64-.348-.64-.5 0-.152.335-1.436.745-2.854 1.574-5.451 1.917-8.028 2.17-16.312.101-3.3.243-6.095.315-6.212.257-.416 9.847 3.361 17.466 6.879 16.546 7.639 55.173 26.644 59.265 29.16 1.015.624 1.117.624-3.867-.023zm-53.131-14.402c.666-.847.934-3.12.813-6.883-.16-4.928-.452-5.638-2.87-6.974-3.007-1.661-11.8-4.986-14.38-5.436-1.44-.252-1.988.144-2.494 1.804-.544 1.78-.475 6.668.124 8.903.558 2.083.977 2.798 2.067 3.53 2.6 1.746 13.207 5.467 15.87 5.567.252.009.64-.218.87-.511z" fill="#fff"/><path d="M1063.083 314.398c-5.129-1.34-11.847-3.745-12.175-4.357-.4-.748-.73-4.043-.74-7.382-.01-1.916.059-3.551.141-3.634.48-.485 14.46 5.867 15.611 7.093.24.255.53.965.647 1.579.27 1.423.275 6.09.01 6.793-.26.684-.553.676-3.492-.092zm-51.075-1.611c-2.95-.515-16.577-4.784-18.104-5.67-.731-.425.017-.25 1.699.4 4.73 1.823 16.896 4.848 20.168 5.014.21.01.175.075-.105.196-.43.184-2.73.223-3.658.06zm116.304 64.635c-.254-.665.11-6.305.859-13.27 1.537-14.307 3.314-28.774 3.564-29.024.33-.33 4.308 2.464 7.431 5.216 3.51 3.092 6.257 7.731 7.659 12.933.44 1.631.54 2.482.553 4.709.018 3.114-.273 4.153-1.844 6.585-2.82 4.363-7.112 7.852-13.82 11.233-3.945 1.988-4.22 2.09-4.402 1.618zm41.851 253.096l.448-40.736h4.332c2.382 0 5.393-.84 6.69-1.866 1.296-1.027 12.14-5.068 24.098-8.98 38.133-12.477 49.336-19.42 49.336-30.573 0-6.44-8.645-14.829-19.605-19.025-4.394-1.682-20.784-6.888-36.42-11.569l-28.43-8.51-.449-40.43-.447-40.432h67.387c73.118 0 86.248.96 114.126 8.341 46.19 12.23 84.083 34.17 129.483 74.97l9.071 8.153.751 27.458.752 27.458-15.727 15.028c-41.666 39.817-87.812 65.05-139.527 76.295-15.214 3.308-22.741 3.668-91.448 4.38l-74.87.774.449-40.736zm324.119-82.128l.064-25.503 7.4 8.362c4.069 4.599 8.693 10.744 10.274 13.657l2.875 5.294-9.692 11.848c-5.331 6.516-9.983 11.847-10.34 11.847-.355 0-.617-11.477-.581-25.504z" fill="#fff"/><path d="M1181.482 570.47v-11.627h7.704c6.339 0 7.525-.469 6.69-2.645-.558-1.455-1.015-4.089-1.015-5.853 0-2.628-1.21-3.208-6.69-3.208h-6.69v-15.23c0-11.496.513-15.035 2.091-14.433 1.15.439 12.627 3.963 25.504 7.832 25.008 7.512 36.024 12.81 40.342 19.4 2.444 3.73 2.45 4.466.073 8.095-4.217 6.435-12.09 10.303-40.869 20.077l-27.14 9.217v-11.626zm-65.223-19.476c0-49.417.184-52.698 2.926-51.967 1.61.428 15.603 4.453 31.095 8.944l28.169 8.165-.974 5.884c-.535 3.236-.982 18.425-.992 33.752l-.018 27.868-30.103 10.05-30.103 10.05v-52.746z" fill="#fff"/><path d="M1137.163 499.347l-23.413-7.322-65.641-.039-65.641-.038v-63.551h180.617v39.301c0 21.616-.564 39.227-1.254 39.136-.69-.09-11.79-3.46-24.668-7.487z" fill="#fff"/><path d="M1037.656 579.748c0-14.257.61-25.922 1.353-25.922.744 0 2.814 1.105 4.6 2.456 4.541 3.435 32.053 3.435 36.595 0 1.785-1.351 4.984-2.456 7.108-2.456 3.003 0 3.86-.928 3.86-4.18 0-3.65-.73-4.182-5.754-4.182-3.165 0-6.22-.752-6.788-1.672-1.354-2.191-33.766-2.191-35.12 0-.569.92-2.118 1.672-3.444 1.672-1.987 0-2.41-4.25-2.41-24.25v-24.249h70.76l-1.096 22.842c-.603 12.563-1.096 37.021-1.096 54.352v31.511h-68.568v-25.922zm-122.084-58.533v-24.25h107.033v48.5H915.572v-24.25zm0 58.533v-25.922h107.033v51.844H915.572v-25.922z" fill="#fff"/><path d="M982.468 639.954v-30.94h133.094L1138 601.49c12.34-4.139 23.033-7.526 23.761-7.526.729 0 1.324 17.31 1.324 38.465v38.465H982.467v-30.939zm113.722 14.215V640.79h-40.137v26.758h40.137V654.17zm-13.38-31.026v-7.613l-8.78.505c-8.257.476-8.811.788-9.322 5.246-.923 8.062.521 9.475 9.688 9.475h8.415v-7.613z" fill="#fff"/><path d="M1059.397 653.333v-9.198h31.776v18.396h-31.776v-9.198zm12.157-27.081c1.627-.424 3.885-.396 5.017.062 1.133.458-.199.805-2.958.771-2.76-.034-3.686-.409-2.059-.833z" fill="#fff"/><path d="M1068.322 623.424v-3.193h10.453v6.365l-1.568-.346c-1.938-.426-4.298-.417-6.899.027l-1.986.34v-3.193zm112.762-67.035c-.632-.164-.732-.573-.627-2.565l.124-2.37h10.871l.13 2.077c.183 2.886-.31 3.161-5.541 3.101-2.313-.027-4.544-.136-4.957-.243zm-70.266 47.746c-.162-.92-.4-21.052-.527-44.737-.216-40.191.09-61.636.9-62.947.222-.359.443-.278.776.284 1.073 1.813.593 102.892-.512 107.609l-.342 1.463-.295-1.672zm-79.154.338c-.448-2.621-.448-45.719 0-48.34.408-2.398 1.195-2.42 1.617-.045.361 2.034.34 47.171-.024 48.848-.431 1.992-1.214 1.764-1.594-.463zm-4.015-1.133c-.39-4.295-.39-41.778 0-46.074l.3-3.303.29 2.09c.379 2.725.379 45.775 0 48.5l-.29 2.09-.3-3.303zm4.234-58.575c-.78-1.807-.797-45.844-.018-47.627.417-.954.642-1.108 1.04-.71.72.72.733 47.535.013 48.755-.471.799-.517.78-1.035-.418zm-4.234-2.091c-.383-3.807-.383-39.675 0-43.482l.293-2.926.3 1.881c.39 2.453.39 43.12 0 45.573l-.3 1.881-.293-2.927zm-235.271 37.838v-26.34h115.395v52.68H792.378v-26.34zm0-59.997V495.22h37.525c34.317-.001 67.245.475 74.839 1.083l3.031.243v49.264H792.378v-25.295zm-123.042 2.405c.079-12.59.243-23.849.364-25.019l.22-2.127 19.733-.276c10.853-.152 36.901-.277 57.885-.277h38.15v50.589H669.192l.145-22.89zm-.296 57.592v-26.34h116.649v52.68H669.04v-26.34zM454.138 640.3v-31.357H976.76v62.714H454.14V640.3zm7.003-89.76c-5.826-.126-7.003-.255-7.003-.768 0-.543 31.3-.61 262.251-.557 144.238.033 284.17.174 310.96.314l48.708.253-44.11.313c-45.04.32-558.096.72-570.806.445zm86.233-30.025V495.22h115.395v50.59H547.374v-25.295zm-123.339 59.997v-26.34h116.649v52.68H424.035v-26.34zm123.339 0v-26.34h115.395v52.68H547.374v-26.34zm-123.339-59.997V495.22h116.649v50.59H424.035v-25.295zm-103.687 0V495.22h97.416v50.59h-97.416v-25.295zm0 59.997v-26.34h97.416v52.68h-97.416v-26.34zM269.34 478.497v-3.345h83.735l5.064 2.789c2.785 1.533 5.435 3.039 5.888 3.344.689.465-7.062.556-46.931.556H269.34v-3.344zm53.307-23.575c-26.675-14.756-48.846-27.029-49.27-27.274-.725-.419-.683-.617.737-3.438.83-1.646 1.63-2.993 1.78-2.993 1.352 0 85.297 47.065 98.352 55.142.49.303.407.682-.48 2.193-.588 1.005-1.419 2.136-1.845 2.513-.732.648-3.465-.802-49.274-26.143zm-52.471-4.229c0-11.612.107-21.114.239-21.114.13 0 1.352.612 2.712 1.36l2.474 1.358.005 19.755.005 19.755h-5.435v-21.114zm9.198 2.927c0-13.832.12-18.187.5-18.187.56 0 14.444 7.555 44.85 24.403l20.471 11.344-9.183.26c-5.051.144-19.861.285-32.911.314l-23.727.053V453.62z" fill="#fff"/><path d="M217.843 492.334c-5.442-.137-10.05-.405-10.24-.594-.543-.545 6.642-14.289 10.68-20.426 9.048-13.753 20.659-25.258 35.184-34.862 6.106-4.037 12.433-7.525 12.865-7.092.362.363.286 31.553-.111 45.478l-.295 10.348 56.582-.005c31.12-.003 57.288-.121 58.15-.264l1.568-.259v-12.851h-2.252c-1.238 0-3.26-.318-4.494-.707-4.505-1.419-19.976-9.655-59.807-31.836-9.067-5.05-17.096-9.552-17.842-10.005-1.329-.808-1.337-.832-.396-1.115 2.22-.667 74.129-1.027 209.906-1.05l144.557-.024v65.744l-162.953-.248c-89.624-.137-166.324-.417-170.444-.623-7.778-.39-7.56-.332-8.815-2.335-.526-.84-4.633-1.3-7.928-.889-2.159.27-2.424.416-2.818 1.548-.244.697-.922 1.457-1.535 1.718-1.226.522-62.088.79-79.562.349z" fill="#fff"/><path d="M302.37 518.843v-26.967h5.434v53.934h-5.436v-26.967zm-30.104 1.672V495.22h26.34v50.59h-26.34v-25.295zm0 59.997v-26.34h26.34v52.68h-26.34v-26.34zm30.104 1.882v-28.222h5.434v56.443h-5.436v-28.221zm8.726 23.767c-.468-.564-.596-5.024-.695-24.21-.066-12.935.032-24.43.22-25.544.296-1.774.465-2.026 1.356-2.026.85 0 1.074.275 1.364 1.673.192.92.294 12.414.228 25.544-.098 19.486-.226 24-.694 24.563-.72.868-1.058.868-1.779 0zm0-61.041c-.467-.564-.596-4.92-.694-23.519-.066-12.555.036-23.58.228-24.5.29-1.391.517-1.671 1.356-1.671.838 0 1.066.28 1.353 1.664.19.915.293 11.94.228 24.499-.096 18.61-.224 22.963-.692 23.526-.72.868-1.058.868-1.779 0zm-171.157 4.877c-16.765-.163-6.393-.291 42.61-.529 64.102-.31 276.794-.316 273.366-.007-.977.088-1.777.338-1.777.555 0 .407-271.886.39-314.2-.019zM37.296 625.846c0-2.118.06-2.27.657-1.673.833.833 1.052.826 4.578-.153 5.397-1.499 39.7-14.773 40.756-15.77.49-.465.621-1.656.602-5.49-.039-7.454-1.194-9.241-5.583-8.634-1.422.196-32.365 6.71-39.604 8.337-.887.2-.897.124-1.195-9.516-.38-12.339-.109-92.115.316-92.54.318-.318 5.326.673 25.595 5.063 13.067 2.83 17.127 3.475 18.114 2.876 1.645-.999 2.343-3.49 2.518-8.976l.167-5.257-4.123-1.587c-30.987-11.922-38.008-14.447-40.157-14.447-.611 0-1.456.31-1.876.691-.733.664-.765.586-.765-1.881 0-1.415.141-2.577.314-2.581.172-.004 15.012 4.547 32.978 10.115l32.664 10.123.312 56.172c.172 30.894.208 56.275.08 56.403-.247.247-65.504 21.053-66.034 21.054-.173 0-.314-1.048-.314-2.33zm72.749-105.331V495.22h26.758v50.59h-26.758v-25.295zm0 59.997v-26.34h26.758v52.68h-26.758v-26.34zm33.03 0v-26.34h18.814v52.68h-18.814v-26.34zm25.085 0v-26.34h19.651v52.68H168.16v-26.34zm25.922 0v-26.34h19.651v52.68h-19.651v-26.34zm25.922 0v-26.34h19.651v52.68h-19.651v-26.34zm26.34 0v-26.34h19.651v52.68h-19.651v-26.34zm0-59.997V495.22h19.651v50.59h-19.651v-25.295zm-26.34 0V495.22h19.651v50.59h-19.651v-25.295zm-25.922 0V495.22h19.651v50.59h-19.651v-25.295zm-25.922 0V495.22h19.651v50.59H168.16v-25.295zm-25.085 0V495.22h18.814v50.59h-18.814v-25.295z" fill="#fff"/><path d="M70.535 503.93c-15.754-3.466-28.212-6.249-29.267-6.539-1.611-.442-1.862-1.97-.589-3.588 1.226-1.557 1.28-1.544 16.686 3.954 20.07 7.163 22.19 8.157 13.17 6.173zm2.927-3.726c-21.114-7.507-30.61-11.02-31.219-11.55-1.31-1.144-1.488-7.24-.21-7.225.27.003 8.768 3.195 18.886 7.093 12.246 4.718 18.64 7.387 19.128 7.984.512.629.731 1.635.731 3.36 0 2.074-.115 2.459-.731 2.44-.403-.012-3.366-.958-6.585-2.102zm2.717-2.256c0-.943-1.155-1.533-10.984-5.612-14.193-5.889-19.47-7.802-20.017-7.256-.257.258-.35.775-.205 1.151.46 1.2 11.871 6.247 23.262 10.289 5.961 2.115 7.944 2.471 7.944 1.428zM40.627 609.534c-.226-.595-.456-1.675-.512-2.401l-.101-1.32 5.226-1.356c6.393-1.66 25.01-5.83 27.594-6.182 1.256-.17 1.673-.124 1.255.14-1.14.719-32.11 12.2-32.91 12.2-.077 0-.326-.486-.552-1.081zm.715 8.293c.133-2.012.359-3.781.502-3.932.235-.246 24.568-9.125 34.27-12.504 4.6-1.602 4.726-1.534 4.563 2.47l-.108 2.652-5.435 2.09c-12.34 4.747-33.737 12.883-33.88 12.883-.085 0-.045-1.647.088-3.659zm14.759-4.143c8.902-3.333 17.533-7.083 18.466-8.022.4-.402.575-.988.418-1.401-.247-.651-.529-.623-3.405.34-8.503 2.85-26.758 10.593-26.758 11.351 0 1.548 2.353 1.075 11.279-2.268zM37.283 492.643c-.106-.503-.109-6.048-.003-6.428.111-.396.266-.36.46.104.41.975.588 3.626.346 5.116-.116.719-.456 1.6-.616 1.6-.057 0-.141-.177-.187-.392zm35.014 128.022c-.114-.185.7-.509 5.365-2.134 3.35-1.166 5.503-1.828 6.293-1.933.726-.096.6.065-.473.604-3.05 1.534-10.88 3.958-11.185 3.463zm-34.992-5.099c-.093-.22-.134-1.047-.14-2.77-.006-2.366.06-3.24.248-3.24.17 0 .557 1 .708 1.829.272 1.5.031 3.615-.485 4.249l-.2.245-.131-.313z" fill="#fff"/><path d="M40.87 605.42c1.99-.64 11.595-2.952 20.172-4.855 7.694-1.707 16.533-3.56 16.928-3.547.207.006-1.187.595-4.219 1.781-1.317.516-2.439.923-2.494.904-.054-.018.365-.215.932-.438 1.424-.56 2.128-.899 2.128-1.026 0-.205-1.802.01-4.181.498-7.92 1.628-21.333 4.725-27.568 6.367-2.325.612-3.028.742-1.699.315zm-3.788 21.048c.04-3.097.12-3.464.616-2.845.298.373.313.506.038.334-.393-.245-.465.006-.464 1.618 0 1.717.095 2.468.32 2.554.179.068.706-.084 5.721-1.656 2.005-.628 3.692-1.127 3.75-1.108.077.026-8.923 2.933-9.852 3.183-.136.036-.153-.236-.129-2.08zm43.55-20.532c.037-.395.078-1.612.09-2.704.019-1.738-.001-2.03-.165-2.33-.269-.493-.6-.594-1.473-.45-.397.065-.74.1-.762.078-.07-.07 1.75-.605 1.935-.57.105.02.257.263.38.607.182.512.204.867.208 3.283.004 2.197-.022 2.718-.138 2.756-.115.04-.13-.089-.075-.67zm-4.277-100.731c-1.54-.286-1.703-.335-1.228-.362.302-.017.549-.075.549-.128 0-.118-1.37-.769-2.756-1.311-.567-.222-.985-.418-.929-.437.152-.05 5.404 2.01 6.141 2.409.417.226.297.214-1.777-.171z" fill="#fff"/><path d="M37.459 531.189c.078-14.624.229-27.962.337-29.685l.067-1.072h.432c1.146.002 5.01.773 20.47 4.084 15.112 3.237 18.578 3.904 20.957 4.036 1.445.08 1.91-.062 2.535-.772 1.326-1.506 1.709-3.757 1.943-11.435.056-1.85.043-2.268-.073-2.315-.078-.031-3.387-1.304-7.354-2.828-27.644-10.62-34.685-13.138-36.746-13.138-.738 0-1.503.268-2.049.718-.272.225-.427.291-.502.216-.13-.129-.147-3.357-.022-4.096.054-.32.136-.496.232-.496.081 0 1.407.38 2.946.845 10.336 3.124 62.346 19.227 62.477 19.345.083.074.326 31.58.363 47.097l.007 3.058H37.387l.072-13.562z" fill="#fff"/><path d="M78.26 502.026c-1.252-.433-2.256-.807-2.231-.832.025-.025.79.199 1.701.496 1.082.354 1.855.547 2.23.557.565.014.574.01.699-.351.161-.466.177-3.096.024-3.924-.14-.757-.407-1.3-.806-1.635-.575-.484-5.684-2.686-11.609-5.004-1.228-.481-2.189-.89-2.134-.907.105-.036 12.817 4.84 13.381 5.132.422.218.82.74 1.101 1.445.19.473.228.829.264 2.406.04 1.717-.086 3.252-.275 3.363-.038.022-1.093-.314-2.345-.746zm61.277 25.634c-.027-4.368-.026-11.024.003-14.79.047-6.21.061-6.652.153-4.755.121 2.502.104 24.446-.02 26.235-.062.883-.102-1.1-.137-6.69zm-22.801-32.428c3.698-.015 9.718-.015 13.379 0 3.66.016.635.028-6.724.028-7.358 0-10.353-.012-6.655-.028zm-6.672 25.321v-25.242h26.654v50.485h-26.654v-25.243z" fill="#fff"/><path d="M136.822 520.501v-25.295h-13.379c-11.823 0-13.379-.018-13.379-.157 0-.138 1.562-.156 13.432-.156h13.43v25.451c0 13.999-.023 25.452-.051 25.452-.03 0-.053-11.383-.053-25.295zm6.272-25.451c0-.139 1.115-.157 9.407-.157s9.407.018 9.407.156c0 .139-1.115.157-9.407.157s-9.407-.018-9.407-.157zm-3.561 92.765a1496.97 1496.97 0 0 1 .007-15.575c.045-6.514.067-7.313.153-5.696.123 2.31.104 25.9-.023 27.856-.068 1.051-.103-.627-.137-6.585zm26.007 3.919c-.1-5.77-.1-16.873 0-22.952.073-4.403.083-4.592.143-2.604.084 2.814.085 24.794 0 27.751-.064 2.274-.065 2.249-.143-2.195zm-28.718-11.236v-26.34h-13.379c-8.85 0-13.379-.036-13.379-.105s4.547-.104 13.432-.104h13.43v26.444c0 14.545-.023 26.445-.051 26.445-.03 0-.053-11.853-.053-26.34zm10.958-26.314a921.59 921.59 0 0 1 9.406 0c2.569.016.437.028-4.737.028s-7.276-.012-4.67-.028z" fill="#fff"/><path d="M147.78 554.184a921.59 921.59 0 0 1 9.406 0c2.569.016.437.028-4.737.028s-7.276-.012-4.67-.028zm-4.686-.131c0-.069 3.205-.104 9.407-.104s9.407.035 9.407.104c0 .07-3.205.105-9.407.105s-9.407-.036-9.407-.105zM375.78 481.28c0-.184.654-1.36 1.453-2.614l1.452-2.28.01 1.952c.016 2.699-.284 3.274-1.706 3.274-.665 0-1.21-.15-1.21-.333zM274.392 668.157c-11.116-6.47-18.963-12.024-28.013-19.824-11.204-9.657-24.124-24.843-29.88-35.121l-1.343-2.4 1.187-.48c1.976-.8 16.691-1.142 50.395-1.172l32.066-.029.128 1.976c.176 2.73 1.012 3.12 6.32 2.94 4.625-.157 4.87-.314 4.88-3.139l.006-1.777h143.826v62.715l-86.65-.019-86.651-.019-6.272-3.65zM651.947 459.56v-32.612H976.39v65.223H651.947V459.56zm262.09 120.784v-26.34h1.464v51.844l53.568-.052 53.569-.053.053-25.87.053-25.87h1.253v52.68h-109.96v-26.34zm0-59.474v-24.982h109.96v49.963h-109.96v-24.982zm108.654.365l.053-24.302H915.501v48.709l53.568-.052 53.569-.053.053-24.302zm-41.487 133.687c.115-15.947.247-21.5.865-36.427.25-6.042.27-4.482.298 23.048l.029 29.528 90.361-.052 90.361-.053-.016-28.744c-.015-27.499-.188-38.168-.723-44.8-.244-3.022-.353-3.49-.814-3.49-.723 0-10.377 3.09-28.153 9.01-16.252 5.413-18.33 6.058-19.337 6.001-1.044-.06.76-.695 24.122-8.505 13.888-4.643 25.318-8.374 25.4-8.293.082.082.179 18.015.216 39.851l.067 39.702H981.082l.122-16.776z" fill="#fff"/><path d="M1058.072 653.824v-9.93h33.865v19.86h-33.865v-9.93zm33.188-.47l.054-9.25h-31.988v18.607l15.94-.053 15.94-.054.053-9.25z" fill="#fff"/><path d="M1056.19 667.203c0-.276 2.3-.313 19.442-.313h19.441v-25.922h1.045v26.549h-19.964c-17.606 0-19.964-.037-19.964-.314zm9.013-39.193c-.38-.712-.522-1.364-.59-2.717-.101-1.959.355-5.813.803-6.798.261-.573.29-.39.344 2.143.032 1.523.032 4.016 0 5.54l-.058 2.77-.5-.938zm5.305 2.488c-1.036-.092-2.118-.262-2.404-.376-.36-.144 1.713-.211 6.744-.22l7.264-.014v-13.17l-6.846-.025c-4.367-.017-6.43-.087-5.697-.194 1.01-.148 11.458-.828 12.7-.827h.47v15.052l-5.174-.029c-2.845-.015-6.021-.104-7.057-.197zm-33.341-50.154v-26.34h.75c.749 0 .75 0 .629.784-.69 4.452-.958 13.894-.96 33.761v17.3l34.337-.053 34.336-.053.136-29.685c.075-16.326.238-32.883.361-36.792.124-3.91.227-8.025.23-9.146 0-1.897.034-2.038.422-2.038.37 0 .418.138.417 1.202-.01 5.172-.955 63.837-1.166 72.121l-.134 5.279h-69.357v-26.34z" fill="#fff"/><path d="M1077.924 556.735c.119-.222.216-.738.216-1.145 0-1.236.603-1.47 3.962-1.541l2.832-.06-1.426.515c-.784.283-2.054.893-2.822 1.355-2.128 1.28-3.152 1.605-2.762.876zm12.132-7.121c0-3.125.03-3.405.329-3.106.426.426.706 1.66.706 3.106s-.28 2.68-.706 3.105c-.3.3-.329.019-.329-3.105zm-8.81-3.966c-2.162-.149-3.106-.53-3.106-1.254 0-.22-.209-.547-.464-.726-.344-.241-.379-.326-.134-.326.183 0 .687.283 1.122.628.434.345 1.258.767 1.83.937 1.07.317 4.365.698 6.949.803.805.032.193.063-1.359.068-1.552.005-3.73-.054-4.838-.13zm-44.079-24.747v-25.013h70.659v1.045h-70.28l.102 20.958c.102 20.967.182 23.308.877 25.765.424 1.498.75 1.865 1.634 1.84 1.16-.033 2.175-.452 3.16-1.305 1.007-.872 1.706-1.06 5.659-1.521 2.742-.32 21.213-.345 23.831-.032 1.177.141-1.146.175-7.839.116-10.297-.092-17.638.165-19.34.678-.75.225-1.152.49-1.41.925-.541.918-1.731 1.29-4.579 1.433l-2.474.125V520.9zm5.017 34.313l-1.986-1.26 1.28.107c1.54.129 2.276.566 2.598 1.542.132.4.207.76.167.8-.04.04-.967-.496-2.06-1.19zm73.699 48.386c-.46-2.72-.571-10.313-.672-45.47-.124-43.47.105-59.538.867-60.771.06-.097.556-.037 1.102.131 1.726.534 40.056 11.808 50.798 14.941 6.848 1.998 10.294 3.095 10.295 3.279 0 .165-.145.23-.364.165-2.116-.636-48.253-13.964-55.083-15.912-2.274-.648-4.307-1.12-4.527-1.05-.891.282-1.316 2.092-1.718 7.327-.286 3.716-.528 97.517-.251 97.517.095 0 13.67-4.5 30.17-10l29.997-9.999.128-24.232c.14-26.657.404-35.062 1.222-39.075l.17-.836.02.94c.011.518-.114 5.41-.278 10.871-.332 11.074-.696 28.324-.91 43.15l-.142 9.806-30.103 9.996c-16.557 5.498-30.213 9.998-30.346 10.001-.134.003-.303-.348-.375-.779zm-58.753-44.917c-1.461-.078-8.12-.71-8.186-.777-.02-.02 5.781-.035 12.89-.035 7.11 0 12.907.02 12.883.044-.024.024-1.429.189-3.122.366-3.027.318-11.595.556-14.464.402zm123.351 23.177c-.076-.432-.19-5.747-.253-11.812l-.115-11.027h1.294l.054 11.581.054 11.582 17.664-6.014c9.716-3.307 19.5-6.673 21.741-7.48 19.923-7.17 26.345-11.01 29.785-17.81.724-1.432.757-2.714.103-3.997-2.234-4.388-5.914-7.603-12.537-10.95-7.458-3.772-14.338-6.214-36.27-12.874-7.243-2.2-14.325-4.374-15.737-4.833-1.412-.458-2.823-.803-3.136-.767-1.385.16-1.716 3.802-1.717 18.92v10.91l5.591.065c4.831.056 5.692.115 6.324.432.718.36.662.365-3.031.26-2.07-.059-5.205-.168-6.967-.243l-3.204-.135.094-14.654c.089-13.8.186-16.137.697-16.644.102-.102 2.561.54 5.617 1.463 2.99.904 11.644 3.494 19.232 5.756 29.13 8.681 33.328 10.393 40.217 16.396 1.853 1.614 4.273 4.455 5.07 5.949.523.982.689 1.584.766 2.787.093 1.45.054 1.625-.694 3.148-1.098 2.235-4.865 6.015-8.148 8.178-4.263 2.809-11.375 5.98-20.8 9.277-10.048 3.515-40.428 13.32-41.27 13.32-.166 0-.343-.33-.424-.785z" fill="#fff"/><path d="M1195.13 557.385c-.142-.86-.135-4.14.01-3.486.05.23.279 1.059.508 1.842.425 1.45.394 2.11-.108 2.304-.193.073-.321-.135-.408-.66zm-26.054 66.161v-33.518l2.561-.804c3.263-1.024 4.637-1.153 5.45-.512.409.323.523.532.372.683-.123.124-1.65.26-3.54.314l-3.321.095-.133 6.924c-.073 3.809-.23 17.696-.349 30.86-.242 26.81-.31 29.476-.748 29.476-.249 0-.292-4.955-.292-33.518zm11.08-35.456c0-1.434 4.172-3.058 26.894-10.47 13.153-4.292 19.663-6.531 24.388-8.39 1.473-.58 2.722-1.011 2.775-.958.111.111-.786.5-5.663 2.45-5.085 2.035-10.542 3.979-21.74 7.744-15.094 5.075-22.007 7.63-24.92 9.213-.828.45-1.557.818-1.62.818-.063 0-.114-.184-.114-.408zm70.813-47.767c-2.387-2.669-8.206-7.056-11.678-8.805-5.486-2.763-17.935-6.652-66.034-20.628l-3.867-1.124-.129-6.573c-.071-3.615-.141-18.309-.157-32.652-.024-22.693.011-26.079.276-26.079.183 0 .345.272.407.68.057.373.213 12.767.35 27.542.135 14.774.304 29.072.376 31.773l.131 4.91 10.348 3.09c35.058 10.473 51.803 15.763 56.554 17.869a43.316 43.316 0 0 1 8.412 4.952c2.531 1.907 6.93 6.393 6.267 6.392-.029 0-.594-.606-1.256-1.347zm-88.373-32.744c-.288-.087-2.828-.834-5.645-1.66-5.745-1.683-15.115-4.531-30.73-9.34l-10.557-3.251-32.82-.17c-18.051-.093-38.3-.175-44.998-.183-12.033-.013-12.177-.018-12.177-.432 0-.416.14-.418 44.045-.418h44.046l15.69 4.897c29.253 9.129 32.327 10.047 32.535 9.71.699-1.13 1.23-21.377 1.235-47.061 0-13.378.04-15.209.316-15.209.587 0 .336 59.114-.264 62.428-.142.785-.192.836-.676.689zm-55.342 16.27c.088-2.329.238-5.645.335-7.37.155-2.781.178-2.303.205 4.234.03 6.89.01 7.369-.335 7.369-.341 0-.355-.28-.206-4.233zm283.382-73.536c-19.802-9.247-50.744-17.815-72.278-20.012-14.613-1.491-19.116-1.586-84.09-1.77l-64.959-.184.307 7.974c.222 5.772.178 7.974-.16 7.974-.327 0-.466-2.554-.466-8.609v-8.608l62.61.204c67.042.219 74.824.443 91.25 2.627 14.74 1.96 35.488 7.23 51.059 12.969 6.216 2.291 17.554 7.007 19.887 8.272 2.237 1.213-.092.596-3.16-.837zm-363.127-21.955c24.797-.03 65.436-.03 90.309 0 24.873.03 4.585.053-45.085.053s-70.02-.024-45.224-.053z" fill="#fff"/><path d="M990.211 492.745l-8.1-.058v-65.636h181.871l-.046 11.76c-.025 6.467-.073 10.488-.107 8.936-.065-2.99-.204-3.837-.482-2.927-.088.288-.169-3.31-.18-7.996l-.021-8.518H982.319v63.76l22.525.036c12.389.02 22.125.072 21.636.116-.597.054-.888.179-.888.382 0 .306-7.915.339-35.381.145zm503.912 56.189c0-15.02.026-27.31.062-27.31.104 0 6.644 7.146 8.185 8.944 5.01 5.842 10.875 13.864 12.318 16.843 1.087 2.245.838 2.999-2.424 7.351-3.677 4.905-8.843 11.093-14.586 17.469-1.673 1.858-3.157 3.52-3.297 3.695-.243.302-.256-1.092-.259-26.992zm2.083 23.725c2.03-2.113 5.563-6.304 13.428-15.927a3731.12 3731.12 0 0 0 5.206-6.378c.164-.21-2.87-5.81-4.306-7.95-2.89-4.305-5.615-7.676-12.483-15.44l-3.71-4.194-.044 19.863c-.048 21.777.123 31.32.56 31.32.058 0 .666-.582 1.35-1.294zm-13.974-59.709c-19.566-17.545-34.46-29.291-50.948-40.185-11.542-7.626-23.57-14.475-34.047-19.388-2.382-1.118-2.793-1.377-2.556-1.614.237-.236 1.113.126 5.452 2.259 22.566 11.09 44.228 25.235 63.076 41.19 10.19 8.625 25.842 23.06 24.929 22.99-.03-.002-2.687-2.366-5.906-5.252zm-250.335 158.105v-.453h6.437c8.553 0 37.625-.359 50.947-.629 26.077-.529 34.542-1.192 45.781-3.587 32.218-6.866 62.669-19.37 90.936-37.34 15.01-9.543 30.346-21.373 44.133-34.045 1.712-1.573 7.087-6.66 11.944-11.302 8.018-7.664 8.833-8.386 8.833-7.825 0 .537-.94 1.532-7.167 7.588-10.02 9.745-14.119 13.557-20.219 18.798-36.895 31.703-79.562 53.95-121.225 63.209-5.52 1.227-13.673 2.792-17.968 3.45-11.633 1.78-22.823 2.185-67.608 2.444l-24.824.144v-.452zm-62.842-8.099c.016-4.951.066-8.304.111-7.45.081 1.537.272 1.977.481 1.108.06-.244.081 2.973.05 7.148l-.057 7.591 7.639-.097c12.635-.16 48.37-.524 51.578-.524l2.993-.001v.842l-20.14.097c-11.077.053-25.213.14-31.412.193l-11.271.095.029-9.002zm64.311-94.538c.017-.015.678-.302 1.469-.638 6.984-2.97 11.306-5.778 15.488-10.062 1.167-1.195 1.806-1.966 2.56-3.087 2.077-3.091 2.533-6.016 1.419-9.116-.363-1.01-1.228-2.54-1.966-3.477-.213-.27-.216-.285-.083-.384.17-.127.207-.085.837.925.913 1.463 1.59 3.12 1.825 4.465.145.83.1 2.761-.087 3.811-.52 2.91-1.847 5.296-4.317 7.764-2.357 2.354-5.143 4.279-9.662 6.676-1.745.926-6.434 3.15-6.64 3.15-.018 0-.013-.05.01-.11.023-.061.01-.111-.03-.111s-.214.05-.387.11c-.295.105-.506.145-.437.084zM283.91 421.453c-1.697-.164-2.575-.446-2.575-.826 0-.59 2.25-.527 9.198.253 3.612.406 4.121.504 3.24.62-1.416.188-7.75.157-9.863-.047zm-13.74 2.657c-.178-.949.031-1.764.519-2.025.881-.471.816 1.567-.08 2.461-.261.262-.318.206-.439-.436zm8.842 37.527c.003-13.993.204-25.145.478-26.448l.06-.292 1.429.747c2.753 1.44 5.874 3.16 5.825 3.208-.027.028-.933-.42-2.014-.996-2.634-1.401-4.698-2.428-4.883-2.428-.083 0-.18.092-.216.205-.222.698-.284 4.322-.334 19.524-.047 14.159-.077 16.645-.201 16.645-.124 0-.146-1.528-.144-10.165zm-3.347-9.598c0-15.765.026-19.755.13-19.72.104.034.137 4.099.158 19.763.023 17.486.009 19.72-.13 19.72-.14 0-.158-2.25-.158-19.763zm-6.585 26.348v-3.449h41.999c33.434 0 42.035.027 42.177.13.143.105-8.215.126-41.894.105l-42.073-.027v3.346c0 2.16-.037 3.345-.104 3.345-.068 0-.105-1.22-.105-3.45z" fill="#fff"/><path d="M265.986 484.32c.033-.475.11-3.027.172-5.671.062-2.645.128-5.02.147-5.279.02-.258.016 1.717-.008 4.39-.024 2.674-.071 5.36-.106 5.971l-.063 1.111 11.432.074c6.287.04 18.017.11 26.065.152 14.376.078 14.173.08-11.533.096l-26.167.018.06-.863zm38.424-47.7c-16.86-9.391-27.98-15.407-28.485-15.407-.232 0-.86 1.033-1.972 3.246-1.127 2.242-1.242 2.63-.883 2.98.134.13 4.302 2.48 9.262 5.224 4.96 2.743 8.995 5.011 8.967 5.04-.028.028-4.288-2.29-9.465-5.15-8.563-4.732-9.408-5.222-9.347-5.423.037-.121.6-1.303 1.25-2.625 1.156-2.349 1.817-3.415 2.157-3.48.302-.058 3.52 1.63 12.366 6.489 6.483 3.56 19.43 10.751 19.541 10.854.306.282-.418-.091-3.392-1.748zm-6.327-7.003c-.861-.494-1.634-.964-1.718-1.044-.209-.201-.037-.352.475-.416.334-.042.366-.032.174.053-.533.235-.23.52 1.725 1.62.589.332 1.071.621 1.071.644 0 .112-.283-.028-1.727-.857zm63.525 47.023c-5.362-2.965-9.727-5.413-9.701-5.439.026-.026 2.203 1.128 4.836 2.564 8.701 4.746 12.784 6.851 14.126 7.287.315.102.69.154.862.12.385-.078.379-.004-.038.474l-.336.384-9.749-5.39z" fill="#fff"/><path d="M377.05 471.714c-3.052-.538-9.905-3.896-26.867-13.164-12.27-6.704-50.1-27.69-50.394-27.955-.034-.03-.033-.074.003-.096.036-.022.346.117.69.31a9524.227 9524.227 0 0 0 24.091 13.44c23.74 13.177 36.068 19.845 43.755 23.667 5.797 2.883 7.38 3.48 10.1 3.81l.801.096-.776.001a9.783 9.783 0 0 1-1.404-.11zm-1.257 10.006c-.526-.18-.386-.525 1.298-3.205 1.355-2.156 1.634-2.564 1.69-2.472.104.168.205 1.947.17 3.001-.074 2.288-.465 2.778-2.212 2.768-.378-.002-.804-.044-.946-.093zm2.138-.259c.617-.305.745-.822.798-3.211.027-1.215.015-1.83-.034-1.83-.133 0-2.69 4.137-2.902 4.693-.089.234.057.386.427.446.151.025.325.057.386.073.235.058 1.084-.05 1.325-.17zm4.07-3.23c0-5.633.013-6.393.111-6.393s.111.76.111 6.393c0 5.634-.013 6.393-.11 6.393-.099 0-.112-.76-.112-6.393zm-23.933 3.505c3.326-.057 5.546-.17 5.881-.297.165-.063.177-.087.087-.176-.15-.146-3.368-1.967-7.447-4.214-1.919-1.057-3.443-1.932-3.386-1.944.088-.02 11.865 6.475 12.054 6.647.04.036-2.217.059-5.174.052l-5.243-.012 3.228-.056zm-54.558-9.949c8.078-.019 24.83-.16 29.046-.245 6.595-.132 12.6-.318 12.65-.392.028-.043.162 0 .332.104l.284.177-.406.05c-1.485.186-21.445.364-37.73.338-5.651-.01-7.53-.024-4.177-.032zm152.658-169.403v-.575l29.822-.098c16.403-.054 58.443-.099 93.422-.099 54.014 0 63.6.031 63.6.205 0 .291-6.49.357-52.846.535-68.242.263-106.905.429-120.657.519l-13.341.087v-.574zm17.886-29.818v-27.273h.887v54.545h-.887v-27.272zm.936-31.983c0-2.764.044-3.934.098-2.6a77.248 77.248 0 0 1 .001 5.025c-.054 1.43-.099.34-.1-2.425zm-.713-.147c0-2.957.111-4.73.296-4.73s.296 1.773.296 4.73c0 2.956-.111 4.73-.296 4.73s-.296-1.774-.296-4.73zm133.038 28.423v-31l-37.029-.173c-34.448-.16-53.995-.476-67.332-1.089-4.889-.224-4.544-.238 3.252-.127 4.797.067 29.642.208 55.211.311l46.49.188v31.445c0 20.766-.101 31.445-.296 31.445-.196 0-.296-10.53-.296-31zm141.907-.042v-31.042h-69.476c-61.558 0-69.475-.05-69.475-.444 0-.393 7.95-.443 69.771-.443h69.77v31.485c0 20.794-.1 31.486-.295 31.486-.195 0-.295-10.544-.295-31.042zm7.378-30.967c2.957-.064 4.346-.203 4.504-.453.178-.28.23-.281.234-.003.003.245.821.389 2.592.456 1.422.055-.606.097-4.509.095-3.902-.002-5.172-.046-2.82-.096z" fill="#fff"/><path d="M752.168 268.383l-.036-31.522 36.326.033 36.327.033-31.708.077c-30.051.074-31.732.092-32.189.342-.387.211-1.071.29-3.474.403-1.645.077-3.473.141-4.063.143l-1.071.003-.038 31.005-.037 31.005-.037-31.522zM642.883 301.91c.156-.099.079-.15-.295-.196-.28-.033 11.765-.072 26.765-.085 15-.013 41.707-.051 59.35-.085 28.509-.055 29.906-.048 12.564.063-29.5.188-82.39.445-90.983.441-4.617-.002-7.53-.056-7.4-.138z" fill="#fff"/></svg>